<?xml version="1.0" standalone="no"?>
<!DOCTYPE svg PUBLIC "-//W3C//DTD SVG 1.1//EN" "http://www.w3.org/Graphics/SVG/1.1/DTD/svg11.dtd" >
<svg xmlns="http://www.w3.org/2000/svg">
<metadata></metadata>
<defs>
<font id="pf_agora_slab_proMdIt" horiz-adv-x="1818" >
<font-face units-per-em="1000" ascent="750" descent="-250" />
<missing-glyph horiz-adv-x="273" />
<glyph unicode="fj" horiz-adv-x="561" d="M483 94q-7 -62 -20.5 -113.5t-39 -91.5t-65.5 -67.5t-100 -40.5l-19 65q42 18 67.5 42.5t40 55t21 66.5t11.5 77l33 325h-195q-1 -6 -3.5 -29t-6.5 -55t-8 -68.5t-7.5 -68.5t-6.5 -55.5t-3 -28.5q-8 -65 -18.5 -124t-32.5 -104t-59.5 -72t-100.5 -27q-22 0 -48 3.5 t-54 12.5l18 67q23 -5 38.5 -6t29.5 -1q46 0 73.5 35t39.5 123q10 82 17.5 141t12.5 101t8 68.5t5 43.5t3 26.5t2 17.5h-84l7 54l84 19l12 78q11 83 63 126.5t149 43.5q32 0 69 -4.5t78 -16.5l-19 -73q-35 7 -62.5 10t-55.5 3q-57 0 -86 -23t-36 -82l-9 -68h131q23 0 66.5 5 t87.5 13l14 -8z" />
<glyph unicode="ffj" horiz-adv-x="853" d="M775 124q-7 -61 -20.5 -112.5t-39 -91t-65.5 -67.5t-100 -41q-5 17 -9 33t-9 32q45 19 71 47t40 62.5t20 74.5t11 84l29 265h-191q-9 -75 -17 -146.5t-16 -141.5q-8 -65 -17.5 -124t-31 -104.5t-58.5 -72.5t-100 -27q-26 0 -48.5 3t-46.5 11l19 68q18 -3 32 -4t27 -1 q28 0 47.5 12t32.5 33t20.5 51t11.5 66q1 13 5 45t8.5 73.5t10 86t10 82.5t7.5 63t3 27h-189l-37 -307q-8 -64 -18 -122.5t-32 -103.5t-59 -72t-99 -27q-29 0 -53.5 4t-49.5 12q5 17 10 34.5t9 34.5q25 -5 40 -6t30 -1q27 0 46.5 13.5t32 37t20.5 56t13 71.5q4 28 8.5 66.5 t9.5 80t10 81.5t9 72.5t6.5 53t2.5 22.5h-84q2 14 3.5 27.5t3.5 27.5l85 19l4 30q11 109 68 156.5t163 47.5q29 0 65 -5t62 -14q29 23 65.5 34.5t91.5 11.5q35 0 72 -5t72 -14q-5 -19 -9.5 -37.5t-9.5 -37.5q-29 6 -56.5 10t-53.5 4q-62 0 -94.5 -23t-39.5 -83l-9 -80h127 q24 0 67 4.5t87 12.5q4 -2 7.5 -4t7.5 -4zM365 638q-24 0 -46 -4t-39.5 -17t-29.5 -38t-16 -67l-4 -33h189q3 24 6 48.5t7 49.5q2 14 5 27.5t8 24.5q-10 2 -22 3.5t-23 3t-20.5 2t-14.5 0.5z" />
<glyph unicode="ff" horiz-adv-x="661" d="M515 410q-8 -78 -16 -152t-18 -146q-8 -63 -18.5 -120.5t-32.5 -102t-60 -71t-100 -26.5q-19 0 -42.5 3t-47.5 11l19 69q18 -5 31 -6t25 -1q24 0 42.5 8t32.5 26.5t23.5 49t15.5 74.5l47 384h-196l-36 -307q-8 -64 -18 -122.5t-32 -103.5t-59.5 -72t-99.5 -27 q-29 1 -53.5 4t-48.5 11l19 68q23 -5 38 -6t30 -1q28 0 47 10t32.5 31t21.5 53t13 76q3 22 7.5 58t9.5 76.5t10 82.5t9.5 77.5t7 60.5t3.5 31h-84q1 14 2.5 27.5t2.5 27.5l88 19l11 69q7 48 27 79.5t49 50t66.5 26.5t80.5 8q28 0 61.5 -4t68.5 -15q23 23 60.5 34t73.5 11 q23 0 48 -4t51 -12l-18 -72q-20 5 -39.5 6.5t-33.5 1.5q-16 0 -32 -4t-29.5 -13t-23.5 -23t-14 -33q-5 -25 -7.5 -49t-6.5 -62h136q-2 -17 -4 -34.5t-4 -34.5h-136zM422 479q4 26 7 52.5t8 50.5t13 44q-21 5 -45.5 8.5t-39.5 3.5q-29 0 -50 -5t-35.5 -15.5t-23.5 -28 t-15 -41.5q-4 -14 -6.5 -31.5t-5.5 -37.5h193z" />
<glyph unicode="fi" horiz-adv-x="584" d="M356 479q12 0 29 1t37.5 3.5t42.5 5.5t44 7q4 -2 7 -4t7 -4q-14 -120 -25.5 -219t-23.5 -193q20 2 40.5 7.5t39.5 15.5l23 -44q-37 -36 -77.5 -51t-66.5 -15q-38 0 -51 17.5t-13 45.5q0 23 4 47t6 47l32 264h-195l-36 -304q-8 -64 -18 -123t-31.5 -104t-59 -72t-99.5 -27 q-49 0 -103 16l21 76q25 -5 40 -6t30 -1q28 0 47 13t31.5 35.5t19.5 51.5t11 62q15 122 23.5 193.5t13 110.5t6.5 54.5t3 24.5h-83q2 14 3.5 27.5t3.5 27.5l84 19l8 59q0 4 2 12q9 55 27.5 89.5t46.5 53.5t66 26t86 7q33 -1 67.5 -6t66.5 -13l-19 -74q-35 7 -62 10t-55 3 q-38 0 -60 -7t-34.5 -20.5t-18 -32t-9.5 -41.5q-2 -13 -4.5 -28.5t-5.5 -42.5h131v0z" />
<glyph unicode="fl" horiz-adv-x="584" d="M526 734l22 -13q-8 -70 -17.5 -152.5t-19 -168t-19 -169t-17.5 -155.5q40 3 80 23l24 -47q-37 -35 -75 -49.5t-66 -14.5q-39 0 -53 18.5t-14 50.5q0 3 3.5 33t9 77.5t12.5 107.5t14.5 123.5t14.5 125.5t12 113q-43 8 -82 8q-36 0 -59 -7.5t-37 -26.5t-21.5 -51t-12.5 -81 h132q-2 -17 -4 -34.5t-4 -34.5h-133l-36 -304q-8 -64 -18 -123t-31.5 -104t-59 -72t-99.5 -27q-26 0 -51.5 5t-51.5 11l20 74q25 -5 40 -6t30 -1q27 0 45.5 10t31 30.5t20 51.5t13.5 73q3 20 7 54t9 74.5t10 83t9 78.5t7 61t4 31h-81q1 14 2.5 27.5t3.5 27.5l83 19l4 36 t5 37q15 92 72.5 133t143.5 41q45 0 100 -11z" />
<glyph unicode="ffi" horiz-adv-x="873" d="M814 487l-50 -411q40 3 80 23l23 -44q-36 -35 -77 -50.5t-68 -15.5q-38 0 -50 20.5t-12 49.5v10l9 91q8 63 15.5 125.5t14.5 124.5h-187q-8 -75 -16 -146.5t-16 -142.5q-8 -65 -18.5 -125t-32.5 -105.5t-60 -72.5t-101 -27q-19 0 -42.5 3t-47.5 10l18 72q19 -4 32.5 -5 t25.5 -1q30 0 49.5 12.5t32 34t19.5 49.5t12 58q3 23 7.5 58.5t9.5 76t9.5 82.5t8 77l6 60t3.5 32h-189q-9 -75 -18 -153.5t-19 -153.5q-7 -64 -17.5 -122.5t-32 -103.5t-59 -72t-99.5 -27q-29 1 -53.5 4.5t-49.5 11.5l19 70q25 -5 40 -6.5t30 -1.5q25 0 43 8.5t31 27 t21.5 49t14.5 75.5q3 23 7.5 59.5t9.5 78t10.5 84t9.5 78.5t7 61.5t4 32.5h-84q2 14 3.5 27.5t3.5 27.5l85 19l5 39q6 58 29 96.5t57.5 61t76 30.5t85.5 7q29 -1 57 -6.5t52 -12.5q58 46 159 46q35 0 71 -5t71 -14q-5 -18 -9.5 -37t-9.5 -37q-28 5 -54.5 9t-51.5 4 q-27 0 -50.5 -4.5t-41.5 -16.5t-30.5 -33t-16.5 -54l-8 -78h119q11 0 30.5 0.5t42.5 2t46 4.5t41 7zM365 638q-24 0 -46 -4t-39.5 -17t-29.5 -38t-16 -67l-4 -33h189q3 24 5.5 48.5t6.5 49.5q4 28 14 52q-21 4 -45 6.5t-35 2.5z" />
<glyph unicode="ffl" horiz-adv-x="876" d="M644 747q14 0 39.5 -1.5t53.5 -6.5l84 15l22 -13q-9 -72 -18.5 -157t-20 -173.5t-20.5 -174.5t-19 -160q39 3 81 23l22 -44q-28 -26 -56.5 -41t-51.5 -20q-12 -3 -22.5 -4t-19.5 -1q-35 2 -46 21.5t-11 50.5q0 5 1.5 18t3.5 33q4 33 9 78t11.5 95.5t13 103.5t12.5 102.5 t11 93t8 74.5q-21 4 -38.5 5.5t-37.5 1.5q-51 0 -85 -23.5t-42 -85.5q-1 -10 -2 -17.5t-2 -15.5t-2 -18.5t-2 -26.5h133q-2 -17 -4 -34.5t-4 -34.5h-134q-6 -44 -11.5 -91t-10.5 -94t-10.5 -90.5t-9.5 -79.5q-7 -54 -15.5 -102.5t-29 -85t-57 -57.5t-99.5 -21q-18 0 -41 3 t-47 11q5 17 9.5 34t8.5 34q19 -3 32 -4t25 -1q25 0 42.5 5.5t29.5 19t20 35.5t14 56q3 17 7.5 52t9.5 78.5t10.5 90.5t10 89t7.5 73.5t5 44.5h-189l-37 -307q-9 -75 -19.5 -135t-31.5 -102t-58 -65t-99 -23q-29 1 -53.5 4.5t-49.5 11.5l18 67q25 -5 40 -6t30 -1q24 0 42 7 t31 25.5t22 50t16 79.5q2 14 6 46.5t9 74t10.5 87t10.5 84.5t8 67t4 35h-84q2 14 3.5 27.5t3.5 27.5l85 19q2 24 3.5 29.5t1.5 7.5q11 94 67.5 146t165.5 52q32 0 62.5 -6t61.5 -14q29 25 67.5 36.5t85.5 11.5zM420 479q3 24 5.5 48.5t6.5 49.5q2 14 5 27.5t8 24.5 q-21 4 -43 7t-42 3q-23 0 -44 -5.5t-37.5 -20t-28.5 -39t-16 -62.5l-4 -33h190z" />
<glyph unicode="ft" horiz-adv-x="678" d="M404 648q-18 5 -35.5 6.5t-31.5 1.5q-20 0 -37.5 -6t-31 -21.5t-23.5 -43t-14 -69.5l-4 -37h191q4 12 10.5 28.5t13.5 34t13.5 33t10.5 26.5q6 1 15.5 2t19.5 2t19.5 2t14.5 2l-16 -130h142l-7 -68h-142q-8 -62 -16 -130t-16 -130q-1 -5 -1 -9.5v-9.5q0 -27 11 -42 t44 -15q14 0 40 2.5t54 10.5l13 -68q-15 -6 -34.5 -11t-38.5 -8.5t-36.5 -5t-29.5 -1.5q-65 0 -97 27t-32 78q0 5 0.5 10.5t0.5 10.5q9 70 18 146.5l17 144.5h-192l-35 -313q-9 -73 -19.5 -131t-31.5 -98.5t-58.5 -62.5t-100.5 -22q-17 0 -44.5 3t-56.5 12l18 69 q24 -5 39 -6t30 -1q25 0 43 7.5t31 26t22.5 50t16.5 79.5q2 16 6 49.5t9 74t10 84t9.5 81t7.5 64.5t4 34h-83l7 54l83 20l5 34q6 45 19 84.5t35.5 69t57.5 46.5t86 17q20 0 44 -3t50 -11z" />
<glyph unicode=" "  horiz-adv-x="273" />
<glyph unicode="&#x09;" horiz-adv-x="273" />
<glyph unicode="&#xa0;" horiz-adv-x="273" />
<glyph unicode="!" horiz-adv-x="242" d="M107 108q26 0 40 -16.5t14 -43.5q0 -26 -21 -42t-47 -16q-23 0 -37.5 13.5t-14.5 34.5q0 30 18.5 50t47.5 20zM82 178l49 521h99l-76 -521h-72z" />
<glyph unicode="&#x22;" horiz-adv-x="302" d="M231 467l12 220h88l-41 -220h-59zM116 467l12 220h88l-43 -220h-57z" />
<glyph unicode="#" horiz-adv-x="539" d="M442 404l-53 -153h76l-14 -55h-81l-65 -196h-60l64 196h-128l-66 -196h-60l65 196h-72l14 55h77l53 153h-79l13 54h84l60 174h60l-59 -174h129l60 174h60l-60 -174h70l-14 -54h-74zM201 251h128l51 153h-128z" />
<glyph unicode="$" horiz-adv-x="558" d="M256 -75q26 202 50.5 403.5t49.5 405.5h38l-8 -65q27 -3 60.5 -12t59.5 -26q-5 -33 -9 -67l-8 -68h-64l11 81q-13 7 -28 11t-31 6l-27 -221q28 -11 54.5 -24.5t47.5 -32t33.5 -44.5t12.5 -63q0 -45 -14.5 -80.5t-40.5 -60.5t-61 -40t-77 -21q-3 -19 -5.5 -40.5 t-5.5 -41.5h-38zM323 734l-99 -809h-39q3 20 5.5 40.5t5.5 38.5q-38 5 -76.5 16t-70.5 32q5 34 9 68t9 68h63l-9 -82q21 -11 42 -15.5t42 -7.5l29 236q-28 10 -52 23.5t-41 31.5t-27 42.5t-10 57.5q0 43 14 76.5t38 57t55 38t66 20.5l8 68h38zM314 87q43 8 70 35.5t27 78.5 q0 34 -19.5 53t-53.5 33zM267 588q-32 -8 -55 -32.5t-24 -70.5v-1q1 -33 16 -49t41 -27z" />
<glyph unicode="%" horiz-adv-x="830" d="M248 671q42 0 70 -13t44 -35t22.5 -50.5t6.5 -59.5q0 -41 -8.5 -85.5t-30 -81.5t-58 -60.5t-91.5 -23.5q-42 0 -70 12t-44.5 33t-23.5 49t-7 60t7.5 76t28 83.5t57.5 67.5t97 28zM246 609q-38 0 -59.5 -24.5t-32.5 -57.5t-14 -66.5t-3 -50.5q0 -39 15.5 -63t57.5 -24 q30 0 49.5 18t31 45t16.5 59.5t5 62.5q0 19 -2.5 37t-10 32t-20.5 23t-33 9zM307 -21h-66l388 725h64zM709 405q42 0 70 -13.5t44 -35t22.5 -50t6.5 -58.5q0 -42 -9 -87t-30.5 -81.5t-57.5 -60t-91 -23.5q-42 0 -70 12t-45 33t-24 49t-7 59q0 33 7.5 77t28.5 83.5t58 67.5 t97 28zM707 343q-38 0 -59.5 -24.5t-32.5 -57.5t-14 -66.5t-3 -51.5q0 -38 15.5 -61.5t57.5 -23.5q30 0 49.5 17.5t31 44.5t16.5 59.5t5 62.5q0 19 -2.5 37t-10 32t-20.5 23t-33 9z" />
<glyph unicode="&#x26;" horiz-adv-x="874" d="M440 306q43 9 81 9q29 0 62 -4t68 -12q7 23 9 45.5t2 44.5q0 50 -13.5 93t-42 74t-72.5 48.5t-104 17.5q-72 0 -128 -26.5t-96.5 -69.5t-66 -98t-36.5 -113q-18 2 -35.5 4t-34.5 4q9 63 37.5 128.5t78 118.5t121 87t167.5 34q84 0 142.5 -25t95 -66.5t53.5 -94.5t17 -109 q0 -26 -3.5 -53t-9.5 -53q28 0 48.5 3t35.5 9.5t26.5 17t22.5 25.5q8 -10 17.5 -19.5l19.5 -19.5q-26 -41 -65.5 -61t-104.5 -20q-5 0 -10.5 0.5t-11.5 0.5q-21 -50 -55 -93.5t-78.5 -76.5t-97.5 -52t-113 -19q-58 0 -98.5 16t-66 44t-37 64t-11.5 77q0 75 20.5 132t52.5 95 t71 57t76 19q26 0 46.5 -8.5t34.5 -21.5t21.5 -30t7.5 -33q0 -19 -7.5 -42t-35.5 -46v-2zM367 229q-11 6 -16 22.5t-11 30.5q60 43 60 80q0 20 -12 31t-29 11q-18 0 -39 -11t-38.5 -35.5t-29.5 -64t-12 -95.5q0 -72 37 -108.5t106 -36.5q35 0 71 13.5t69 37.5t60.5 58 t44.5 75q-66 17 -123 17q-66 0 -138 -25z" />
<glyph unicode="'" horiz-adv-x="206" d="M106 467l12 220h89l-43 -220h-58z" />
<glyph unicode="(" horiz-adv-x="296" d="M151 161q0 -60 7 -107.5t16.5 -84.5t20 -63.5t18.5 -43.5l-49 -32q-16 22 -33.5 56.5t-32.5 80t-25 101t-10 120.5q0 100 22 183.5t54 149.5t68.5 114t65.5 78l39 -31q-16 -21 -43 -66t-53.5 -111.5t-45.5 -153t-19 -190.5z" />
<glyph unicode=")" horiz-adv-x="297" d="M157 387q0 58 -7 105.5t-17.5 84.5t-21.5 63.5t-18 42.5l47 30q17 -24 35.5 -58.5t33.5 -79t25 -98.5t10 -115q0 -103 -23.5 -189t-56.5 -153.5t-69.5 -115t-62.5 -74.5l-40 33q15 21 43 65t55 110t47 153.5t20 195.5z" />
<glyph unicode="*" horiz-adv-x="391" d="M273 530q15 -16 36 -39.5t36 -39.5q-13 -15 -36.5 -31.5t-41.5 -23.5l-35 107l-61 -106q-16 6 -36 22t-30 32l93 81l-111 15q4 20 16 47t23 42l93 -58q-1 12 -2 27t-2 30.5t-2 30.5t-2 27q8 2 20.5 3t25.5 1t25 -1t20 -3q-4 -12 -8.5 -27t-9.5 -30.5t-10 -30.5l-9 -27 l110 53q9 -16 13.5 -42.5t2.5 -49.5z" />
<glyph unicode="+" horiz-adv-x="558" d="M327 266l-21 -169h-69l20 169h-159l9 69h159l20 163h69l-20 -163h157l-8 -69h-157z" />
<glyph unicode="," horiz-adv-x="226" d="M97 117q27 0 42 -19t15 -47q0 -24 -11 -49t-29 -48t-41 -41.5t-47 -30.5l-21 34q23 19 37.5 37.5t21.5 46.5q-17 4 -26 16.5t-9 30.5q0 27 18.5 48.5t49.5 21.5z" />
<glyph unicode="-" horiz-adv-x="366" d="M56 225l10 82h258l-11 -82h-257z" />
<glyph unicode="." horiz-adv-x="224" d="M97 116q24 0 39 -16.5t15 -40.5q0 -15 -6 -27.5t-15.5 -21.5t-21.5 -14.5t-25 -5.5q-23 0 -38.5 16t-15.5 39q0 30 20.5 50.5t47.5 20.5z" />
<glyph unicode="/" horiz-adv-x="339" d="M52 -30h-70l340 733h70z" />
<glyph unicode="0" horiz-adv-x="558" d="M327 675q66 0 108.5 -24t66.5 -63t33 -89t9 -101q0 -68 -14 -139.5t-46.5 -130.5t-86.5 -97t-134 -38q-63 0 -105 20t-67.5 54t-36.5 79.5t-12 95.5q0 36 4.5 82.5t16 94.5t31.5 94t51.5 82t76 58t105.5 22zM323 594q-42 0 -72 -21t-49.5 -54t-31 -74t-17.5 -81 t-7.5 -74.5t-1.5 -54.5q1 -35 7.5 -65t21 -52t38.5 -34t60 -12q49 0 82 31.5t52.5 80t27.5 107t8 112.5q0 34 -4.5 68t-17.5 61.5t-36 44.5t-60 17z" />
<glyph unicode="1" horiz-adv-x="558" d="M78 73h139l62 495l-154 -22l-4 60l179 59h92l-73 -592h134l-9 -73h-374z" />
<glyph unicode="2" horiz-adv-x="558" d="M165 73h228l10 86h79l-19 -159h-448l7 67q33 28 73.5 61t81.5 69.5t80.5 74.5t69.5 76.5t48.5 76t18.5 71.5q0 47 -30 70.5t-82 23.5q-24 0 -67 -9.5t-103 -43.5l-31 65q66 44 123 59t99 15q87 0 141.5 -40.5t54.5 -122.5q0 -41 -16 -82t-43 -80.5t-62 -77t-72 -72 t-74 -65.5t-68 -57z" />
<glyph unicode="3" horiz-adv-x="558" d="M354 373q60 -11 97.5 -53.5t37.5 -102.5q0 -46 -19 -87t-54.5 -72t-86 -49.5t-113.5 -18.5q-54 0 -109.5 10t-94.5 32q3 6 7 15t8.5 19.5t8.5 19.5t7 15q30 -10 53.5 -16t43 -9.5t36 -4.5t32.5 -1q35 0 67 9.5t56.5 27.5t39 44t14.5 59q0 55 -39 84.5t-99 29.5 q-11 0 -24.5 -1t-30.5 -3l-12 66q105 18 156 56t51 79q0 31 -23.5 54.5t-79.5 23.5q-34 0 -74 -9.5t-94 -33.5q-2 5 -5.5 14t-7 19t-7 19t-6.5 14q57 30 111.5 44t104.5 14q49 0 84 -11t57 -30t32 -44t10 -52q0 -22 -7.5 -45.5t-23.5 -45.5t-42 -41.5t-62 -32.5v-5z" />
<glyph unicode="4" horiz-adv-x="558" d="M491 665q-6 -44 -12.5 -95.5t-13 -105.5t-13 -106t-11.5 -96h95q-2 -13 -5 -37t-4 -37h-95q-3 -27 -7 -58t-8 -58h67l-8 -72h-229q1 6 2 15.5t2.5 20t2.5 20.5t1 16h63l15 116h-305l8 68q37 44 81.5 97t90.5 107.5t90 107.5t81 97h112zM374 556l-50 -63 q-48 -55 -97.5 -115.5t-96.5 -115.5h213l36 294h-5z" />
<glyph unicode="5" horiz-adv-x="558" d="M267 346q-26 0 -55 -7t-58 -19l-51 34l49 311h366l-18 -149h-79l9 74h-202l-27 -185q13 4 38.5 11t63.5 7q41 0 77 -10.5t62.5 -33t42 -57t15.5 -82.5q0 -63 -23 -110t-61 -77.5t-86.5 -46t-99.5 -15.5q-50 0 -104 9t-98 34l31 74q56 -21 92 -26.5t66 -5.5q38 0 71 9 t57 28.5t38 49.5t14 71q0 28 -10.5 49.5t-28 35t-41 20.5t-50.5 7z" />
<glyph unicode="6" horiz-adv-x="558" d="M174 373q15 9 34.5 17t41.5 15t44.5 11t43.5 4q36 0 67.5 -10t55 -31.5t37 -55t13.5 -79.5q0 -59 -19.5 -105.5t-53.5 -78.5t-80 -49.5t-100 -17.5q-58 0 -97 17.5t-62.5 49t-33.5 75t-10 94.5q0 93 20 174.5t59 141.5t98 95t137 35q51 0 92.5 -10t58.5 -19l-26 -72 q-34 14 -69 18t-57 4q-50 0 -85.5 -24t-59 -58.5t-36 -72.5t-16.5 -65zM307 343q-32 0 -57 -7t-44 -15t-30 -15.5t-14 -8.5l-4 -36t-2 -37q0 -27 4 -53t16.5 -47t34.5 -34t58 -13q34 0 61 12t45 33.5t27.5 51t9.5 65.5q0 46 -23 75t-82 29z" />
<glyph unicode="7" horiz-adv-x="558" d="M111 491q6 44 11 87t11 87h409l-6 -66l-338 -599h-101q83 149 168 295t169 295h-230q-3 -26 -6.5 -50t-5.5 -49h-81z" />
<glyph unicode="8" horiz-adv-x="558" d="M330 597q-36 0 -59 -12t-36.5 -28.5t-18.5 -34t-5 -28.5q0 -20 10 -35t26.5 -27t39 -23t48.5 -24q54 36 75 67.5t21 58.5q0 15 -5 30.5t-16.5 28t-31 20t-48.5 7.5zM259 71q37 0 64.5 10t45.5 27t26.5 38.5t8.5 44.5q0 24 -9 43t-27.5 35t-48 31t-70.5 31 q-30 -19 -50.5 -40t-33 -42.5t-17.5 -42.5t-5 -39q0 -40 28.5 -68t87.5 -28zM342 677q36 0 70 -9.5t60 -29t41.5 -49.5t15.5 -70q0 -42 -27 -85.5t-88 -84.5q41 -23 66.5 -61t25.5 -94q0 -37 -16 -73.5t-48 -65t-79.5 -46t-110.5 -17.5q-53 0 -93 13t-67 35.5t-40.5 53 t-13.5 66.5q0 26 8 55t25 57t43.5 53.5t64.5 43.5q-35 23 -52.5 51t-17.5 66q0 40 17.5 75t48.5 61t74 40.5t93 14.5z" />
<glyph unicode="9" horiz-adv-x="558" d="M407 295q-15 -9 -34.5 -17t-41.5 -15t-44.5 -11t-43.5 -4q-36 0 -67.5 10t-55 31.5t-37 55t-13.5 79.5q0 58 19.5 105t53.5 79t80 49.5t100 17.5q58 0 97 -17.5t62.5 -49t33.5 -75t10 -94.5q0 -93 -20 -174.5t-59 -141.5t-98 -95t-137 -35q-51 0 -90.5 10t-56.5 19 q2 6 5 15.5t6 20t6 20.5t5 16q34 -14 69 -18t57 -4q50 0 85.5 24t58.5 58.5t35.5 72.5t17.5 65zM274 325q31 0 56.5 7t44.5 15t30 15.5t14 8.5l4 36t2 37q0 27 -4 53t-16.5 47t-34.5 34t-58 13q-35 0 -61.5 -12t-44.5 -33.5t-27.5 -51t-9.5 -65.5q0 -47 23 -75.5t82 -28.5z " />
<glyph unicode=":" horiz-adv-x="221" d="M101 117q24 0 38.5 -16t14.5 -39q0 -29 -19.5 -50t-47.5 -21q-25 0 -39.5 16.5t-14.5 40.5q0 29 20.5 49t47.5 20zM139 424q24 0 38.5 -15.5t14.5 -38.5q0 -30 -20.5 -51t-47.5 -21q-24 0 -39 17t-15 41q0 15 6 27.5t15.5 21.5t22 14t25.5 5z" />
<glyph unicode=";" horiz-adv-x="221" d="M99 117q27 0 42 -19t15 -47q0 -24 -11 -49t-29 -48t-41 -41.5t-47 -30.5l-22 34q23 19 38 37.5t22 46.5q-17 4 -26 16.5t-9 30.5q0 27 18.5 48.5t49.5 21.5zM139 424q24 0 38.5 -15.5t14.5 -38.5q0 -30 -20.5 -51t-47.5 -21q-24 0 -39 17t-15 41q0 15 6 27.5t15.5 21.5 t22 14t25.5 5z" />
<glyph unicode="&#x3c;" horiz-adv-x="558" d="M466 61l-381 207l7 60l431 207l-10 -84l-332 -154q7 -4 29.5 -16t53 -28t64.5 -34.5t64.5 -34.5t53 -28.5t29.5 -15.5z" />
<glyph unicode="=" horiz-adv-x="558" d="M95 343l9 68h399l-8 -68h-400zM77 191l8 67h400l-9 -67h-399z" />
<glyph unicode="&#x3e;" horiz-adv-x="558" d="M70 144l334 155q-7 4 -30 16t-53.5 28t-65 34t-65 34t-53 27.5t-29.5 15.5l10 81l381 -207l-8 -60l-431 -207z" />
<glyph unicode="?" horiz-adv-x="451" d="M290 706q84 0 129 -36t45 -93q0 -56 -27 -95t-70 -72q-38 -29 -65.5 -51t-45.5 -42.5t-26.5 -42t-8.5 -48.5q0 -9 0.5 -19t0.5 -22q-20 -2 -43 -5.5t-43 -6.5q-2 17 -3 31.5t-1 27.5q0 34 9.5 62t28 53.5t46 50t63.5 51.5q32 25 55 52t23 60q0 24 -20 43t-71 19 q-22 0 -48.5 -3.5t-52.5 -11.5l-11 -87h-74l18 151q53 18 103.5 26t88.5 8zM189 107q24 0 38.5 -15t14.5 -38q0 -29 -20.5 -46.5t-46.5 -17.5q-23 0 -38 14t-15 36q0 26 19 46.5t48 20.5z" />
<glyph unicode="@" horiz-adv-x="906" d="M627 157q-58 0 -81 32.5t-23 85.5v4h-3q-9 -23 -19 -39t-21 -27q-26 -32 -54 -42t-48 -10q-48 0 -77.5 33.5t-29.5 101.5q0 53 12.5 100t37 82.5t61.5 56t86 20.5q21 0 44.5 -5t47.5 -14l19 22l51 -6q-8 -35 -15 -74t-12.5 -76t-9 -68t-3.5 -50q0 -30 11.5 -48.5 t42.5 -18.5q19 0 42.5 11t44 35t34.5 62t14 93q0 114 -68.5 176.5t-190.5 62.5q-78 0 -145.5 -27.5t-117.5 -75t-78.5 -112t-28.5 -138.5q0 -62 18.5 -112.5t53 -87.5t84.5 -57t113 -20q23 1 55 4t70 16l15 -48q-33 -16 -74 -22.5t-76 -6.5q-78 0 -138 24.5t-101.5 68.5 t-63 104.5t-21.5 131.5q0 89 34.5 165.5t93.5 132.5t139 88t170 32q74 0 134 -20.5t102 -58.5t65 -92t23 -121q0 -65 -19 -114.5t-50 -84t-70.5 -52t-79.5 -17.5zM403 221q13 0 28.5 8t31.5 27t32.5 51t31.5 79l17 95q-23 9 -41.5 12t-32.5 3q-35 0 -58 -19t-37 -47.5 t-19.5 -62t-5.5 -61.5q0 -43 14.5 -64t38.5 -21z" />
<glyph unicode="A" horiz-adv-x="676" d="M408 0l8 75h65l-21 114h-249l-49 -114h66l-8 -75h-226l7 75h57l275 611h132l123 -611h53l-9 -75h-224zM411 464l-22 134h-3l-53 -126l-88 -207h202z" />
<glyph unicode="B" horiz-adv-x="628" d="M427 685q46 0 79.5 -11.5t55.5 -32t32.5 -49t10.5 -62.5q0 -24 -5.5 -48t-18 -46.5t-34 -42t-53.5 -34.5v-1q28 -9 46.5 -25t29.5 -36t15 -42t4 -43q0 -53 -18.5 -92.5t-49.5 -66t-71 -40t-83 -13.5h-353q3 19 5 37.5t4 37.5h68l66 535h-65l9 75h326zM227 317l-29 -242 h140q71 0 105 39.5t34 99.5q0 21 -6.5 39.5t-20 32.5t-34 22.5t-48.5 8.5h-141zM264 610q-8 -56 -14 -111t-14 -110h126q63 0 98.5 36t35.5 91q0 42 -25 68t-82 26h-125z" />
<glyph unicode="C" horiz-adv-x="575" d="M412 698q54 0 96.5 -8t74.5 -20l-21 -174h-79l12 104q-17 5 -40.5 8.5t-48.5 3.5q-59 0 -102.5 -25t-72 -69t-43 -106t-14.5 -135q0 -93 43 -141t145 -48q12 0 30.5 1t39.5 4t43 7t42 10l16 -85q-20 -8 -45 -14t-52 -10.5t-54.5 -7t-51.5 -2.5q-74 0 -125 19.5t-83 56 t-46.5 88t-14.5 114.5q0 42 5.5 90.5t20 96t39.5 91.5t64 77.5t93.5 53.5t128.5 20z" />
<glyph unicode="D" horiz-adv-x="671" d="M16 0l8 75h69l65 536h-64l9 75h282q74 0 123.5 -21.5t79.5 -59.5t42.5 -89t12.5 -110q0 -81 -18 -154.5t-58 -129.5t-104 -89t-155 -33h-292zM267 611l-66 -535h96q17 0 41.5 4t50 16t51 34t45.5 58t32.5 88t12.5 124q0 71 -17 113t-42 63.5t-54 28t-54 6.5h-96z" />
<glyph unicode="E" horiz-adv-x="589" d="M16 0l8 75h66l66 536h-63l8 74h500l-22 -173h-78l12 99h-250l-27 -218l236 5l-8 -79l-237 4l-30 -248h270l13 102h80l-22 -177h-522z" />
<glyph unicode="F" horiz-adv-x="569" d="M16 0l8 75h67l65 536h-63l8 74h495l-22 -173h-77l12 99h-246l-27 -218l234 5l-10 -79l-233 4l-30 -248h92l-9 -75h-264z" />
<glyph unicode="G" horiz-adv-x="638" d="M425 698q54 0 98.5 -8t75.5 -20l-20 -171h-79l13 102q-18 5 -43 8.5t-50 3.5q-62 0 -108.5 -25.5t-77 -70.5t-45.5 -106t-15 -133q0 -45 8.5 -81.5t28.5 -63t52.5 -40.5t80.5 -14q23 0 50.5 3.5t50.5 10.5l24 193h-88l8 70h235l-8 -70h-50l-32 -261q-105 -34 -208 -34 q-73 0 -123.5 20.5t-82 57.5t-45.5 88t-14 112q0 43 6.5 91.5t22 96t42 91.5t67 77t96 53t130.5 20z" />
<glyph unicode="H" horiz-adv-x="717" d="M419 0l9 76h60l30 245h-292l-30 -245h61l-9 -76h-232l8 76h64l66 535h-64l9 75h232l-9 -75h-61l-26 -215h292l26 215h-60l9 75h233l-9 -75h-64l-66 -535h64l-8 -76h-233z" />
<glyph unicode="I" horiz-adv-x="370" d="M43 0l9 75h63l65 536h-63l9 75h234l-9 -75h-64l-66 -536h64l-8 -75h-234z" />
<glyph unicode="J" horiz-adv-x="380" d="M107 686h293l-9 -75h-87l-58 -466q-8 -67 -27.5 -120.5t-53.5 -93.5t-85 -67t-122 -42l-18 73q57 21 93 45t57.5 53t31.5 64.5t16 78.5l59 475h-99z" />
<glyph unicode="K" horiz-adv-x="657" d="M385 413l191 -336h56l-9 -77h-227l9 77h60l-157 275l-91 -79l-24 -197h61l-9 -76h-229l8 76h64l66 535h-64l9 74h231l-9 -74h-63l-27 -231l268 230h-56l9 75h227l-9 -75h-57z" />
<glyph unicode="L" horiz-adv-x="567" d="M16 0l8 75h67l65 536h-63l8 74h243l-10 -74h-70l-67 -536h261l15 124h80l-24 -199h-513z" />
<glyph unicode="M" horiz-adv-x="882" d="M443 198l57 110l202 377h199l-10 -75h-61l-65 -535h60l-9 -75h-223l8 75h60l55 454h-2l-50 -94l-190 -348h-92l-138 442h-3l-54 -454h62l-9 -75h-226l9 75h65l65 535h-64l9 75h192l107 -344l40 -143h6z" />
<glyph unicode="N" horiz-adv-x="747" d="M536 165q14 112 27.5 222.5t27.5 222.5h-67l9 75h231q-3 -19 -5 -37.5t-4 -37.5h-64q-19 -154 -37 -305.5t-38 -304.5h-102q-57 112 -108 218.5t-110 218.5q-12 25 -24.5 49.5t-23.5 50.5q-1 0 -1.5 -0.5t-1.5 -0.5l-57 -461h68l-9 -75h-233q3 19 5 37.5t4 37.5h66 q16 135 32.5 267.5t33.5 267.5h-66l9 75h180q45 -91 93.5 -190.5t107.5 -220.5l52 -109h5z" />
<glyph unicode="O" horiz-adv-x="684" d="M398 697q72 0 121 -22t79 -61t43.5 -91t13.5 -112q0 -88 -21.5 -164.5t-63.5 -133.5t-103.5 -89.5t-141.5 -32.5q-70 0 -120 19.5t-82 55.5t-47 87t-15 114q0 81 19.5 158.5t60.5 138t104.5 97t152.5 36.5zM395 617q-64 0 -106.5 -32t-68.5 -82.5t-37 -113t-11 -124.5 q0 -95 37 -144t121 -49q57 0 97.5 28t66 75.5t37.5 109.5t12 130q0 40 -6.5 76.5t-23 64.5t-45 44.5t-73.5 16.5z" />
<glyph unicode="P" horiz-adv-x="580" d="M395 686q94 0 143.5 -45.5t49.5 -133.5q0 -40 -12.5 -81t-40.5 -74.5t-72.5 -55t-108.5 -21.5h-135l-25 -200h84l-8 -75h-254l8 75h64l65 536h-63l9 75h296zM260 611l-32 -263h111q25 0 49.5 8.5t44 26.5t31.5 47t12 70q0 56 -28.5 83.5t-76.5 27.5h-111z" />
<glyph unicode="Q" horiz-adv-x="685" d="M398 697q72 0 121 -22t79 -61t43.5 -91t13.5 -112q0 -66 -12 -125.5t-35 -109.5t-57.5 -88t-79.5 -61l142 -38l-47 -91l-267 96q-63 3 -108.5 23.5t-74 56t-42 84.5t-13.5 109q0 81 19.5 158.5t60.5 138t104.5 97t152.5 36.5zM395 617q-64 0 -106.5 -32t-68.5 -82.5 t-37 -113t-11 -124.5q0 -95 37 -144t121 -49q57 0 97.5 28t66 75.5t37.5 109.5t12 130q0 40 -6.5 76.5t-23 64.5t-45 44.5t-73.5 16.5z" />
<glyph unicode="R" horiz-adv-x="629" d="M259 611l-29 -244h117q24 0 48 6.5t43.5 22.5t31.5 42.5t12 66.5q0 57 -28 81.5t-76 24.5h-119zM220 294l-26 -219h75l-9 -75h-243l8 75h63l65 536h-61l9 75h304q94 0 141.5 -44t47.5 -127q0 -31 -7.5 -62.5t-24.5 -59.5t-44.5 -49.5t-67.5 -32.5l76 -236l74 -10l3 -60 q-11 -4 -26 -7t-29.5 -5t-28 -3t-21.5 -1q-35 0 -49 16t-24 46l-75 243h-130z" />
<glyph unicode="S" horiz-adv-x="558" d="M331 615q-29 0 -54 -7.5t-44 -22t-30 -36.5t-11 -52q0 -23 11.5 -39t30.5 -28t43 -21t48 -16q38 -11 74 -23.5t63.5 -32t44.5 -49.5t17 -77q0 -58 -22 -99.5t-60.5 -68.5t-91 -39.5t-112.5 -12.5q-53 0 -112 11.5t-106 40.5l17 144h79l-12 -85q31 -15 68 -21t67 -6 q78 0 123 31.5t45 89.5q0 27 -10 45t-29.5 30.5t-47.5 21.5t-63 18q-39 11 -71.5 25t-56 33.5t-36.5 47t-13 66.5q0 52 19.5 92t53.5 67t80 40.5t99 13.5q20 0 45.5 -2t51.5 -7t51.5 -13t46.5 -20l-18 -144h-79l12 86q-29 11 -57 15t-54 4z" />
<glyph unicode="T" horiz-adv-x="569" d="M128 0l9 75h79l66 536h-139l-12 -106h-78l22 181h537l-22 -181h-79l13 106h-137l-65 -536h80l-8 -75h-266z" />
<glyph unicode="U" horiz-adv-x="706" d="M621 249q-8 -59 -28 -106.5t-54.5 -81t-85 -51.5t-117.5 -18q-73 0 -123 18.5t-79 53t-38.5 83.5t-2.5 110l44 354h-57l9 75h228l-8 -75h-66l-45 -365q-21 -174 140 -174q75 0 121.5 43t57.5 131l45 365h-65l9 75h228l-9 -75h-59z" />
<glyph unicode="V" horiz-adv-x="652" d="M379 249l152 361h-60l9 76h223l-9 -76h-57l-269 -610h-129l-123 610h-55l9 76h224l-9 -76h-61l66 -362l25 -147h4z" />
<glyph unicode="W" horiz-adv-x="951" d="M506 432l-41 -102l-136 -330h-131l-81 610h-56l9 76h233l-9 -76h-65l42 -373l13 -129h2l52 129l134 333l-7 40h-63l9 76h234l-8 -76h-69l65 -379l19 -115h2l45 127l128 367h-65l9 76h232l-10 -76h-58q-13 -36 -31.5 -85t-39.5 -105t-43.5 -115t-43.5 -114.5t-39 -105 t-31 -85.5h-126l-57 333l-15 99h-3z" />
<glyph unicode="X" horiz-adv-x="647" d="M453 686h225l-9 -76h-55l-207 -258l141 -276h62l-8 -76h-248l9 76h64l-107 215l-162 -215h72l-9 -76h-228l8 76h47l220 288l-123 246h-66l9 76h243l-9 -76h-60l93 -190l148 190h-59z" />
<glyph unicode="Y" horiz-adv-x="603" d="M482 610h-62l9 76h221l-9 -76h-50l-225 -323l-25 -212h76l-8 -75h-268l8 75h78l25 209l-141 326h-50l9 76h217l-9 -76h-60l98 -246h4z" />
<glyph unicode="Z" horiz-adv-x="548" d="M139 76h290l16 119h79l-24 -195h-503l9 75l419 536h-251l-14 -107h-78l23 182h462l-8 -73z" />
<glyph unicode="[" horiz-adv-x="274" d="M10 -159l106 856h183l-4 -32l-4 -32h-93l-90 -727h93q-2 -17 -3.5 -32.5t-4.5 -32.5h-183z" />
<glyph unicode="\" horiz-adv-x="339" d="M72 703h70l160 -733h-71z" />
<glyph unicode="]" horiz-adv-x="274" d="M-10 -159l8 65h91q23 181 45 362.5t45 364.5h-93l7 64h184l-105 -856h-182z" />
<glyph unicode="^" horiz-adv-x="448" d="M371 371l-99 230l-156 -230h-76l213 310h54l135 -310h-71z" />
<glyph unicode="_" horiz-adv-x="485" d="M-42 -138l7 57h485l-7 -57h-485z" />
<glyph unicode="`" horiz-adv-x="508" d="M182 688l68 59l112 -171l-42 -35z" />
<glyph unicode="a" horiz-adv-x="571" d="M295 497q29 0 58 -7t60 -20l24 27l69 -4q-9 -57 -17.5 -114.5t-16 -111t-13.5 -102t-10 -88.5q20 2 41 9.5t41 18.5q4 -8 11 -23t12 -23q-15 -15 -33.5 -27.5t-37.5 -22.5t-37 -15.5t-33 -5.5q-34 0 -47.5 18t-15.5 47q0 20 2.5 40.5t6.5 43.5h-5q-22 -44 -45 -72 t-46.5 -45t-47 -23.5t-46.5 -6.5q-58 0 -93.5 42t-35.5 128q0 69 16 130t48 107t80 73t111 27zM211 66q18 0 37.5 10t40.5 34.5t41.5 65t40.5 100.5l20 123q-29 11 -53 14.5t-41 3.5q-45 0 -74.5 -24.5t-47 -60.5t-24.5 -78t-7 -78q0 -56 18.5 -83t48.5 -27z" />
<glyph unicode="b" horiz-adv-x="535" d="M188 358q21 41 44.5 68.5t46.5 43.5t46 22.5t44 6.5q58 0 94 -42t36 -129q0 -68 -16.5 -129t-49.5 -107t-82.5 -73t-115.5 -27q-36 0 -85.5 10t-102.5 35l-6 12q10 76 20 149t19 145.5t17 145.5t16 150l-97 15l4 50q42 11 79.5 16t66.5 5q33 0 44 -13t11 -36 q0 -6 -2 -26.5t-5 -50t-7 -64t-8 -68t-8.5 -62.5t-7.5 -47h5zM326 420q-18 0 -38 -10.5t-40.5 -34.5t-41.5 -64t-40 -100l-17 -121q28 -11 50 -14.5t39 -3.5q45 0 75 24t48 60t25.5 78t7.5 78q0 56 -19 82t-49 26z" />
<glyph unicode="c" horiz-adv-x="462" d="M300 499q14 0 29.5 -1.5t30.5 -4.5t27 -6t19 -6q18 -8 26.5 -18t8.5 -28q0 -7 -3 -21t-7.5 -30.5t-10.5 -33.5t-12 -31q-14 1 -27.5 1.5t-27.5 2.5q2 22 2.5 44.5t1.5 45.5q-11 4 -27 6t-33 2q-39 0 -68 -19.5t-47.5 -51.5t-28 -74.5t-9.5 -87.5q0 -54 23 -84t80 -30 q33 0 62 6.5t70 18.5q5 -17 12 -33t12 -33q-35 -17 -84 -28.5t-97 -11.5q-50 0 -84.5 12.5t-56 36t-31.5 56t-10 72.5q0 60 12.5 119t42.5 105.5t80 75.5t125 29z" />
<glyph unicode="d" horiz-adv-x="574" d="M301 496q23 0 47.5 -5.5t50.5 -13.5q5 42 9.5 79t9.5 82l-99 15l3 51q43 11 80 16t66 5q35 0 46 -16t11 -41q0 -8 -7 -61.5t-17.5 -136.5t-23.5 -185.5t-26 -207.5q42 6 83 28l24 -44q-14 -15 -32 -28t-37.5 -23t-39.5 -16t-39 -6q-32 0 -44.5 16.5t-13.5 43.5 q-1 23 1.5 44t7.5 45h-5q-22 -44 -45.5 -72.5t-47.5 -45t-47.5 -23t-46.5 -6.5q-58 0 -93.5 42t-35.5 128q0 71 16.5 132.5t49.5 106.5t81.5 71t113.5 26zM211 66q18 0 38 10t41 34.5t42.5 65t41.5 100.5l17 123q-29 11 -52.5 14.5t-40.5 3.5q-45 0 -75 -24.5t-48 -60.5 t-25 -78t-7 -78q0 -56 18.5 -83t49.5 -27z" />
<glyph unicode="e" horiz-adv-x="481" d="M308 501q69 0 106 -35t37 -92q0 -85 -80.5 -127.5t-227.5 -50.5q-1 -6 -1 -12v-11q0 -20 4 -39t15 -34t30.5 -24.5t50.5 -9.5q37 0 74.5 9.5t73.5 24.5l21 -60q-18 -11 -41 -19.5t-48 -15t-51.5 -10t-51.5 -3.5q-55 0 -89.5 15.5t-54.5 41.5t-27.5 61.5t-7.5 74.5 q0 51 12.5 106.5t43 102t82.5 77t130 30.5zM293 424q-64 0 -101 -46t-46 -126q103 5 156 31t53 80q0 27 -14.5 44t-47.5 17z" />
<glyph unicode="f" horiz-adv-x="362" d="M322 731q23 0 49.5 -3.5t55.5 -11.5l-17 -73q-21 5 -40 7t-34 2q-20 0 -37.5 -6t-31 -21.5t-23 -43t-13.5 -69.5l-4 -33h134q0 -6 -1 -15t-2.5 -19t-2.5 -19t-2 -15h-136q-10 -81 -18.5 -159.5t-16.5 -159.5q-8 -61 -19 -116.5t-33 -98t-59.5 -67.5t-97.5 -25 q-23 0 -48.5 3.5t-53.5 11.5l18 68q24 -5 39 -6t30 -1q53 0 77 39.5t36 123.5q9 69 17 134t14 117.5t10 88.5t5 47h-83l7 54l84 20l7 52q7 43 20 79t35.5 61.5t55.5 39.5t79 14z" />
<glyph unicode="g" horiz-adv-x="534" d="M303 496q42 -1 90.5 -10.5t98.5 -32.5l5 -12l-58 -446q-5 -35 -16.5 -73.5t-38.5 -70t-73.5 -52t-121.5 -20.5q-47 0 -90.5 12.5t-69.5 25.5q3 6 7 16.5t8 21.5t8 21.5t7 16.5q32 -14 67.5 -22t66.5 -8q44 0 71.5 13t43.5 36.5t24 56t13 71.5q0 1 2 15.5t4 31.5t4 31.5 l2 14.5q0 1 -4 1q-21 -41 -44.5 -68t-46.5 -43t-46.5 -22.5t-44.5 -6.5q-58 0 -94 41.5t-36 128.5q0 68 16.5 128.5t49 105.5t81.5 71.5t115 26.5zM213 71q18 0 38 10.5t41 34.5t41.5 64.5t39.5 100.5l17 118q-29 11 -51.5 14.5t-39.5 3.5q-45 0 -75 -23.5t-48 -59t-25 -77 t-7 -77.5q0 -56 19 -82.5t50 -26.5z" />
<glyph unicode="h" horiz-adv-x="596" d="M404 500q57 0 79.5 -29t22.5 -79q0 -11 -2 -33t-6 -59.5t-10 -92t-15 -130.5q40 3 79 24l22 -45q-36 -35 -74.5 -52t-66.5 -17q-38 0 -51.5 16.5t-13.5 46.5q0 7 0.5 13.5t1.5 14.5q11 90 17 143.5t9 82t3.5 40t0.5 17.5q0 25 -10 41t-33 16q-17 0 -38.5 -11t-43 -35 t-43 -63t-38.5 -95l-30 -214h-103q5 43 12 97t14 112.5t14.5 119t14 117t12 106t9.5 86.5l-96 15l5 50q42 11 79 16t66 5q32 0 44.5 -10.5t12.5 -33.5q0 -7 -2 -28t-5 -51t-7 -65t-8.5 -69t-8 -63.5t-6.5 -48.5l4 -1q22 42 48 70t52 45t49 24t40 7z" />
<glyph unicode="i" horiz-adv-x="318" d="M184 500q32 0 43.5 -10t11.5 -31q0 -3 -3 -30.5t-8 -67t-11 -86t-11 -88t-9 -72t-5 -38.5q41 3 80 24l23 -45q-35 -35 -74 -52t-68 -17q-38 0 -52.5 18t-14.5 46q0 6 0.5 12.5t1.5 14.5l43 335l-85 15l3 51q42 11 76.5 16t58.5 5zM199 691q24 0 41 -17t17 -43 q0 -29 -19 -50t-50 -21q-23 0 -40 16.5t-17 40.5q0 32 19.5 53t48.5 21z" />
<glyph unicode="j" horiz-adv-x="291" d="M179 500q32 0 45 -10t13 -31q0 -2 -2.5 -25.5t-6 -59t-8.5 -78t-9.5 -82.5t-8 -73t-5.5 -49q-7 -62 -21.5 -114t-41.5 -92.5t-68.5 -68t-102.5 -40.5l-17 64q44 19 70.5 44t42 56t22 67t11.5 77l35 328l-86 15l5 51q84 21 133 21zM195 691q24 0 41 -17t17 -43 q0 -29 -19 -50t-50 -21q-23 0 -40 16.5t-17 40.5q0 32 19.5 53t48.5 21z" />
<glyph unicode="k" horiz-adv-x="499" d="M414 500q30 0 48 -18t26 -45l-35 -36q-30 16 -56 16q-21 0 -40 -8t-36 -21.5t-32 -31t-30 -35.5q16 -34 36.5 -73.5t41 -75.5t37 -64t25.5 -37q24 7 41 17.5t31 20.5l29 -37q-40 -51 -72 -68t-52 -17q-24 0 -43 14t-39 44t-43 78.5t-54 117.5q-10 -14 -16.5 -23.5 t-12 -18.5t-10 -19t-10.5 -23q-6 -39 -11 -76.5t-10 -80.5h-102q23 162 44.5 321.5t39.5 318.5l-87 11l3 50q39 11 76.5 18.5t66.5 7.5t41.5 -13.5t10.5 -36.5q-12 -97 -26 -190.5t-27 -190.5h3q23 37 52 73.5t61 65.5t65.5 47t65.5 18z" />
<glyph unicode="l" horiz-adv-x="300" d="M190 725q30 0 43 -9.5t13 -31.5q0 -12 -4 -52.5t-11 -96t-15 -121.5t-16.5 -129.5t-15.5 -118.5t-11 -89q41 3 80 24l23 -45q-35 -35 -73.5 -52t-67.5 -17q-37 0 -52 16t-15 47q0 7 0.5 13.5t1.5 14.5l68 561l-96 15l3 50q43 11 81.5 16t63.5 5z" />
<glyph unicode="m" horiz-adv-x="862" d="M497 344q21 43 46 72.5t49.5 48.5t46.5 27.5t39 8.5q53 0 76.5 -29.5t23.5 -78.5q0 -11 -2 -33t-6 -59t-10 -91.5t-15 -130.5q21 1 39 6.5t38 16.5l22 -44q-35 -35 -73 -52.5t-67 -17.5q-37 0 -50.5 16t-13.5 46q0 5 0.5 13t1.5 16q10 83 16 135t9 82.5t4 45.5t1 23 q0 23 -9 38.5t-32 15.5q-36 0 -75.5 -49.5t-73.5 -158.5l-26 -211h-102l15 121q9 75 14 119.5t7.5 69.5t2.5 36v18q0 22 -9.5 37.5t-32.5 15.5q-35 0 -74 -48t-73 -158l-28 -211h-103q9 64 15.5 117.5t12.5 102t11 95t11 98.5l-91 15l3 50q43 12 77 17t63 5q32 0 43 -11 t11 -31q0 -17 -4 -46t-9 -66h5q23 45 47.5 75t48 47.5t45 24.5t38.5 7q52 0 74 -28.5t22 -74.5q0 -9 -0.5 -21.5t-1.5 -30.5z" />
<glyph unicode="n" horiz-adv-x="601" d="M417 499q57 0 78.5 -33t21.5 -86q0 -21 -8.5 -95.5t-23.5 -207.5q20 1 38 6.5t38 16.5q5 -7 12 -22t11 -23q-19 -18 -39 -30.5t-39.5 -20.5t-37 -12t-30.5 -4q-35 0 -46.5 15.5t-11.5 44.5q0 5 1 18t2 21q12 118 20 188.5t8 87.5q0 23 -10 38.5t-33 15.5 q-18 0 -39.5 -11.5t-43.5 -36.5t-43 -64.5t-38 -94.5l-29 -210h-102q8 64 15 117t13 101.5t11.5 95t11.5 98.5l-92 15l3 51q43 11 77 16t63 5q32 0 42.5 -10.5t10.5 -34.5q0 -19 -3.5 -47t-8.5 -61h4q23 45 50.5 74.5t54.5 47t51 24.5t41 7z" />
<glyph unicode="o" horiz-adv-x="521" d="M296 499q53 0 90 -16t60.5 -44t34 -65t10.5 -79q0 -51 -13 -104.5t-43 -98t-79.5 -72.5t-122.5 -28q-54 0 -90.5 15t-59.5 41.5t-33 62.5t-10 78q0 55 14.5 110.5t45 100t79 72t117.5 27.5zM291 420q-45 0 -73.5 -25t-45 -61.5t-22.5 -78.5t-6 -75q0 -23 4.5 -43t16 -36 t30.5 -25t48 -9q43 0 70.5 23.5t43.5 58.5t22 75t6 72q0 25 -4.5 47.5t-15 39.5t-28.5 27t-46 10z" />
<glyph unicode="p" horiz-adv-x="561" d="M47 -135q15 133 32.5 275t32.5 272l-93 14l4 51q36 11 73 16.5t69 5.5q35 0 44 -13.5t7 -38.5l-13 -103h5q22 43 45.5 72.5t48 46.5t48.5 24.5t46 7.5q57 0 92 -42.5t35 -130.5q0 -70 -16.5 -130.5t-48.5 -105.5t-80.5 -70.5t-112.5 -25.5q-23 0 -47.5 5t-50.5 12 l-19 -142h86l-8 -73h-255l9 73h67zM353 413q-18 0 -38.5 -10t-41.5 -34t-42.5 -64.5t-40.5 -100.5l-16 -118q28 -11 52 -14.5t41 -3.5q45 0 74.5 23.5t47 59t24.5 76t7 75.5q0 57 -18.5 84t-48.5 27z" />
<glyph unicode="q" horiz-adv-x="541" d="M245 -136h79q11 104 19 169.5t14 96.5l-4 1q-22 -41 -45 -68.5t-46.5 -43.5t-47 -22.5t-44.5 -6.5q-58 0 -94 41.5t-36 128.5q0 68 16.5 129.5t49.5 107.5t82.5 73t115.5 27q36 0 86.5 -9.5t102.5 -34.5l5 -11q-2 -13 -7.5 -57.5t-12.5 -105t-15.5 -128.5t-15.5 -128 t-12 -104t-6 -55h70l-8 -74h-254zM212 67q18 0 38 10.5t41 34.5t42 64.5t40 100.5l17 122q-29 11 -51.5 14.5t-39.5 3.5q-45 0 -75 -24t-47.5 -60t-25 -78t-7.5 -78q0 -57 19 -83.5t49 -26.5z" />
<glyph unicode="r" horiz-adv-x="441" d="M177 499q32 0 43 -10.5t11 -35.5q0 -17 -3.5 -43.5t-8.5 -59.5h3q18 49 37.5 78.5t39 45.5t38 21t35.5 5q35 0 53 -20t20 -47l-45 -52q-17 9 -31.5 11.5t-26.5 2.5q-40 0 -78 -52t-64 -158q-8 -57 -13 -100t-11 -85h-101q14 115 27.5 219t24.5 193l-84 15q0 8 1 25.5 t2 25.5q43 11 72.5 16t58.5 5z" />
<glyph unicode="s" horiz-adv-x="455" d="M192 -8q-82 0 -123.5 19.5t-41.5 53.5q0 20 10.5 50t26.5 56l51 -2l-4 -96q15 -7 36 -10.5t42 -3.5q22 0 43.5 4.5t38 14t26.5 24t10 35.5q0 17 -9 29t-23.5 22t-33 18t-38.5 16q-30 13 -56 26.5t-45.5 29t-30.5 35t-11 43.5q0 36 16 63.5t44 45.5t64.5 27t77.5 9 q27 0 53.5 -4.5t48.5 -13t35.5 -21t13.5 -29.5q0 -9 -3.5 -23t-9 -29t-12 -30t-13.5 -27l-49 3l4 91q-26 14 -67 14q-18 0 -35.5 -3.5t-31 -11.5t-21.5 -21.5t-8 -32.5q0 -14 10 -26t25.5 -21.5t34.5 -18t36 -15.5q26 -11 50.5 -23.5t44 -29t32 -38t12.5 -49.5 q0 -37 -17 -65t-46.5 -47t-70 -28.5t-86.5 -9.5z" />
<glyph unicode="t" horiz-adv-x="381" d="M183 156q-1 -6 -1.5 -11.5t-0.5 -10.5q0 -27 13.5 -39t43.5 -12q14 0 38 3t51 11l17 -77q-16 -7 -36 -12t-40 -8t-37 -4.5t-27 -1.5q-30 0 -54 5t-40.5 17.5t-25 33.5t-8.5 53q0 18 3 41l34 276h-70l6 56l78 19l44 113l68 9l-15 -128h142l-8 -69h-141z" />
<glyph unicode="u" horiz-adv-x="598" d="M179 499q32 0 42.5 -12t10.5 -38v-9.5t-1 -9.5q-2 -18 -5 -44t-6.5 -56.5t-7.5 -62t-7 -59.5t-5 -49.5t-2 -31.5q0 -26 10 -40t33 -14q18 0 39 11t43 36t43 64.5t38 96.5l29 208h98q-14 -100 -27.5 -207.5t-24.5 -205.5q22 2 40.5 8t37.5 15l23 -44q-36 -35 -75.5 -50.5 t-65.5 -15.5q-18 0 -29.5 5.5t-17.5 14.5t-8 20.5t-2 24.5q0 18 2.5 41.5t4.5 40.5h-5q-23 -43 -48.5 -71t-51.5 -44.5t-50 -23t-42 -6.5q-53 0 -77 26t-24 74v17.5t2 23.5q4 41 11.5 107.5t20.5 174.5l-92 14l4 49q42 12 77.5 17t64.5 5z" />
<glyph unicode="v" horiz-adv-x="528" d="M126 501q20 0 31.5 -7.5t18 -20t9.5 -29.5t5 -36l36 -316h5q29 33 57.5 73t51.5 82.5t38.5 86t18.5 82.5l-70 -16l-17 45q32 25 67 40.5t62 15.5q61 0 61 -62q-1 -56 -26.5 -120t-64.5 -125.5t-84.5 -113.5t-85.5 -84h-97l-52 414l-69 -18l-19 44q37 33 69 49t55 16z" />
<glyph unicode="w" horiz-adv-x="755" d="M369 198q-1 0 -1 0.5t-1 0.5q-15 -32 -34.5 -63t-39.5 -58t-38.5 -48.5t-31.5 -33.5h-95q-10 103 -18 207.5t-20 206.5l-69 -19l-16 43q39 33 74.5 49.5t62.5 16.5q23 0 36 -19.5t16 -67.5l21 -311h5q19 23 39.5 52t38.5 60.5t33.5 62.5t26.5 57q-2 22 -3 38t-3 39 l-66 -19l-18 44q37 31 71 48t60 17q15 -1 24.5 -6.5t15 -16.5t7.5 -29t4 -45q5 -78 9.5 -156t9.5 -156h5q28 33 54.5 73t47.5 82.5t34.5 85.5t16.5 83l-68 -17l-14 45q35 26 67.5 41.5t61.5 16.5q10 0 19.5 -2.5t17 -10t12 -21t4.5 -33.5q0 -53 -23.5 -116.5t-60 -125 t-79.5 -114t-82 -83.5h-97q-4 49 -7.5 100t-8.5 102z" />
<glyph unicode="x" horiz-adv-x="509" d="M85 -16q-2 0 -4.5 -0.5t-5.5 -0.5l-28.5 28.5l-29.5 29.5q0 3 0.5 6t0.5 6q45 48 89 95.5t90 95.5q-18 41 -35.5 81t-34.5 81l-78 -22l-21 43q37 34 70 51t56 17q17 0 34 -6t31 -34q16 -34 28 -67t29 -69l64 88l64 88h11l61 -57v-11l-168 -176q20 -43 37.5 -84.5 t36.5 -85.5q23 2 42.5 10.5t39.5 19.5q8 -11 16 -20.5t17 -20.5q-20 -25 -39.5 -41t-38.5 -25.5t-35 -13t-28 -3.5q-32 0 -47 18.5t-30 53.5l-50 117q-35 -49 -71 -97t-73 -95z" />
<glyph unicode="y" horiz-adv-x="532" d="M442 500q30 0 43.5 -19.5t13.5 -63.5q0 -58 -20 -129t-56 -143t-85.5 -139.5t-108 -120t-124.5 -84.5t-135 -32q-23 0 -43 6t-33.5 18t-19 30.5t1.5 43.5l43 26q15 -13 27.5 -20t24.5 -10.5t23 -4t23 -0.5q38 0 86.5 23t97.5 77q-10 53 -22.5 116t-25.5 125t-25 116.5 t-22 90.5l-74 -18l-16 44q38 34 72 49t54 15q23 0 35.5 -7.5t18.5 -36.5t16.5 -81.5t21.5 -112t21.5 -118.5t17.5 -102q30 37 54 86t41 100.5t26 100.5t9 87l-71 -17l-16 48q34 29 67 43t59 14z" />
<glyph unicode="z" horiz-adv-x="481" d="M12 58l314 361h-181l-38 -99l-51 5l11 119q1 15 7 24t14 13.5t16.5 6t15.5 1.5h327l11 -59l-315 -361h218l43 104l46 -3l-15 -127q-2 -14 -8 -22.5t-14 -13t-16.5 -6t-15.5 -1.5h-360z" />
<glyph unicode="{" horiz-adv-x="274" d="M152 -168q-33 0 -52 10t-28 27.5t-9.5 41t2.5 50.5l24 201q5 38 -5.5 66.5t-47.5 33.5l7 57q38 7 56 35t23 71l16 133q3 23 8.5 48.5t18 46.5t33.5 35t55 14h70l-8 -64h-24q-29 0 -43 -19t-17 -47l-19 -154q-3 -22 -7.5 -42.5t-13 -37t-22.5 -28.5t-35 -17v-1 q20 -11 31 -24.5t15 -31t3 -40.5t-5 -51l-22 -184q-4 -26 3 -45.5t38 -19.5h27l-8 -64h-64z" />
<glyph unicode="|" horiz-adv-x="264" d="M98 -142v845h71v-845h-71z" />
<glyph unicode="}" horiz-adv-x="282" d="M146 702q33 0 52 -10t28 -27.5t9.5 -41t-2.5 -50.5l-22 -162q-5 -38 5.5 -66.5t47.5 -33.5l-7 -57q-38 -7 -56 -35t-23 -71l-18 -172q-3 -23 -8.5 -48.5t-18 -46.5t-33.5 -35t-55 -14h-70l8 64h24q29 0 43 19t17 47l21 193q3 22 7.5 42.5t13 37t22.5 28.5t35 17v1 q-20 10 -31 24t-15 31.5t-3 40t5 51.5l20 145q4 26 -3 45.5t-38 19.5h-27l8 64h64z" />
<glyph unicode="~" horiz-adv-x="558" d="M389 240q-30 0 -57.5 7.5t-52.5 16t-47.5 16t-42.5 7.5l-75 -47l-35 32q24 46 57 70t71 24q24 0 51 -7t54 -16t52.5 -16t46.5 -7l71 48l35 -31q-23 -45 -55.5 -71t-72.5 -26z" />
<glyph unicode="&#xa1;" horiz-adv-x="242" d="M20 -213l38 292l38 228h71l-17 -228l-31 -292h-99zM141 378q-25 0 -39.5 15.5t-13.5 38.5q2 27 21.5 46.5t46.5 19.5q25 0 40 -16t14 -39q-1 -26 -20.5 -45.5t-48.5 -19.5z" />
<glyph unicode="&#xa2;" horiz-adv-x="558" d="M251 -6q-44 2 -74.5 15.5t-49.5 36.5t-28 54.5t-9 69.5q0 57 11 112.5t37 100.5t69 76t107 38l12 96h43l-12 -94q27 -1 56.5 -7t42.5 -11q18 -8 26.5 -18t8.5 -28q0 -7 -3 -21t-7.5 -30.5t-10.5 -33.5t-12 -31q-14 1 -27.5 1.5t-27.5 2.5q2 22 2.5 44.5t1.5 45.5 q-11 4 -27 6t-32 2l-43 -347q30 1 58 7.5t66 17.5q5 -17 12 -33t12 -33q-31 -15 -73 -26t-85 -13l-9 -76h-44zM194 188q0 -45 15.5 -73t52.5 -37l41 336q-28 -10 -48.5 -32.5t-34 -52.5t-20 -66.5t-6.5 -74.5z" />
<glyph unicode="&#xa3;" horiz-adv-x="558" d="M156 368l16 101q7 46 22 84t40.5 65.5t62 42.5t86.5 15q49 0 94 -10t74 -26l-14 -139h-75l9 80q-18 5 -38 9.5t-47 4.5q-30 0 -50.5 -9.5t-34 -26.5t-21.5 -41.5t-14 -54.5l-15 -95h168l-7 -61h-171l-12 -72q-8 -47 -23 -92.5t-44 -68.5h332l-7 -74h-451l5 73 q23 11 39 29.5t26.5 41t17 47t10.5 48.5l12 68h-64l7 61h67z" />
<glyph unicode="&#xa4;" horiz-adv-x="547" d="M164 306q0 -26 9.5 -49t26.5 -40t39 -27t48 -10q25 0 47.5 10t39.5 27t27 40t10 49t-10 49t-26.5 40t-39.5 27t-48 10q-26 0 -48 -10t-39 -27t-26.5 -40t-9.5 -49zM70 482l44 47l64 -64q23 17 51.5 26.5t58.5 9.5q61 0 110 -37l63 65l46 -48l-64 -62q19 -26 27 -54t8 -58 q0 -31 -9 -59.5t-25 -53.5l63 -61l-46 -48l-64 63q-26 -20 -53 -28t-56 -8t-56 8t-53 28l-64 -64l-46 48l63 62q-21 28 -28.5 56.5t-7.5 54.5q0 29 8 58.5t28 54.5z" />
<glyph unicode="&#xa5;" horiz-adv-x="558" d="M76 294l6 44h120l-92 253h-48l10 74h204l-10 -74h-57l82 -245h3l142 245h-58l8 74h207l-9 -74h-47l-156 -253h123l-6 -44h-422zM492 247l-5 -47h-163l-15 -127h77l-9 -73h-254l9 73h75l16 127h-158l6 47h421z" />
<glyph unicode="&#xa6;" horiz-adv-x="264" d="M123 346v357h70v-357h-70zM193 242v-384h-70v384h70z" />
<glyph unicode="&#xa7;" horiz-adv-x="480" d="M301 613q-40 0 -69 -20.5t-29 -57.5q0 -18 9.5 -33t25.5 -27t35 -22t39 -20q22 -11 44 -23.5t39.5 -29t28.5 -37.5t11 -49q0 -29 -17.5 -66.5t-63.5 -75.5q33 -21 46 -54t13 -63q0 -39 -17 -69.5t-46 -51t-67 -31.5t-80 -11q-44 0 -90 8t-77 20l17 129h70l-10 -77 q20 -6 42.5 -9t44.5 -3q62 0 90.5 27t28.5 69q0 33 -29 54t-82 45q-26 12 -51 25t-44.5 30.5t-31.5 39.5t-12 52q0 41 20.5 78t60.5 64q-23 20 -35.5 43.5t-12.5 54.5q0 40 16.5 70t45 50.5t65.5 30.5t79 10q51 0 88 -8.5t62 -18.5q-5 -33 -9 -66l-8 -66h-72l10 77 q-18 5 -36 8.5t-42 3.5zM211 389q-26 -20 -40.5 -44.5t-14.5 -49.5q0 -21 13 -36t33 -27t45 -22.5t49 -23.5q26 24 39.5 49t13.5 44q0 22 -13 37.5t-33 27.5t-44.5 22.5t-47.5 22.5z" />
<glyph unicode="&#xa8;" horiz-adv-x="512" d="M406 670q22 0 35.5 -12.5t13.5 -34.5q0 -26 -17.5 -44.5t-44.5 -18.5q-20 0 -33 13.5t-13 34.5q0 26 18.5 44t40.5 18zM218 670q23 0 36.5 -12.5t13.5 -34.5q0 -26 -18 -44.5t-44 -18.5q-21 0 -34.5 13.5t-13.5 34.5q0 26 19 44t41 18z" />
<glyph unicode="&#xa9;" horiz-adv-x="827" d="M784 332q0 -77 -29 -144t-78.5 -117.5t-116 -79.5t-141.5 -29q-84 0 -151.5 29t-115 79.5t-73 117.5t-25.5 144q0 76 28 143t77 117.5t116 79.5t144 29q79 0 146 -29t116 -79.5t76 -117.5t27 -143zM734 332q0 66 -23.5 124t-65.5 101.5t-99.5 68.5t-126.5 25 q-66 0 -124 -25t-100.5 -68.5t-67 -101.5t-24.5 -124t22 -124.5t63 -102t99.5 -69t131.5 -25.5q66 0 123 25.5t100 69t67.5 102t24.5 124.5zM293 325q0 -42 7 -76t24.5 -58t46 -37t71.5 -13q19 0 52.5 3.5t59.5 11.5l12 -55q-13 -5 -30 -9.5t-35.5 -7.5t-38 -4.5t-37.5 -1.5 q-60 0 -100 18.5t-65 51t-35.5 77.5t-10.5 99q0 40 9.5 85t34.5 82.5t67.5 62t108.5 24.5q40 0 70 -6t52 -14v-122h-54v72q-13 3 -31 5.5t-35 2.5q-74 0 -108.5 -51.5t-34.5 -139.5z" />
<glyph unicode="&#xaa;" horiz-adv-x="394" d="M259 361q-27 -49 -61 -70t-63 -21q-42 0 -68 30t-26 90q0 46 11.5 85t34.5 67.5t57 44.5t80 16q18 0 35.5 -4.5t35.5 -12.5l15 18l55 -3q-7 -51 -12.5 -89.5t-9.5 -69.5t-7.5 -57t-6.5 -51q13 2 26.5 7t26.5 12q5 -8 10 -17t10 -17q-23 -21 -51.5 -36t-48.5 -15 q-26 0 -35 17.5t-9 37.5q0 17 3 38h-2zM163 328q10 0 24 7t28.5 23.5t28 44t23.5 68.5l11 61q-18 7 -34 10t-27 3q-28 0 -47 -14t-30 -35.5t-16 -47t-5 -47.5q0 -38 12 -55.5t32 -17.5z" />
<glyph unicode="&#xab;" horiz-adv-x="445" d="M54 211l170 168l39 -32l-119 -155l80 -154l-46 -32l-129 167zM213 211l170 168l38 -32l-117 -155l79 -154l-45 -32l-130 167z" />
<glyph unicode="&#xac;" horiz-adv-x="558" d="M464 97h-69l20 169h-317l9 69h385z" />
<glyph unicode="&#xad;" horiz-adv-x="366" d="M56 225l10 82h258l-11 -82h-257z" />
<glyph unicode="&#xae;" horiz-adv-x="580" d="M558 469q0 -51 -18 -96t-50.5 -78t-77 -52.5t-98.5 -19.5q-53 0 -97.5 19.5t-77 52.5t-50.5 78t-18 96t18 96t50 78.5t77 52.5t98 19q54 0 98.5 -19t77 -52.5t50.5 -78.5t18 -96zM519 469q0 43 -15 80.5t-42 66t-65 45t-83 16.5t-82.5 -16.5t-64.5 -45t-42 -66t-15 -80.5 q0 -42 15 -80t42 -66t64.5 -44.5t82.5 -16.5q48 0 86 16.5t64.5 44.5t40.5 66t14 80zM278 450v-85h31v-37h-109v37h26v216h-26v38h132q45 0 68.5 -22t23.5 -62q0 -19 -12 -42t-39 -35l44 -93l31 -4v-32q-9 -2 -21.5 -3.5t-20.5 -1.5q-15 0 -22.5 6.5t-14.5 20.5l-47 99h-44z M371 535q0 26 -14 36.5t-32 10.5h-47v-95h45q19 0 33.5 9.5t14.5 38.5z" />
<glyph unicode="&#xaf;" horiz-adv-x="512" d="M147 658h328l-10 -75h-327z" />
<glyph unicode="&#xb0;" horiz-adv-x="355" d="M323 544q-1 -29 -12 -53t-29.5 -42t-43.5 -28t-53 -10q-30 0 -54.5 10t-41.5 27.5t-26 42t-7 53.5q1 29 12.5 53.5t30.5 42.5t44 28.5t53 10.5t51.5 -11t40.5 -29.5t26 -43t9 -51.5zM267 541q1 35 -22 58.5t-56 23.5t-55 -24t-23 -58q-1 -16 4.5 -30.5t15.5 -25 t23.5 -16.5t30.5 -6q33 0 57 22t25 56z" />
<glyph unicode="&#xb1;" horiz-adv-x="558" d="M327 272l-20 -158h-69l19 158h-158l8 69h159l19 154h69l-19 -154h157l-8 -69h-157zM459 64l-8 -64h-385l8 64h385z" />
<glyph unicode="&#xb2;" horiz-adv-x="364" d="M205 763q60 0 96 -25t36 -76q0 -36 -20 -70t-50.5 -65.5t-66 -59t-66.5 -49.5h127q2 11 2.5 23.5t1.5 23.5h66l-10 -110h-301l6 55q27 21 66 50.5t75 62.5t61.5 65.5t25.5 59.5q0 26 -16.5 37t-46.5 11q-15 0 -42 -6t-67 -28l-29 52q47 30 86 39.5t66 9.5z" />
<glyph unicode="&#xb3;" horiz-adv-x="364" d="M205 761q65 0 94.5 -25t29.5 -59q0 -27 -21 -54.5t-54 -41.5q38 -11 56.5 -36t18.5 -55q0 -29 -12.5 -54t-36.5 -44t-57.5 -30t-75.5 -11q-39 0 -75.5 7.5t-59.5 20.5l23 56q43 -15 66 -18t42 -3q20 0 39 5t33.5 14t23 22t8.5 30q0 30 -21.5 43.5t-55.5 13.5 q-10 0 -21 -1t-25 -3l-8 52q66 11 99 31.5t33 43.5q0 14 -13 23.5t-44 9.5q-17 0 -45 -5t-67 -21l-21 52q42 21 79 29t68 8z" />
<glyph unicode="&#xb4;" horiz-adv-x="512" d="M290 539l-36 35l144 172l57 -60z" />
<glyph unicode="&#xb6;" horiz-adv-x="546" d="M243 312q-38 0 -68.5 12.5t-52.5 35t-33.5 54t-11.5 69.5q0 46 16.5 85t44.5 67.5t66 45t82 16.5h291l-9 -73h-65l-101 -823h-72l102 823h-63l-101 -823h-154l9 70h81l53 441h-14z" />
<glyph unicode="&#xb7;" horiz-adv-x="221" d="M127 345q23 0 38.5 -15.5t15.5 -38.5q0 -30 -21.5 -51t-48.5 -21q-23 0 -38 17t-15 41q0 29 21 48.5t48 19.5z" />
<glyph unicode="&#xb8;" horiz-adv-x="456" d="M200 -59q44 -4 69 -22t25 -51q0 -21 -10.5 -41.5t-34 -37t-60 -27.5t-88.5 -11q0 11 0.5 22t0.5 22q55 5 89 20.5t34 41.5q0 11 -9 17.5t-22.5 10t-29 4.5t-29.5 1l-11 22q55 66 113 128q8 -6 15.5 -11t15.5 -10z" />
<glyph unicode="&#xb9;" horiz-adv-x="364" d="M59 418h88l33 264q-20 -2 -48.5 -6.5t-47.5 -6.5l-4 52l119 36h72l-41 -339h83l-5 -62h-254z" />
<glyph unicode="&#xba;" horiz-adv-x="360" d="M212 606q37 0 63.5 -10.5t43 -29t24.5 -43t8 -52.5q0 -31 -8.5 -66t-29 -64.5t-54.5 -49t-85 -19.5q-37 0 -63 10t-42.5 28t-24 42t-7.5 52q0 35 9.5 71t30 65t54 47.5t81.5 18.5zM209 548q-29 0 -47.5 -15.5t-28.5 -38.5t-13.5 -49.5t-3.5 -47.5q1 -26 14 -46.5 t50 -20.5q28 0 46 14.5t28 36t13 46.5t3 45q-1 31 -13.5 53.5t-47.5 22.5z" />
<glyph unicode="&#xbb;" horiz-adv-x="445" d="M393 173l-171 -167l-37 32l116 154l-79 155l47 32l129 -168zM235 173l-171 -167l-39 32l118 154l-80 155l47 32l130 -168z" />
<glyph unicode="&#xbc;" horiz-adv-x="830" d="M778 402l-27 -232h60l-5 -58h-62l-6 -55h43l-5 -56h-163l7 56h42l6 55h-192l5 48q48 52 83.5 91.5t62 68.5t44 49t29.5 33h78zM104 328h88l33 264q-20 -2 -48.5 -6.5t-47.5 -6.5l-4 52l119 36h72l-41 -339h83l-5 -62h-254zM325 -21h-66l388 725h64zM693 317 q-30 -35 -65.5 -74.5t-67.5 -72.5h115l19 147h-1z" />
<glyph unicode="&#xbd;" horiz-adv-x="830" d="M696 408q60 0 96 -25.5t36 -78.5q0 -35 -20.5 -69t-50.5 -65t-65.5 -58t-65.5 -49h126q2 9 2.5 22t1.5 22h65l-10 -107h-300l5 54q30 23 69.5 53t74.5 62t59.5 64t25.5 59q0 25 -16.5 36.5t-46.5 11.5q-15 0 -42.5 -6t-67.5 -29l-28 54q46 29 85 39t67 10zM88 328h88 l33 264q-20 -2 -48.5 -6.5t-47.5 -6.5l-4 52l119 36h72l-41 -339h83l-5 -62h-254zM303 -21h-66l388 725h64z" />
<glyph unicode="&#xbe;" horiz-adv-x="830" d="M796 402l-27 -232h60l-5 -58h-62l-6 -55h43l-5 -56h-163l7 56h42l6 55h-192l5 48q48 52 83.5 91.5t62 68.5t44 49t29.5 33h78zM274 671q65 0 94.5 -25t29.5 -59q0 -27 -21 -54.5t-54 -41.5q38 -11 56.5 -36t18.5 -55q0 -29 -12.5 -54t-36.5 -44t-57.5 -30t-75.5 -11 q-39 0 -75.5 7.5t-59.5 20.5l23 56q43 -15 66 -18t42 -3q20 0 39 5t33.5 14t23 22t8.5 30q0 30 -21.5 43.5t-55.5 13.5q-10 0 -21 -1t-25 -3l-8 52q66 11 99 31.5t33 43.5q0 14 -13 23.5t-44 9.5q-17 0 -45 -5t-67 -21l-21 52q42 21 79 29t68 8zM328 -21h-66l388 725h64z M711 317q-30 -35 -65.5 -74.5t-67.5 -72.5h115l19 147h-1z" />
<glyph unicode="&#xbf;" horiz-adv-x="451" d="M185 -220q-85 0 -129.5 33t-44.5 92q0 56 28.5 96.5t69.5 72.5q39 28 66.5 51t45.5 44t26 42.5t8 47.5q0 8 -0.5 18t-0.5 22q21 3 41.5 6.5t40.5 5.5q2 -17 3 -31.5t1 -27.5q0 -35 -9 -62t-26.5 -51.5t-44.5 -48t-63 -50.5q-34 -25 -55.5 -47.5t-21.5 -55.5 q0 -39 21 -56.5t68 -17.5q23 0 49.5 3.5t53.5 11.5l9 87h75q-4 -38 -8.5 -75.5t-8.5 -75.5q-54 -18 -104.5 -26t-89.5 -8zM287 378q-23 0 -38 15t-15 38q0 29 21 47t46 18q23 0 38 -15t15 -36q0 -27 -19 -47t-48 -20z" />
<glyph unicode="&#xc0;" horiz-adv-x="676" d="M408 0l8 75h65l-21 114h-249l-49 -114h66l-8 -75h-226l7 75h57l275 611h132l123 -611h53l-9 -75h-224zM411 464l-22 134h-3l-53 -126l-88 -207h202zM249 825l53 76l157 -129l-31 -45z" />
<glyph unicode="&#xc1;" horiz-adv-x="676" d="M408 0l8 75h65l-21 114h-249l-49 -114h66l-8 -75h-226l7 75h57l275 611h132l123 -611h53l-9 -75h-224zM411 464l-22 134h-3l-53 -126l-88 -207h202zM379 726l-27 43l182 127l43 -71z" />
<glyph unicode="&#xc2;" horiz-adv-x="676" d="M408 0l8 75h65l-21 114h-249l-49 -114h66l-8 -75h-226l7 75h57l275 611h132l123 -611h53l-9 -75h-224zM411 464l-22 134h-3l-53 -126l-88 -207h202zM550 714l-142 100l-166 -100l-25 33l165 146h67l132 -144z" />
<glyph unicode="&#xc3;" horiz-adv-x="676" d="M408 0l8 75h65l-21 114h-249l-49 -114h66l-8 -75h-226l7 75h57l275 611h132l123 -611h53l-9 -75h-224zM411 464l-22 134h-3l-53 -126l-88 -207h202zM473 737q-23 0 -43.5 6t-39 13.5t-35 13.5t-30.5 6l-59 -39l-30 25q20 41 46 61.5t55 20.5q19 0 39 -6t39 -12.5 t37 -12.5t33 -6l60 39l27 -26q-17 -38 -42.5 -60.5t-56.5 -22.5z" />
<glyph unicode="&#xc4;" horiz-adv-x="676" d="M408 0l8 75h65l-21 114h-249l-49 -114h66l-8 -75h-226l7 75h57l275 611h132l123 -611h53l-9 -75h-224zM411 464l-22 134h-3l-53 -126l-88 -207h202zM554 789q-2 -25 -19 -41.5t-42 -16.5q-21 0 -33.5 14t-10.5 35q1 24 18 40.5t39 16.5t36 -13.5t12 -34.5zM370 789 q-2 -25 -19.5 -41.5t-40.5 -16.5q-22 0 -35 14.5t-12 35.5q1 23 19.5 39.5t38.5 16.5q23 0 36.5 -13.5t12.5 -34.5z" />
<glyph unicode="&#xc5;" horiz-adv-x="676" d="M408 0l8 75h65l-21 114h-249l-49 -114h66l-8 -75h-226l7 75h57l275 611h132l123 -611h53l-9 -75h-224zM411 464l-22 134h-3l-53 -126l-88 -207h202zM398 711q-23 0 -42.5 9t-33 24t-19.5 35t-3 43t13.5 43.5t27 35.5t38.5 24t47 9q23 0 41.5 -9t31.5 -24t18.5 -35.5 t2.5 -43.5q-2 -23 -13 -43.5t-27.5 -35.5t-37.5 -23.5t-44 -8.5zM419 882q-27 0 -45.5 -18t-21.5 -44q-3 -25 10.5 -43t41.5 -18q26 0 43.5 18t20.5 43q4 26 -9.5 44t-39.5 18z" />
<glyph unicode="&#xc6;" horiz-adv-x="956" d="M496 75l5 129h-242l-84 -129h67l-3 -75h-234l3 75h55l391 609h468l-9 -173h-77l6 97l-217 2l-9 -217l212 4l-3 -78l-212 2l-11 -246h238l5 102h80l-9 -177h-490l3 75h67zM304 280h201l15 326h-6z" />
<glyph unicode="&#xc7;" horiz-adv-x="575" d="M412 698q54 0 96.5 -8t74.5 -20l-21 -174h-79l12 104q-17 5 -40.5 8.5t-48.5 3.5q-59 0 -102.5 -25t-72 -69t-43 -106t-14.5 -135q0 -93 43 -141t145 -48q12 0 30.5 1t39.5 4t43 7t42 10l16 -85q-18 -7 -40.5 -13t-47 -10.5t-50 -7t-48.5 -3.5l-28 -32t-28 -33 q44 -4 69 -22t25 -51q0 -21 -10.5 -41.5t-34 -37t-60 -27.5t-88.5 -11q0 11 0.5 22t0.5 22q55 5 89 20.5t34 41.5q0 11 -9 17.5t-22.5 10t-29 4.5t-29.5 1l-11 22q20 25 41 49t42 47q-65 4 -110 25t-73 57t-41 85t-13 109q0 42 5.5 90.5t20 96t39.5 91.5t64 77.5t93.5 53.5 t128.5 20z" />
<glyph unicode="&#xc8;" horiz-adv-x="589" d="M16 0l8 75h66l66 536h-63l8 74h500l-22 -173h-78l12 99h-250l-27 -218l236 5l-8 -79l-237 4l-30 -248h270l13 102h80l-22 -177h-522zM243 825l53 76l157 -129l-31 -45z" />
<glyph unicode="&#xc9;" horiz-adv-x="589" d="M16 0l8 75h66l66 536h-63l8 74h500l-22 -173h-78l12 99h-250l-27 -218l236 5l-8 -79l-237 4l-30 -248h270l13 102h80l-22 -177h-522zM326 726l-27 43l182 127l43 -71z" />
<glyph unicode="&#xca;" horiz-adv-x="589" d="M16 0l8 75h66l66 536h-63l8 74h500l-22 -173h-78l12 99h-250l-27 -218l236 5l-8 -79l-237 4l-30 -248h270l13 102h80l-22 -177h-522zM527 714l-142 100l-166 -100l-25 33l165 146h67l132 -144z" />
<glyph unicode="&#xcb;" horiz-adv-x="589" d="M16 0l8 75h66l66 536h-63l8 74h500l-22 -173h-78l12 99h-250l-27 -218l236 5l-8 -79l-237 4l-30 -248h270l13 102h80l-22 -177h-522zM528 789q-2 -25 -19 -41.5t-42 -16.5q-21 0 -33.5 14t-10.5 35q1 24 18 40.5t39 16.5t36 -13.5t12 -34.5zM344 789q-2 -25 -19.5 -41.5 t-40.5 -16.5q-22 0 -35 14.5t-12 35.5q1 23 19.5 39.5t38.5 16.5q23 0 36.5 -13.5t12.5 -34.5z" />
<glyph unicode="&#xcc;" horiz-adv-x="370" d="M43 0l9 75h63l65 536h-63l9 75h234l-9 -75h-64l-66 -536h64l-8 -75h-234zM101 825l53 76l157 -129l-31 -45z" />
<glyph unicode="&#xcd;" horiz-adv-x="370" d="M43 0l9 75h63l65 536h-63l9 75h234l-9 -75h-64l-66 -536h64l-8 -75h-234zM209 726l-27 43l182 127l43 -71z" />
<glyph unicode="&#xce;" horiz-adv-x="370" d="M43 0l9 75h63l65 536h-63l9 75h234l-9 -75h-64l-66 -536h64l-8 -75h-234zM401 714l-142 100l-166 -100l-25 33l165 146h67l132 -144z" />
<glyph unicode="&#xcf;" horiz-adv-x="370" d="M43 0l9 75h63l65 536h-63l9 75h234l-9 -75h-64l-66 -536h64l-8 -75h-234zM397 789q-2 -25 -19 -41.5t-42 -16.5q-21 0 -33.5 14t-10.5 35q1 24 18 40.5t39 16.5t36 -13.5t12 -34.5zM213 789q-2 -25 -19.5 -41.5t-40.5 -16.5q-22 0 -35 14.5t-12 35.5q1 23 19.5 39.5 t38.5 16.5q23 0 36.5 -13.5t12.5 -34.5z" />
<glyph unicode="&#xd0;" horiz-adv-x="671" d="M16 0l8 75h69l30 246h-65l8 55h63l29 235h-64l9 75h282q74 0 123.5 -21.5t79.5 -59.5t42.5 -89t12.5 -110q0 -81 -18 -154.5t-58 -129.5t-104 -89t-155 -33h-292zM267 611l-29 -235h130l-7 -55h-130l-30 -245h96q17 0 41.5 4t50 16t51 34t45.5 58t32.5 88t12.5 124 q0 71 -17 113t-42 63.5t-54 28t-54 6.5h-96z" />
<glyph unicode="&#xd1;" horiz-adv-x="747" d="M536 165q14 112 27.5 222.5t27.5 222.5h-67l9 75h231q-3 -19 -5 -37.5t-4 -37.5h-64q-19 -154 -37 -305.5t-38 -304.5h-102q-57 112 -108 218.5t-110 218.5q-12 25 -24.5 49.5t-23.5 50.5q-1 0 -1.5 -0.5t-1.5 -0.5l-57 -461h68l-9 -75h-233q3 19 5 37.5t4 37.5h66 q16 135 32.5 267.5t33.5 267.5h-66l9 75h180q45 -91 93.5 -190.5t107.5 -220.5l52 -109h5zM503 766q-23 0 -43.5 6t-39 13.5t-35 13.5t-30.5 6l-59 -39l-30 25q20 41 46 61.5t55 20.5q19 0 39 -6t39 -12.5t37 -12.5t33 -6l60 39l27 -26q-17 -38 -42.5 -60.5t-56.5 -22.5z " />
<glyph unicode="&#xd2;" horiz-adv-x="684" d="M398 697q72 0 121 -22t79 -61t43.5 -91t13.5 -112q0 -88 -21.5 -164.5t-63.5 -133.5t-103.5 -89.5t-141.5 -32.5q-70 0 -120 19.5t-82 55.5t-47 87t-15 114q0 81 19.5 158.5t60.5 138t104.5 97t152.5 36.5zM395 617q-64 0 -106.5 -32t-68.5 -82.5t-37 -113t-11 -124.5 q0 -95 37 -144t121 -49q57 0 97.5 28t66 75.5t37.5 109.5t12 130q0 40 -6.5 76.5t-23 64.5t-45 44.5t-73.5 16.5zM256 825l53 76l157 -129l-31 -45z" />
<glyph unicode="&#xd3;" horiz-adv-x="684" d="M398 697q72 0 121 -22t79 -61t43.5 -91t13.5 -112q0 -88 -21.5 -164.5t-63.5 -133.5t-103.5 -89.5t-141.5 -32.5q-70 0 -120 19.5t-82 55.5t-47 87t-15 114q0 81 19.5 158.5t60.5 138t104.5 97t152.5 36.5zM395 617q-64 0 -106.5 -32t-68.5 -82.5t-37 -113t-11 -124.5 q0 -95 37 -144t121 -49q57 0 97.5 28t66 75.5t37.5 109.5t12 130q0 40 -6.5 76.5t-23 64.5t-45 44.5t-73.5 16.5zM388 726l-27 43l182 127l43 -71z" />
<glyph unicode="&#xd4;" horiz-adv-x="684" d="M398 697q72 0 121 -22t79 -61t43.5 -91t13.5 -112q0 -88 -21.5 -164.5t-63.5 -133.5t-103.5 -89.5t-141.5 -32.5q-70 0 -120 19.5t-82 55.5t-47 87t-15 114q0 81 19.5 158.5t60.5 138t104.5 97t152.5 36.5zM395 617q-64 0 -106.5 -32t-68.5 -82.5t-37 -113t-11 -124.5 q0 -95 37 -144t121 -49q57 0 97.5 28t66 75.5t37.5 109.5t12 130q0 40 -6.5 76.5t-23 64.5t-45 44.5t-73.5 16.5zM568 714l-142 100l-166 -100l-25 33l165 146h67l132 -144z" />
<glyph unicode="&#xd5;" horiz-adv-x="684" d="M398 697q72 0 121 -22t79 -61t43.5 -91t13.5 -112q0 -88 -21.5 -164.5t-63.5 -133.5t-103.5 -89.5t-141.5 -32.5q-70 0 -120 19.5t-82 55.5t-47 87t-15 114q0 81 19.5 158.5t60.5 138t104.5 97t152.5 36.5zM395 617q-64 0 -106.5 -32t-68.5 -82.5t-37 -113t-11 -124.5 q0 -95 37 -144t121 -49q57 0 97.5 28t66 75.5t37.5 109.5t12 130q0 40 -6.5 76.5t-23 64.5t-45 44.5t-73.5 16.5zM492 768q-23 0 -43.5 6t-39 13.5t-35 13.5t-30.5 6l-59 -39l-30 25q20 41 46 61.5t55 20.5q19 0 39 -6t39 -12.5t37 -12.5t33 -6l60 39l27 -26 q-17 -38 -42.5 -60.5t-56.5 -22.5z" />
<glyph unicode="&#xd6;" horiz-adv-x="684" d="M398 697q72 0 121 -22t79 -61t43.5 -91t13.5 -112q0 -88 -21.5 -164.5t-63.5 -133.5t-103.5 -89.5t-141.5 -32.5q-70 0 -120 19.5t-82 55.5t-47 87t-15 114q0 81 19.5 158.5t60.5 138t104.5 97t152.5 36.5zM395 617q-64 0 -106.5 -32t-68.5 -82.5t-37 -113t-11 -124.5 q0 -95 37 -144t121 -49q57 0 97.5 28t66 75.5t37.5 109.5t12 130q0 40 -6.5 76.5t-23 64.5t-45 44.5t-73.5 16.5zM565 789q-2 -25 -19 -41.5t-42 -16.5q-21 0 -33.5 14t-10.5 35q1 24 18 40.5t39 16.5t36 -13.5t12 -34.5zM381 789q-2 -25 -19.5 -41.5t-40.5 -16.5 q-22 0 -35 14.5t-12 35.5q1 23 19.5 39.5t38.5 16.5q23 0 36.5 -13.5t12.5 -34.5z" />
<glyph unicode="&#xd7;" horiz-adv-x="558" d="M287 243l-141 -130l-43 51l142 129l-108 128l54 49l107 -129l136 127l44 -51l-138 -126l108 -126l-52 -50z" />
<glyph unicode="&#xd8;" horiz-adv-x="684" d="M398 697q63 0 108.5 -17t75.5 -48l59 66h55l-88 -99q25 -38 36 -86t11 -102q0 -88 -21.5 -164.5t-63.5 -133.5t-103.5 -89.5t-141.5 -32.5q-68 0 -116.5 18t-80.5 51l-58 -65h-51q9 10 31.5 34.5t54.5 60.5q-23 35 -33.5 79t-10.5 98q0 81 19.5 158.5t60.5 138t104.5 97 t152.5 36.5zM543 415q0 26 -2.5 50.5t-9.5 47.5l-333 -375q37 -66 132 -66q57 0 97.5 28t66 75.5t37.5 109.5t12 130zM395 617q-64 0 -106.5 -32t-68.5 -82.5t-37 -113t-11 -124.5q0 -52 10 -88q39 44 82 92.5t86.5 98t85.5 97t78 89.5q-17 29 -45.5 46t-73.5 17z" />
<glyph unicode="&#xd9;" horiz-adv-x="706" d="M621 249q-8 -59 -28 -106.5t-54.5 -81t-85 -51.5t-117.5 -18q-73 0 -123 18.5t-79 53t-38.5 83.5t-2.5 110l44 354h-57l9 75h228l-8 -75h-66l-45 -365q-21 -174 140 -174q75 0 121.5 43t57.5 131l45 365h-65l9 75h228l-9 -75h-59zM261 825l53 76l157 -129l-31 -45z" />
<glyph unicode="&#xda;" horiz-adv-x="706" d="M621 249q-8 -59 -28 -106.5t-54.5 -81t-85 -51.5t-117.5 -18q-73 0 -123 18.5t-79 53t-38.5 83.5t-2.5 110l44 354h-57l9 75h228l-8 -75h-66l-45 -365q-21 -174 140 -174q75 0 121.5 43t57.5 131l45 365h-65l9 75h228l-9 -75h-59zM384 726l-27 43l182 127l43 -71z" />
<glyph unicode="&#xdb;" horiz-adv-x="706" d="M621 249q-8 -59 -28 -106.5t-54.5 -81t-85 -51.5t-117.5 -18q-73 0 -123 18.5t-79 53t-38.5 83.5t-2.5 110l44 354h-57l9 75h228l-8 -75h-66l-45 -365q-21 -174 140 -174q75 0 121.5 43t57.5 131l45 365h-65l9 75h228l-9 -75h-59zM576 715l-147 98l-173 -98l-26 32 l172 143h69l137 -141z" />
<glyph unicode="&#xdc;" horiz-adv-x="706" d="M621 249q-8 -59 -28 -106.5t-54.5 -81t-85 -51.5t-117.5 -18q-73 0 -123 18.5t-79 53t-38.5 83.5t-2.5 110l44 354h-57l9 75h228l-8 -75h-66l-45 -365q-21 -174 140 -174q75 0 121.5 43t57.5 131l45 365h-65l9 75h228l-9 -75h-59zM574 789q-2 -25 -19 -41.5t-42 -16.5 q-21 0 -33.5 14t-10.5 35q1 24 18 40.5t39 16.5t36 -13.5t12 -34.5zM390 789q-2 -25 -19.5 -41.5t-40.5 -16.5q-22 0 -35 14.5t-12 35.5q1 23 19.5 39.5t38.5 16.5q23 0 36.5 -13.5t12.5 -34.5z" />
<glyph unicode="&#xdd;" horiz-adv-x="603" d="M482 610h-62l9 76h221l-9 -76h-50l-225 -323l-25 -212h76l-8 -75h-268l8 75h78l25 209l-141 326h-50l9 76h217l-9 -76h-60l98 -246h4zM332 725l-27 43l182 127l43 -71z" />
<glyph unicode="&#xde;" horiz-adv-x="580" d="M251 545h128q95 0 145 -42t50 -127q0 -39 -13 -77.5t-40.5 -69.5t-71.5 -50.5t-107 -18.5h-136l-12 -89h76l-8 -71h-248l9 71h65l65 541h-66l9 74h248l-9 -74h-75zM243 478l-30 -251h113q25 0 49.5 7.5t44 25t31.5 45t12 67.5q0 55 -29.5 80.5t-77.5 25.5h-113z" />
<glyph unicode="&#xdf;" horiz-adv-x="601" d="M183 110q-8 -64 -18 -123t-32 -104t-59.5 -72t-99.5 -27q-20 0 -46.5 4t-55.5 12l19 70q23 -5 38.5 -7t29.5 -2q42 0 65.5 25.5t37.5 85.5t25 159.5t29 247.5h-69l7 63h67q2 9 3.5 25.5t3.5 33.5q4 33 14 71.5t34.5 71.5t68.5 55t118 22q39 0 68 -10.5t48 -27t28.5 -37 t9.5 -39.5q0 -35 -19 -65t-42.5 -55.5t-42.5 -47.5t-19 -43q0 -19 12 -36t30 -34t39.5 -35.5t39.5 -40t30 -47.5t12 -58q0 -31 -12 -59.5t-35 -50.5t-58.5 -35t-81.5 -13q-35 0 -73 6.5t-66 17.5l25 69q34 -11 56.5 -15.5t47.5 -4.5q36 0 63 18t27 56q0 24 -11 45t-28 40 t-36 37.5t-36 39t-28 43t-11 50.5q0 34 19 58.5t41.5 46t41.5 42.5t19 47q0 9 -3 19.5t-12 20t-24.5 15.5t-40.5 6q-93 0 -107 -109z" />
<glyph unicode="&#xe0;" horiz-adv-x="571" d="M295 497q29 0 58 -7t60 -20l24 27l69 -4q-9 -57 -17.5 -114.5t-16 -111t-13.5 -102t-10 -88.5q20 2 41 9.5t41 18.5q4 -8 11 -23t12 -23q-15 -15 -33.5 -27.5t-37.5 -22.5t-37 -15.5t-33 -5.5q-34 0 -47.5 18t-15.5 47q0 20 2.5 40.5t6.5 43.5h-5q-22 -44 -45 -72 t-46.5 -45t-47 -23.5t-46.5 -6.5q-58 0 -93.5 42t-35.5 128q0 69 16 130t48 107t80 73t111 27zM211 66q18 0 37.5 10t40.5 34.5t41.5 65t40.5 100.5l20 123q-29 11 -53 14.5t-41 3.5q-45 0 -74.5 -24.5t-47 -60.5t-24.5 -78t-7 -78q0 -56 18.5 -83t48.5 -27zM185 688l68 59 l112 -171l-42 -35z" />
<glyph unicode="&#xe1;" horiz-adv-x="571" d="M295 497q29 0 58 -7t60 -20l24 27l69 -4q-9 -57 -17.5 -114.5t-16 -111t-13.5 -102t-10 -88.5q20 2 41 9.5t41 18.5q4 -8 11 -23t12 -23q-15 -15 -33.5 -27.5t-37.5 -22.5t-37 -15.5t-33 -5.5q-34 0 -47.5 18t-15.5 47q0 20 2.5 40.5t6.5 43.5h-5q-22 -44 -45 -72 t-46.5 -45t-47 -23.5t-46.5 -6.5q-58 0 -93.5 42t-35.5 128q0 69 16 130t48 107t80 73t111 27zM211 66q18 0 37.5 10t40.5 34.5t41.5 65t40.5 100.5l20 123q-29 11 -53 14.5t-41 3.5q-45 0 -74.5 -24.5t-47 -60.5t-24.5 -78t-7 -78q0 -56 18.5 -83t48.5 -27zM306 539l-36 35 l144 172l57 -60z" />
<glyph unicode="&#xe2;" horiz-adv-x="571" d="M295 497q29 0 58 -7t60 -20l24 27l69 -4q-9 -57 -17.5 -114.5t-16 -111t-13.5 -102t-10 -88.5q20 2 41 9.5t41 18.5q4 -8 11 -23t12 -23q-15 -15 -33.5 -27.5t-37.5 -22.5t-37 -15.5t-33 -5.5q-34 0 -47.5 18t-15.5 47q0 20 2.5 40.5t6.5 43.5h-5q-22 -44 -45 -72 t-46.5 -45t-47 -23.5t-46.5 -6.5q-58 0 -93.5 42t-35.5 128q0 69 16 130t48 107t80 73t111 27zM211 66q18 0 37.5 10t40.5 34.5t41.5 65t40.5 100.5l20 123q-29 11 -53 14.5t-41 3.5q-45 0 -74.5 -24.5t-47 -60.5t-24.5 -78t-7 -78q0 -56 18.5 -83t48.5 -27zM477 533 l-142 101l-166 -100l-24 33l164 145h67l131 -144z" />
<glyph unicode="&#xe3;" horiz-adv-x="571" d="M295 497q29 0 58 -7t60 -20l24 27l69 -4q-9 -57 -17.5 -114.5t-16 -111t-13.5 -102t-10 -88.5q20 2 41 9.5t41 18.5q4 -8 11 -23t12 -23q-15 -15 -33.5 -27.5t-37.5 -22.5t-37 -15.5t-33 -5.5q-34 0 -47.5 18t-15.5 47q0 20 2.5 40.5t6.5 43.5h-5q-22 -44 -45 -72 t-46.5 -45t-47 -23.5t-46.5 -6.5q-58 0 -93.5 42t-35.5 128q0 69 16 130t48 107t80 73t111 27zM211 66q18 0 37.5 10t40.5 34.5t41.5 65t40.5 100.5l20 123q-29 11 -53 14.5t-41 3.5q-45 0 -74.5 -24.5t-47 -60.5t-24.5 -78t-7 -78q0 -56 18.5 -83t48.5 -27zM400 573 q-23 0 -43.5 6t-39 13.5t-35 13.5t-30.5 6l-59 -39l-30 25q20 41 46 61.5t55 20.5q19 0 39 -6t39 -12.5t37 -12.5t33 -6l60 39l27 -26q-17 -38 -42.5 -60.5t-56.5 -22.5z" />
<glyph unicode="&#xe4;" horiz-adv-x="571" d="M295 497q29 0 58 -7t60 -20l24 27l69 -4q-9 -57 -17.5 -114.5t-16 -111t-13.5 -102t-10 -88.5q20 2 41 9.5t41 18.5q4 -8 11 -23t12 -23q-15 -15 -33.5 -27.5t-37.5 -22.5t-37 -15.5t-33 -5.5q-34 0 -47.5 18t-15.5 47q0 20 2.5 40.5t6.5 43.5h-5q-22 -44 -45 -72 t-46.5 -45t-47 -23.5t-46.5 -6.5q-58 0 -93.5 42t-35.5 128q0 69 16 130t48 107t80 73t111 27zM211 66q18 0 37.5 10t40.5 34.5t41.5 65t40.5 100.5l20 123q-29 11 -53 14.5t-41 3.5q-45 0 -74.5 -24.5t-47 -60.5t-24.5 -78t-7 -78q0 -56 18.5 -83t48.5 -27zM239 670 q23 0 36.5 -12.5t13.5 -34.5q0 -26 -18 -44.5t-44 -18.5q-21 0 -34.5 13.5t-13.5 34.5q0 26 19 44t41 18zM427 670q22 0 35.5 -12.5t13.5 -34.5q0 -26 -17.5 -44.5t-44.5 -18.5q-20 0 -33 13.5t-13 34.5q0 26 18.5 44t40.5 18z" />
<glyph unicode="&#xe5;" horiz-adv-x="571" d="M295 497q29 0 58 -7t60 -20l24 27l69 -4q-9 -57 -17.5 -114.5t-16 -111t-13.5 -102t-10 -88.5q20 2 41 9.5t41 18.5q4 -8 11 -23t12 -23q-15 -15 -33.5 -27.5t-37.5 -22.5t-37 -15.5t-33 -5.5q-34 0 -47.5 18t-15.5 47q0 20 2.5 40.5t6.5 43.5h-5q-22 -44 -45 -72 t-46.5 -45t-47 -23.5t-46.5 -6.5q-58 0 -93.5 42t-35.5 128q0 69 16 130t48 107t80 73t111 27zM211 66q18 0 37.5 10t40.5 34.5t41.5 65t40.5 100.5l20 123q-29 11 -53 14.5t-41 3.5q-45 0 -74.5 -24.5t-47 -60.5t-24.5 -78t-7 -78q0 -56 18.5 -83t48.5 -27zM324 552 q-23 0 -42.5 9t-33 24t-19.5 35t-3 43t13.5 43.5t27 35.5t38.5 24t47 9q23 0 41.5 -9t31.5 -24t18.5 -35.5t2.5 -43.5q-2 -23 -13 -43.5t-27.5 -35.5t-37.5 -23.5t-44 -8.5zM345 723q-27 0 -45.5 -18t-21.5 -44q-3 -25 10.5 -43t41.5 -18q26 0 43.5 18t20.5 43q4 26 -9.5 44 t-39.5 18z" />
<glyph unicode="&#xe6;" horiz-adv-x="782" d="M609 501q68 0 105.5 -35t37.5 -92q0 -41 -21 -69.5t-61 -47.5t-97.5 -29t-129.5 -12q0 -9 -0.5 -18.5t-0.5 -19.5q0 -22 4 -42t15 -35.5t30.5 -25t51.5 -9.5q37 0 74.5 9.5t73.5 24.5l22 -60q-18 -11 -41 -19.5t-48.5 -15t-52 -10t-51.5 -3.5q-66 0 -103 22.5t-54 59.5 q-58 -49 -113.5 -67.5t-101.5 -18.5q-38 0 -61 10.5t-36.5 27t-18 37t-4.5 40.5q0 33 12 64t47 55t97.5 37.5t163.5 11.5q2 14 4.5 33.5t2.5 29.5q0 50 -21.5 68t-73.5 18q-32 0 -73.5 -7.5t-76.5 -19.5l-17 66q44 19 93.5 29.5t97.5 10.5q19 0 40 -2.5t39.5 -10.5t34 -25 t23.5 -45q31 40 76.5 62.5t111.5 22.5zM199 59q12 0 28.5 2.5t35.5 9.5t40 19.5t42 33.5q-2 14 -3 28.5t-1 29.5v17.5t1 20.5q-66 -2 -106 -10.5t-61.5 -22.5t-28.5 -31.5t-7 -35.5q0 -26 14 -43.5t46 -17.5zM594 424q-34 0 -60 -12.5t-44.5 -33.5t-29.5 -49.5t-14 -60.5 q102 2 158 23.5t56 71.5q0 27 -16 44t-50 17z" />
<glyph unicode="&#xe7;" horiz-adv-x="462" d="M300 499q14 0 29.5 -1.5t30.5 -4.5t27 -6t19 -6q18 -8 26.5 -18t8.5 -28q0 -7 -3 -21t-7.5 -30.5t-10.5 -33.5t-12 -31q-14 1 -27.5 1.5t-27.5 2.5q2 22 2.5 44.5t1.5 45.5q-11 4 -27 6t-33 2q-39 0 -68 -19.5t-47.5 -51.5t-28 -74.5t-9.5 -87.5q0 -54 23 -84t80 -30 q33 0 62 6.5t70 18.5q5 -17 12 -33t12 -33q-30 -15 -72 -25.5t-84 -13.5l-45 -53q44 -4 69 -22t25 -51q0 -21 -10.5 -41.5t-34 -37t-60 -27.5t-88.5 -11q0 11 0.5 22t0.5 22q55 5 89 20.5t34 41.5q0 11 -9 17.5t-22.5 10t-29 4.5t-29.5 1l-11 22q17 21 34.5 41.5t35.5 40.5 q-85 6 -120.5 53.5t-35.5 122.5q0 60 12.5 119t42.5 105.5t80 75.5t125 29z" />
<glyph unicode="&#xe8;" horiz-adv-x="481" d="M308 501q69 0 106 -35t37 -92q0 -85 -80.5 -127.5t-227.5 -50.5q-1 -6 -1 -12v-11q0 -20 4 -39t15 -34t30.5 -24.5t50.5 -9.5q37 0 74.5 9.5t73.5 24.5l21 -60q-18 -11 -41 -19.5t-48 -15t-51.5 -10t-51.5 -3.5q-55 0 -89.5 15.5t-54.5 41.5t-27.5 61.5t-7.5 74.5 q0 51 12.5 106.5t43 102t82.5 77t130 30.5zM293 424q-64 0 -101 -46t-46 -126q103 5 156 31t53 80q0 27 -14.5 44t-47.5 17zM158 688l68 59l112 -171l-42 -35z" />
<glyph unicode="&#xe9;" horiz-adv-x="481" d="M308 501q69 0 106 -35t37 -92q0 -85 -80.5 -127.5t-227.5 -50.5q-1 -6 -1 -12v-11q0 -20 4 -39t15 -34t30.5 -24.5t50.5 -9.5q37 0 74.5 9.5t73.5 24.5l21 -60q-18 -11 -41 -19.5t-48 -15t-51.5 -10t-51.5 -3.5q-55 0 -89.5 15.5t-54.5 41.5t-27.5 61.5t-7.5 74.5 q0 51 12.5 106.5t43 102t82.5 77t130 30.5zM293 424q-64 0 -101 -46t-46 -126q103 5 156 31t53 80q0 27 -14.5 44t-47.5 17zM289 539l-36 35l144 172l57 -60z" />
<glyph unicode="&#xea;" horiz-adv-x="481" d="M308 501q69 0 106 -35t37 -92q0 -85 -80.5 -127.5t-227.5 -50.5q-1 -6 -1 -12v-11q0 -20 4 -39t15 -34t30.5 -24.5t50.5 -9.5q37 0 74.5 9.5t73.5 24.5l21 -60q-18 -11 -41 -19.5t-48 -15t-51.5 -10t-51.5 -3.5q-55 0 -89.5 15.5t-54.5 41.5t-27.5 61.5t-7.5 74.5 q0 51 12.5 106.5t43 102t82.5 77t130 30.5zM293 424q-64 0 -101 -46t-46 -126q103 5 156 31t53 80q0 27 -14.5 44t-47.5 17zM439 533l-142 101l-166 -100l-24 33l164 145h67l131 -144z" />
<glyph unicode="&#xeb;" horiz-adv-x="481" d="M308 501q69 0 106 -35t37 -92q0 -85 -80.5 -127.5t-227.5 -50.5q-1 -6 -1 -12v-11q0 -20 4 -39t15 -34t30.5 -24.5t50.5 -9.5q37 0 74.5 9.5t73.5 24.5l21 -60q-18 -11 -41 -19.5t-48 -15t-51.5 -10t-51.5 -3.5q-55 0 -89.5 15.5t-54.5 41.5t-27.5 61.5t-7.5 74.5 q0 51 12.5 106.5t43 102t82.5 77t130 30.5zM293 424q-64 0 -101 -46t-46 -126q103 5 156 31t53 80q0 27 -14.5 44t-47.5 17zM406 670q22 0 35.5 -12.5t13.5 -34.5q0 -26 -17.5 -44.5t-44.5 -18.5q-20 0 -33 13.5t-13 34.5q0 26 18.5 44t40.5 18zM218 670q23 0 36.5 -12.5 t13.5 -34.5q0 -26 -18 -44.5t-44 -18.5q-21 0 -34.5 13.5t-13.5 34.5q0 26 19 44t41 18z" />
<glyph unicode="&#xec;" horiz-adv-x="318" d="M184 500q32 0 43.5 -10t11.5 -31q0 -3 -3 -30.5t-8 -67t-11 -86t-11 -88t-9 -72t-5 -38.5q41 3 80 24l23 -45q-35 -35 -74 -52t-68 -17q-38 0 -52.5 18t-14.5 46q0 6 0.5 12.5t1.5 13.5l43 336l-85 15l3 51q42 11 76.5 16t58.5 5zM46 688l68 59l112 -171l-42 -35z" />
<glyph unicode="&#xed;" horiz-adv-x="342" d="M184 500q32 0 43.5 -10t11.5 -31q0 -3 -3 -30.5t-8 -67t-11 -86t-11 -88t-9 -72t-5 -38.5q41 3 80 24l23 -45q-35 -35 -74 -52t-68 -17q-38 0 -52.5 18t-14.5 46q0 6 0.5 12.5t1.5 13.5l43 336l-85 15l3 51q42 11 76.5 16t58.5 5zM187 539l-36 35l144 172l57 -60z" />
<glyph unicode="&#xee;" horiz-adv-x="350" d="M184 500q32 0 43.5 -10t11.5 -31q0 -3 -3 -30.5t-8 -67t-11 -86t-11 -88t-9 -72t-5 -38.5q41 3 80 24l23 -45q-35 -35 -74 -52t-68 -17q-38 0 -52.5 18t-14.5 46q0 6 0.5 12.5t1.5 13.5l43 336l-85 15l3 51q42 11 76.5 16t58.5 5zM330 533l-142 101l-166 -100l-24 33 l164 145h67l131 -144z" />
<glyph unicode="&#xef;" horiz-adv-x="329" d="M184 500q32 0 43.5 -10t11.5 -31q0 -3 -3 -30.5t-8 -67t-11 -86t-11 -88t-9 -72t-5 -38.5q41 3 80 24l23 -45q-35 -35 -74 -52t-68 -17q-38 0 -52.5 18t-14.5 46q0 6 0.5 12.5t1.5 13.5l43 336l-85 15l3 51q42 11 76.5 16t58.5 5zM285 670q22 0 35.5 -12.5t13.5 -34.5 q0 -26 -17.5 -44.5t-44.5 -18.5q-20 0 -33 13.5t-13 34.5q0 26 18.5 44t40.5 18zM97 670q23 0 36.5 -12.5t13.5 -34.5q0 -26 -18 -44.5t-44 -18.5q-21 0 -34.5 13.5t-13.5 34.5q0 26 19 44t41 18z" />
<glyph unicode="&#xf0;" horiz-adv-x="524" d="M461 724q5 -9 11 -17.5t12 -17.5l-90 -57q54 -59 77 -132.5t23 -155.5q0 -33 -4 -72t-14.5 -78t-29 -75.5t-48 -64.5t-71 -45t-97.5 -17q-47 0 -82.5 13.5t-59.5 37.5t-36 57t-12 73q0 66 19 118t51 88.5t75 56t90 19.5q34 0 66 -8.5t51 -20.5q-5 41 -21 81.5t-47 78.5 l-103 -65l-23 35l96 63q-33 32 -80 58l33 56q69 -30 116 -71zM282 380q-38 0 -64 -20.5t-42.5 -51t-24 -65.5t-7.5 -65q0 -21 4 -41t15.5 -35.5t30.5 -25t49 -9.5q50 0 79.5 31t44.5 75t20 91.5t5 79.5q-29 21 -59.5 28.5t-50.5 7.5z" />
<glyph unicode="&#xf1;" horiz-adv-x="601" d="M417 499q57 0 78.5 -33t21.5 -86q0 -21 -8.5 -95.5t-23.5 -207.5q20 1 38 6.5t38 16.5q5 -7 12 -22t11 -23q-19 -18 -39 -30.5t-39.5 -20.5t-37 -12t-30.5 -4q-35 0 -46.5 15.5t-11.5 44.5q0 5 1 18t2 21q12 118 20 188.5t8 87.5q0 23 -10 38.5t-33 15.5 q-18 0 -39.5 -11.5t-43.5 -36.5t-43 -64.5t-38 -94.5l-29 -210h-102q8 64 15 117t13 101.5t11.5 95t11.5 98.5l-92 15l3 51q43 11 77 16t63 5q32 0 42.5 -10.5t10.5 -34.5q0 -19 -3.5 -47t-8.5 -61h4q23 45 50.5 74.5t54.5 47t51 24.5t41 7zM380 578q-23 0 -43.5 6t-39 13.5 t-35 13.5t-30.5 6l-59 -39l-30 25q20 41 46 61.5t55 20.5q19 0 39 -6t39 -12.5t37 -12.5t33 -6l60 39l27 -26q-17 -38 -42.5 -60.5t-56.5 -22.5z" />
<glyph unicode="&#xf2;" horiz-adv-x="521" d="M296 499q53 0 90 -16t60.5 -44t34 -65t10.5 -79q0 -51 -13 -104.5t-43 -98t-79.5 -72.5t-122.5 -28q-54 0 -90.5 15t-59.5 41.5t-33 62.5t-10 78q0 55 14.5 110.5t45 100t79 72t117.5 27.5zM291 420q-45 0 -73.5 -25t-45 -61.5t-22.5 -78.5t-6 -75q0 -23 4.5 -43t16 -36 t30.5 -25t48 -9q43 0 70.5 23.5t43.5 58.5t22 75t6 72q0 25 -4.5 47.5t-15 39.5t-28.5 27t-46 10zM181 688l68 59l112 -171l-42 -35z" />
<glyph unicode="&#xf3;" horiz-adv-x="521" d="M296 499q53 0 90 -16t60.5 -44t34 -65t10.5 -79q0 -51 -13 -104.5t-43 -98t-79.5 -72.5t-122.5 -28q-54 0 -90.5 15t-59.5 41.5t-33 62.5t-10 78q0 55 14.5 110.5t45 100t79 72t117.5 27.5zM291 420q-45 0 -73.5 -25t-45 -61.5t-22.5 -78.5t-6 -75q0 -23 4.5 -43t16 -36 t30.5 -25t48 -9q43 0 70.5 23.5t43.5 58.5t22 75t6 72q0 25 -4.5 47.5t-15 39.5t-28.5 27t-46 10zM297 539l-36 35l144 172l57 -60z" />
<glyph unicode="&#xf4;" horiz-adv-x="521" d="M296 499q53 0 90 -16t60.5 -44t34 -65t10.5 -79q0 -51 -13 -104.5t-43 -98t-79.5 -72.5t-122.5 -28q-54 0 -90.5 15t-59.5 41.5t-33 62.5t-10 78q0 55 14.5 110.5t45 100t79 72t117.5 27.5zM291 420q-45 0 -73.5 -25t-45 -61.5t-22.5 -78.5t-6 -75q0 -23 4.5 -43t16 -36 t30.5 -25t48 -9q43 0 70.5 23.5t43.5 58.5t22 75t6 72q0 25 -4.5 47.5t-15 39.5t-28.5 27t-46 10zM457 533l-142 101l-166 -100l-24 33l164 145h67l131 -144z" />
<glyph unicode="&#xf5;" horiz-adv-x="521" d="M296 499q53 0 90 -16t60.5 -44t34 -65t10.5 -79q0 -51 -13 -104.5t-43 -98t-79.5 -72.5t-122.5 -28q-54 0 -90.5 15t-59.5 41.5t-33 62.5t-10 78q0 55 14.5 110.5t45 100t79 72t117.5 27.5zM291 420q-45 0 -73.5 -25t-45 -61.5t-22.5 -78.5t-6 -75q0 -23 4.5 -43t16 -36 t30.5 -25t48 -9q43 0 70.5 23.5t43.5 58.5t22 75t6 72q0 25 -4.5 47.5t-15 39.5t-28.5 27t-46 10zM386 571q-23 0 -43.5 6t-39 13.5t-35 13.5t-30.5 6l-59 -39l-30 25q20 41 46 61.5t55 20.5q19 0 39 -6t39 -12.5t37 -12.5t33 -6l60 39l27 -26q-17 -38 -42.5 -60.5 t-56.5 -22.5z" />
<glyph unicode="&#xf6;" horiz-adv-x="521" d="M296 499q53 0 90 -16t60.5 -44t34 -65t10.5 -79q0 -51 -13 -104.5t-43 -98t-79.5 -72.5t-122.5 -28q-54 0 -90.5 15t-59.5 41.5t-33 62.5t-10 78q0 55 14.5 110.5t45 100t79 72t117.5 27.5zM291 420q-45 0 -73.5 -25t-45 -61.5t-22.5 -78.5t-6 -75q0 -23 4.5 -43t16 -36 t30.5 -25t48 -9q43 0 70.5 23.5t43.5 58.5t22 75t6 72q0 25 -4.5 47.5t-15 39.5t-28.5 27t-46 10zM417 670q22 0 35.5 -12.5t13.5 -34.5q0 -26 -17.5 -44.5t-44.5 -18.5q-20 0 -33 13.5t-13 34.5q0 26 18.5 44t40.5 18zM229 670q23 0 36.5 -12.5t13.5 -34.5q0 -26 -18 -44.5 t-44 -18.5q-21 0 -34.5 13.5t-13.5 34.5q0 26 19 44t41 18z" />
<glyph unicode="&#xf7;" horiz-adv-x="558" d="M366 469q-2 -26 -20.5 -44t-40.5 -18q-23 0 -37 16t-13 38q2 24 20.5 42t41.5 18t37 -15t12 -37zM92 266l9 69h388l-9 -69h-388zM326 141q-2 -26 -20.5 -44t-41.5 -18q-21 0 -36 15.5t-13 38.5q2 25 20.5 42t41.5 17q22 0 36 -14.5t13 -36.5z" />
<glyph unicode="&#xf8;" horiz-adv-x="523" d="M295 499q46 0 80 -12.5t58 -35.5q10 12 20.5 23.5t20.5 23.5h45q-17 -17 -32.5 -35t-31.5 -36q20 -29 28 -67t8 -81q0 -51 -15 -102.5t-46.5 -92t-80 -66t-116.5 -25.5q-47 0 -81 11t-57 32q-20 -23 -39 -42q-11 0 -22 -0.5t-23 -0.5l62 67q-15 23 -24 53t-9 63 q0 59 13 117t42.5 103.5t78.5 74t121 28.5zM242 67q42 0 69 22.5t43 55.5t22.5 70.5t6.5 67.5q0 17 -1.5 33.5t-6.5 31.5l-212 -244q11 -17 30 -27t49 -10zM291 420q-43 0 -71 -24t-44.5 -59t-23.5 -74.5t-7 -71.5q0 -31 7 -53q54 61 106 122t106 123q-11 17 -28.5 27 t-44.5 10z" />
<glyph unicode="&#xf9;" horiz-adv-x="598" d="M179 499q32 0 42.5 -12t10.5 -38v-9.5t-1 -9.5q-2 -18 -5 -44t-6.5 -56.5t-7.5 -62t-7 -59.5t-5 -49.5t-2 -31.5q0 -26 10 -40t33 -14q18 0 39 11t43 36t43 64.5t38 96.5l29 208h98q-14 -100 -27.5 -207.5t-24.5 -205.5q22 2 40.5 8t37.5 15l23 -44q-36 -35 -75.5 -50.5 t-65.5 -15.5q-18 0 -29.5 5.5t-17.5 14.5t-8 20.5t-2 24.5q0 18 2.5 41.5t4.5 40.5h-5q-23 -43 -48.5 -71t-51.5 -44.5t-50 -23t-42 -6.5q-53 0 -77 26t-24 74v17.5t2 23.5q4 41 11.5 107.5t20.5 174.5l-92 14l4 49q42 12 77.5 17t64.5 5zM197 688l68 59l112 -171l-42 -35z " />
<glyph unicode="&#xfa;" horiz-adv-x="598" d="M179 499q32 0 42.5 -12t10.5 -38v-9.5t-1 -9.5q-2 -18 -5 -44t-6.5 -56.5t-7.5 -62t-7 -59.5t-5 -49.5t-2 -31.5q0 -26 10 -40t33 -14q18 0 39 11t43 36t43 64.5t38 96.5l29 208h98q-14 -100 -27.5 -207.5t-24.5 -205.5q22 2 40.5 8t37.5 15l23 -44q-36 -35 -75.5 -50.5 t-65.5 -15.5q-18 0 -29.5 5.5t-17.5 14.5t-8 20.5t-2 24.5q0 18 2.5 41.5t4.5 40.5h-5q-23 -43 -48.5 -71t-51.5 -44.5t-50 -23t-42 -6.5q-53 0 -77 26t-24 74v17.5t2 23.5q4 41 11.5 107.5t20.5 174.5l-92 14l4 49q42 12 77.5 17t64.5 5zM315 539l-36 35l144 172l57 -60z " />
<glyph unicode="&#xfb;" horiz-adv-x="598" d="M179 499q32 0 42.5 -12t10.5 -38v-9.5t-1 -9.5q-2 -18 -5 -44t-6.5 -56.5t-7.5 -62t-7 -59.5t-5 -49.5t-2 -31.5q0 -26 10 -40t33 -14q18 0 39 11t43 36t43 64.5t38 96.5l29 208h98q-14 -100 -27.5 -207.5t-24.5 -205.5q22 2 40.5 8t37.5 15l23 -44q-36 -35 -75.5 -50.5 t-65.5 -15.5q-18 0 -29.5 5.5t-17.5 14.5t-8 20.5t-2 24.5q0 18 2.5 41.5t4.5 40.5h-5q-23 -43 -48.5 -71t-51.5 -44.5t-50 -23t-42 -6.5q-53 0 -77 26t-24 74v17.5t2 23.5q4 41 11.5 107.5t20.5 174.5l-92 14l4 49q42 12 77.5 17t64.5 5zM486 533l-142 101l-166 -100 l-24 33l164 145h67l131 -144z" />
<glyph unicode="&#xfc;" horiz-adv-x="598" d="M179 499q32 0 42.5 -12t10.5 -38v-9.5t-1 -9.5q-2 -18 -5 -44t-6.5 -56.5t-7.5 -62t-7 -59.5t-5 -49.5t-2 -31.5q0 -26 10 -40t33 -14q18 0 39 11t43 36t43 64.5t38 96.5l29 208h98q-14 -100 -27.5 -207.5t-24.5 -205.5q22 2 40.5 8t37.5 15l23 -44q-36 -35 -75.5 -50.5 t-65.5 -15.5q-18 0 -29.5 5.5t-17.5 14.5t-8 20.5t-2 24.5q0 18 2.5 41.5t4.5 40.5h-5q-23 -43 -48.5 -71t-51.5 -44.5t-50 -23t-42 -6.5q-53 0 -77 26t-24 74v17.5t2 23.5q4 41 11.5 107.5t20.5 174.5l-92 14l4 49q42 12 77.5 17t64.5 5zM247 670q23 0 36.5 -12.5 t13.5 -34.5q0 -26 -18 -44.5t-44 -18.5q-21 0 -34.5 13.5t-13.5 34.5q0 26 19 44t41 18zM435 670q22 0 35.5 -12.5t13.5 -34.5q0 -26 -17.5 -44.5t-44.5 -18.5q-20 0 -33 13.5t-13 34.5q0 26 18.5 44t40.5 18z" />
<glyph unicode="&#xfd;" horiz-adv-x="532" d="M442 500q30 0 43.5 -19.5t13.5 -63.5q0 -58 -20 -129t-56 -143t-85.5 -139.5t-108 -120t-124.5 -84.5t-135 -32q-23 0 -43 6t-33.5 18t-19 30.5t1.5 43.5l43 26q15 -13 27.5 -20t24.5 -10.5t23 -4t23 -0.5q38 0 86.5 23t97.5 77q-10 53 -22.5 116t-25.5 125t-25 116.5 t-22 90.5l-74 -18l-16 44q38 34 72 49t54 15q23 0 35.5 -7.5t18.5 -36.5t16.5 -81.5t21.5 -112t21.5 -118.5t17.5 -102q30 37 54 86t41 100.5t26 100.5t9 87l-71 -17l-16 48q34 29 67 43t59 14zM271 539l-36 35l144 172l57 -60z" />
<glyph unicode="&#xfe;" horiz-adv-x="554" d="M39 -135q10 86 22 186t24 202t23.5 200.5t20.5 182.5l-92 15l4 51q36 11 73 16.5t69 5.5q29 0 40 -10.5t11 -32.5v-7.5t-1 -9.5l-36 -320h4q22 43 46 72.5t48 46.5t48 24.5t46 7.5q57 0 92 -43t35 -131q0 -69 -16 -129.5t-48.5 -105.5t-81 -70.5t-112.5 -25.5 q-23 0 -47.5 5t-50.5 12q-5 -35 -9.5 -70.5t-9.5 -71.5h86q-2 -18 -4 -36.5t-4 -36.5h-255q2 18 4 36.5t5 36.5h66zM345 413q-18 0 -38 -10t-41 -34t-42 -64.5t-40 -100.5l-17 -118q29 -11 52.5 -14.5t40.5 -3.5q45 0 74.5 23.5t47.5 58.5t25 75.5t7 75.5q0 57 -19 84.5 t-50 27.5z" />
<glyph unicode="&#xff;" horiz-adv-x="532" d="M442 500q30 0 43.5 -19.5t13.5 -63.5q0 -58 -20 -129t-56 -143t-85.5 -139.5t-108 -120t-124.5 -84.5t-135 -32q-23 0 -43 6t-33.5 18t-19 30.5t1.5 43.5l43 26q15 -13 27.5 -20t24.5 -10.5t23 -4t23 -0.5q38 0 86.5 23t97.5 77q-10 53 -22.5 116t-25.5 125t-25 116.5 t-22 90.5l-74 -18l-16 44q38 34 72 49t54 15q23 0 35.5 -7.5t18.5 -36.5t16.5 -81.5t21.5 -112t21.5 -118.5t17.5 -102q30 37 54 86t41 100.5t26 100.5t9 87l-71 -17l-16 48q34 29 67 43t59 14zM213 670q23 0 36.5 -12.5t13.5 -34.5q0 -26 -18 -44.5t-44 -18.5 q-21 0 -34.5 13.5t-13.5 34.5q0 26 19 44t41 18zM401 670q22 0 35.5 -12.5t13.5 -34.5q0 -26 -17.5 -44.5t-44.5 -18.5q-20 0 -33 13.5t-13 34.5q0 26 18.5 44t40.5 18z" />
<glyph unicode="&#x100;" horiz-adv-x="676" d="M408 0l8 75h65l-21 114h-249l-49 -114h66l-8 -75h-226l7 75h57l275 611h132l123 -611h53l-9 -75h-224zM411 464l-22 134h-3l-53 -126l-88 -207h202zM250 823h334l-9 -76h-335z" />
<glyph unicode="&#x101;" horiz-adv-x="571" d="M295 497q29 0 58 -7t60 -20l24 27l69 -4q-9 -57 -17.5 -114.5t-16 -111t-13.5 -102t-10 -88.5q20 2 41 9.5t41 18.5q4 -8 11 -23t12 -23q-15 -15 -33.5 -27.5t-37.5 -22.5t-37 -15.5t-33 -5.5q-34 0 -47.5 18t-15.5 47q0 20 2.5 40.5t6.5 43.5h-5q-22 -44 -45 -72 t-46.5 -45t-47 -23.5t-46.5 -6.5q-58 0 -93.5 42t-35.5 128q0 69 16 130t48 107t80 73t111 27zM211 66q18 0 37.5 10t40.5 34.5t41.5 65t40.5 100.5l20 123q-29 11 -53 14.5t-41 3.5q-45 0 -74.5 -24.5t-47 -60.5t-24.5 -78t-7 -78q0 -56 18.5 -83t48.5 -27zM183 658h328 l-10 -75h-327z" />
<glyph unicode="&#x102;" horiz-adv-x="676" d="M408 0l8 75h65l-21 114h-249l-49 -114h66l-8 -75h-226l7 75h57l275 611h132l123 -611h53l-9 -75h-224zM411 464l-22 134h-3l-53 -126l-88 -207h202zM399 731q-27 0 -49.5 10t-41 26.5t-33.5 38t-28 44.5l54 39q24 -40 53.5 -62.5t56.5 -22.5q9 0 22 1.5t31 9t42 23.5 t56 44l27 -30q-51 -68 -100.5 -94.5t-89.5 -26.5z" />
<glyph unicode="&#x103;" horiz-adv-x="571" d="M295 497q29 0 58 -7t60 -20l24 27l69 -4q-9 -57 -17.5 -114.5t-16 -111t-13.5 -102t-10 -88.5q20 2 41 9.5t41 18.5q4 -8 11 -23t12 -23q-15 -15 -33.5 -27.5t-37.5 -22.5t-37 -15.5t-33 -5.5q-34 0 -47.5 18t-15.5 47q0 20 2.5 40.5t6.5 43.5h-5q-22 -44 -45 -72 t-46.5 -45t-47 -23.5t-46.5 -6.5q-58 0 -93.5 42t-35.5 128q0 69 16 130t48 107t80 73t111 27zM211 66q18 0 37.5 10t40.5 34.5t41.5 65t40.5 100.5l20 123q-29 11 -53 14.5t-41 3.5q-45 0 -74.5 -24.5t-47 -60.5t-24.5 -78t-7 -78q0 -56 18.5 -83t48.5 -27zM304 551 q-27 0 -49.5 10t-41 26.5t-33.5 38t-28 44.5l54 39q24 -41 53.5 -63t56.5 -22q9 0 22 1.5t31 9t42 23t56 44.5l27 -31q-26 -34 -51 -57t-49.5 -37t-47 -20t-42.5 -6z" />
<glyph unicode="&#x104;" horiz-adv-x="676" d="M544 0q-13 -15 -25 -32t-21 -34t-14 -32.5t-5 -27.5q0 -22 13.5 -31t36.5 -9q19 0 38.5 3.5t35.5 7.5q2 -10 2.5 -19t1.5 -18q-26 -13 -55.5 -21t-58.5 -8q-43 0 -65 17.5t-22 49.5q0 12 4 29.5t14.5 37.5t28.5 42.5t46 44.5h-91l8 75h65l-21 114h-249l-49 -114h66 l-8 -75h-226l7 75h57l275 611h132l123 -611h53l-9 -75h-88zM411 464l-22 134h-3l-53 -126l-88 -207h202z" />
<glyph unicode="&#x105;" horiz-adv-x="571" d="M295 497q29 0 58 -7t60 -20l24 27l69 -4q-9 -57 -17.5 -114.5t-16 -111t-13.5 -102t-10 -88.5q20 2 41 9.5t41 18.5q4 -8 11 -23t12 -23q-24 -23 -54.5 -41t-58.5 -25q-23 -29 -39 -61t-16 -54t13.5 -31t36.5 -9q19 0 38.5 3.5t35.5 7.5q2 -10 2.5 -19t1.5 -18 q-26 -13 -55.5 -21t-58.5 -8q-43 0 -65 17.5t-22 49.5q0 23 15.5 61t61.5 80q-21 6 -30 22.5t-10 39.5q0 20 2.5 40.5t6.5 43.5h-5q-22 -44 -45 -72t-46.5 -45t-47 -23.5t-46.5 -6.5q-58 0 -93.5 42t-35.5 128q0 69 16 130t48 107t80 73t111 27zM211 66q18 0 37.5 10 t40.5 34.5t41.5 65t40.5 100.5l20 123q-29 11 -53 14.5t-41 3.5q-45 0 -74.5 -24.5t-47 -60.5t-24.5 -78t-7 -78q0 -56 18.5 -83t48.5 -27z" />
<glyph unicode="&#x106;" horiz-adv-x="575" d="M412 698q54 0 96.5 -8t74.5 -20l-21 -174h-79l12 104q-17 5 -40.5 8.5t-48.5 3.5q-59 0 -102.5 -25t-72 -69t-43 -106t-14.5 -135q0 -93 43 -141t145 -48q12 0 30.5 1t39.5 4t43 7t42 10l16 -85q-20 -8 -45 -14t-52 -10.5t-54.5 -7t-51.5 -2.5q-74 0 -125 19.5t-83 56 t-46.5 88t-14.5 114.5q0 42 5.5 90.5t20 96t39.5 91.5t64 77.5t93.5 53.5t128.5 20zM356 726l-27 43l182 127l43 -71z" />
<glyph unicode="&#x107;" horiz-adv-x="462" d="M300 499q14 0 29.5 -1.5t30.5 -4.5t27 -6t19 -6q18 -8 26.5 -18t8.5 -28q0 -7 -3 -21t-7.5 -30.5t-10.5 -33.5t-12 -31q-14 1 -27.5 1.5t-27.5 2.5q2 22 2.5 44.5t1.5 45.5q-11 4 -27 6t-33 2q-39 0 -68 -19.5t-47.5 -51.5t-28 -74.5t-9.5 -87.5q0 -54 23 -84t80 -30 q33 0 62 6.5t70 18.5q5 -17 12 -33t12 -33q-35 -17 -84 -28.5t-97 -11.5q-50 0 -84.5 12.5t-56 36t-31.5 56t-10 72.5q0 60 12.5 119t42.5 105.5t80 75.5t125 29zM279 539l-36 35l144 172l57 -60z" />
<glyph unicode="&#x108;" horiz-adv-x="575" d="M412 698q54 0 96.5 -8t74.5 -20l-21 -174h-79l12 104q-17 5 -40.5 8.5t-48.5 3.5q-59 0 -102.5 -25t-72 -69t-43 -106t-14.5 -135q0 -93 43 -141t145 -48q12 0 30.5 1t39.5 4t43 7t42 10l16 -85q-20 -8 -45 -14t-52 -10.5t-54.5 -7t-51.5 -2.5q-74 0 -125 19.5t-83 56 t-46.5 88t-14.5 114.5q0 42 5.5 90.5t20 96t39.5 91.5t64 77.5t93.5 53.5t128.5 20zM537 714l-142 100l-166 -100l-25 33l165 146h67l132 -144z" />
<glyph unicode="&#x109;" horiz-adv-x="462" d="M300 499q14 0 29.5 -1.5t30.5 -4.5t27 -6t19 -6q18 -8 26.5 -18t8.5 -28q0 -7 -3 -21t-7.5 -30.5t-10.5 -33.5t-12 -31q-14 1 -27.5 1.5t-27.5 2.5q2 22 2.5 44.5t1.5 45.5q-11 4 -27 6t-33 2q-39 0 -68 -19.5t-47.5 -51.5t-28 -74.5t-9.5 -87.5q0 -54 23 -84t80 -30 q33 0 62 6.5t70 18.5q5 -17 12 -33t12 -33q-35 -17 -84 -28.5t-97 -11.5q-50 0 -84.5 12.5t-56 36t-31.5 56t-10 72.5q0 60 12.5 119t42.5 105.5t80 75.5t125 29zM445 533l-142 101l-166 -100l-24 33l164 145h67l131 -144z" />
<glyph unicode="&#x10a;" horiz-adv-x="575" d="M412 698q54 0 96.5 -8t74.5 -20l-21 -174h-79l12 104q-17 5 -40.5 8.5t-48.5 3.5q-59 0 -102.5 -25t-72 -69t-43 -106t-14.5 -135q0 -93 43 -141t145 -48q12 0 30.5 1t39.5 4t43 7t42 10l16 -85q-20 -8 -45 -14t-52 -10.5t-54.5 -7t-51.5 -2.5q-74 0 -125 19.5t-83 56 t-46.5 88t-14.5 114.5q0 42 5.5 90.5t20 96t39.5 91.5t64 77.5t93.5 53.5t128.5 20zM474 831q-2 -27 -22 -46.5t-47 -19.5q-25 0 -40 17t-13 43q2 27 23 46.5t46 19.5q24 0 39.5 -17.5t13.5 -42.5z" />
<glyph unicode="&#x10b;" horiz-adv-x="462" d="M300 499q14 0 29.5 -1.5t30.5 -4.5t27 -6t19 -6q18 -8 26.5 -18t8.5 -28q0 -7 -3 -21t-7.5 -30.5t-10.5 -33.5t-12 -31q-14 1 -27.5 1.5t-27.5 2.5q2 22 2.5 44.5t1.5 45.5q-11 4 -27 6t-33 2q-39 0 -68 -19.5t-47.5 -51.5t-28 -74.5t-9.5 -87.5q0 -54 23 -84t80 -30 q33 0 62 6.5t70 18.5q5 -17 12 -33t12 -33q-35 -17 -84 -28.5t-97 -11.5q-50 0 -84.5 12.5t-56 36t-31.5 56t-10 72.5q0 60 12.5 119t42.5 105.5t80 75.5t125 29zM371 632q-2 -26 -19.5 -45t-41.5 -19q-23 0 -36.5 16.5t-11.5 41.5q2 26 20.5 45t41.5 19q21 0 35 -17t12 -41 z" />
<glyph unicode="&#x10c;" horiz-adv-x="575" d="M412 698q54 0 96.5 -8t74.5 -20l-21 -174h-79l12 104q-17 5 -40.5 8.5t-48.5 3.5q-59 0 -102.5 -25t-72 -69t-43 -106t-14.5 -135q0 -93 43 -141t145 -48q12 0 30.5 1t39.5 4t43 7t42 10l16 -85q-20 -8 -45 -14t-52 -10.5t-54.5 -7t-51.5 -2.5q-74 0 -125 19.5t-83 56 t-46.5 88t-14.5 114.5q0 42 5.5 90.5t20 96t39.5 91.5t64 77.5t93.5 53.5t128.5 20zM611 867l-166 -136h-66l-129 139l29 32l142 -92l167 92z" />
<glyph unicode="&#x10d;" horiz-adv-x="462" d="M300 499q14 0 29.5 -1.5t30.5 -4.5t27 -6t19 -6q18 -8 26.5 -18t8.5 -28q0 -7 -3 -21t-7.5 -30.5t-10.5 -33.5t-12 -31q-14 1 -27.5 1.5t-27.5 2.5q2 22 2.5 44.5t1.5 45.5q-11 4 -27 6t-33 2q-39 0 -68 -19.5t-47.5 -51.5t-28 -74.5t-9.5 -87.5q0 -54 23 -84t80 -30 q33 0 62 6.5t70 18.5q5 -17 12 -33t12 -33q-35 -17 -84 -28.5t-97 -11.5q-50 0 -84.5 12.5t-56 36t-31.5 56t-10 72.5q0 60 12.5 119t42.5 105.5t80 75.5t125 29zM503 692l-166 -144h-67l-129 145l30 33l141 -100l167 99z" />
<glyph unicode="&#x10e;" horiz-adv-x="671" d="M16 0l8 75h69l65 536h-64l9 75h282q74 0 123.5 -21.5t79.5 -59.5t42.5 -89t12.5 -110q0 -81 -18 -154.5t-58 -129.5t-104 -89t-155 -33h-292zM267 611l-66 -535h96q17 0 41.5 4t50 16t51 34t45.5 58t32.5 88t12.5 124q0 71 -17 113t-42 63.5t-54 28t-54 6.5h-96zM550 867 l-166 -136h-66l-129 139l29 32l142 -92l167 92z" />
<glyph unicode="&#x10f;" horiz-adv-x="695" d="M301 496q23 0 47.5 -5.5t50.5 -13.5q5 42 9.5 79t9.5 82l-99 15l3 51q43 11 80 16t66 5q35 0 46 -16t11 -41q0 -8 -7 -61.5t-17.5 -136.5t-23.5 -185.5t-26 -207.5q42 6 83 28l24 -44q-14 -15 -32 -28t-37.5 -23t-39.5 -16t-39 -6q-32 0 -44.5 16.5t-13.5 43.5 q-1 23 1.5 44t7.5 45h-5q-22 -44 -45.5 -72.5t-47.5 -45t-47.5 -23t-46.5 -6.5q-58 0 -93.5 42t-35.5 128q0 71 16.5 132.5t49.5 106.5t81.5 71t113.5 26zM211 66q18 0 38 10t41 34.5t42.5 65t41.5 100.5l17 123q-29 11 -52.5 14.5t-40.5 3.5q-45 0 -75 -24.5t-48 -60.5 t-25 -78t-7 -78q0 -56 18.5 -83t49.5 -27zM652 743q26 0 39.5 -16.5t13.5 -41.5q0 -22 -10 -44t-27 -42t-38.5 -37t-45.5 -28l-20 31q21 16 35 30t21 40q-33 10 -33 45q0 25 18 44t47 19z" />
<glyph unicode="&#x110;" horiz-adv-x="671" d="M16 0l8 75h69l30 246h-65l8 55h63l29 235h-64l9 75h282q74 0 123.5 -21.5t79.5 -59.5t42.5 -89t12.5 -110q0 -81 -18 -154.5t-58 -129.5t-104 -89t-155 -33h-292zM267 611l-29 -235h130l-7 -55h-130l-30 -245h96q17 0 41.5 4t50 16t51 34t45.5 58t32.5 88t12.5 124 q0 71 -17 113t-42 63.5t-54 28t-54 6.5h-96z" />
<glyph unicode="&#x111;" horiz-adv-x="571" d="M468 725q33 0 44.5 -14.5t11.5 -38.5q0 -6 -1 -18t-2.5 -25.5t-3.5 -28t-3 -26.5h68l-6 -46h-68l-57 -452q20 2 41 9.5t41 18.5q5 -11 11 -22t12 -23q-34 -31 -75.5 -50.5t-70.5 -19.5q-35 0 -46.5 17t-11.5 49q0 20 2.5 39.5t5.5 41.5h-4q-22 -44 -45.5 -72t-47.5 -44.5 t-48 -22.5t-46 -6q-58 0 -93.5 41t-35.5 128q0 68 16.5 126.5t48.5 101.5t80 67.5t111 24.5q23 0 49 -5t52 -13q2 16 4 32.5t4 33.5h-150l6 46h149l8 63l-100 15q2 13 2.5 25.5t1.5 25.5q43 11 80 16.5t66 5.5zM210 66q17 0 37.5 10t42 33.5t42.5 63t41 99.5l16 115 q-28 11 -52 14.5t-41 3.5q-45 0 -74.5 -23t-47.5 -57.5t-25 -75t-7 -74.5q0 -55 19 -82t49 -27z" />
<glyph unicode="&#x112;" horiz-adv-x="589" d="M16 0l8 75h66l66 536h-63l8 74h500l-22 -173h-78l12 99h-250l-27 -218l236 5l-8 -79l-237 4l-30 -248h270l13 102h80l-22 -177h-522zM224 823h334l-9 -76h-335z" />
<glyph unicode="&#x113;" horiz-adv-x="481" d="M308 501q69 0 106 -35t37 -92q0 -85 -80.5 -127.5t-227.5 -50.5q-1 -6 -1 -12v-11q0 -20 4 -39t15 -34t30.5 -24.5t50.5 -9.5q37 0 74.5 9.5t73.5 24.5l21 -60q-18 -11 -41 -19.5t-48 -15t-51.5 -10t-51.5 -3.5q-55 0 -89.5 15.5t-54.5 41.5t-27.5 61.5t-7.5 74.5 q0 51 12.5 106.5t43 102t82.5 77t130 30.5zM293 424q-64 0 -101 -46t-46 -126q103 5 156 31t53 80q0 27 -14.5 44t-47.5 17zM147 658h328l-10 -75h-327z" />
<glyph unicode="&#x114;" horiz-adv-x="589" d="M16 0l8 75h66l66 536h-63l8 74h500l-22 -173h-78l12 99h-250l-27 -218l236 5l-8 -79l-237 4l-30 -248h270l13 102h80l-22 -177h-522zM366 731q-27 0 -49.5 10t-41 26.5t-33.5 38t-28 44.5l54 39q24 -40 53.5 -62.5t56.5 -22.5q9 0 22 1.5t31 9t42 23.5t56 44l27 -30 q-51 -68 -100.5 -94.5t-89.5 -26.5z" />
<glyph unicode="&#x115;" horiz-adv-x="481" d="M308 501q69 0 106 -35t37 -92q0 -85 -80.5 -127.5t-227.5 -50.5q-1 -6 -1 -12v-11q0 -20 4 -39t15 -34t30.5 -24.5t50.5 -9.5q37 0 74.5 9.5t73.5 24.5l21 -60q-18 -11 -41 -19.5t-48 -15t-51.5 -10t-51.5 -3.5q-55 0 -89.5 15.5t-54.5 41.5t-27.5 61.5t-7.5 74.5 q0 51 12.5 106.5t43 102t82.5 77t130 30.5zM293 424q-64 0 -101 -46t-46 -126q103 5 156 31t53 80q0 27 -14.5 44t-47.5 17zM296 551q-27 0 -49.5 10t-41 26.5t-33.5 38t-28 44.5l54 39q24 -41 53.5 -63t56.5 -22q9 0 22 1.5t31 9t42 23t56 44.5l27 -31q-26 -34 -51 -57 t-49.5 -37t-47 -20t-42.5 -6z" />
<glyph unicode="&#x116;" horiz-adv-x="589" d="M16 0l8 75h66l66 536h-63l8 74h500l-22 -173h-78l12 99h-250l-27 -218l236 5l-8 -79l-237 4l-30 -248h270l13 102h80l-22 -177h-522zM437 825q-2 -27 -22 -46.5t-47 -19.5q-25 0 -40 17t-13 43q2 27 23 46.5t46 19.5q24 0 39.5 -17.5t13.5 -42.5z" />
<glyph unicode="&#x117;" horiz-adv-x="481" d="M308 501q69 0 106 -35t37 -92q0 -85 -80.5 -127.5t-227.5 -50.5q-1 -6 -1 -12v-11q0 -20 4 -39t15 -34t30.5 -24.5t50.5 -9.5q37 0 74.5 9.5t73.5 24.5l21 -60q-18 -11 -41 -19.5t-48 -15t-51.5 -10t-51.5 -3.5q-55 0 -89.5 15.5t-54.5 41.5t-27.5 61.5t-7.5 74.5 q0 51 12.5 106.5t43 102t82.5 77t130 30.5zM293 424q-64 0 -101 -46t-46 -126q103 5 156 31t53 80q0 27 -14.5 44t-47.5 17zM370 631q-2 -27 -22 -46.5t-47 -19.5q-25 0 -40 17t-13 43q2 27 23 46.5t46 19.5q24 0 39.5 -17.5t13.5 -42.5z" />
<glyph unicode="&#x118;" horiz-adv-x="589" d="M518 0q-13 -15 -24.5 -31.5t-20.5 -33.5t-14 -32t-5 -27q0 -22 13.5 -31t36.5 -9q19 0 38.5 3.5t35.5 7.5q2 -10 2.5 -19t1.5 -18q-26 -13 -55.5 -21t-58.5 -8q-43 0 -65 17.5t-22 49.5q0 12 4 29.5t14 37.5t27.5 41.5t44.5 43.5h-455l8 75h66l66 536h-63l8 74h500 l-22 -173h-78l12 99h-250l-27 -218l236 5l-8 -79l-237 4l-30 -248h270l13 102h80l-22 -177h-20z" />
<glyph unicode="&#x119;" horiz-adv-x="481" d="M308 501q69 0 106 -35t37 -92q0 -85 -80.5 -127.5t-227.5 -50.5q-1 -6 -1 -12v-11q0 -20 4 -39t15 -34t30.5 -24.5t50.5 -9.5q37 0 74.5 9.5t73.5 24.5l21 -60l-16 -9q-14 -15 -26 -32t-21 -34t-14 -32.5t-5 -27.5q0 -22 13.5 -31t36.5 -9q19 0 38.5 3.5t35.5 7.5 q2 -10 2.5 -19t1.5 -18q-26 -13 -55.5 -21t-58.5 -8q-43 0 -65 17.5t-22 49.5q0 21 13 55.5t51 72.5q-25 -6 -50.5 -9.5t-50.5 -3.5q-55 0 -89.5 15.5t-54.5 41.5t-27.5 61.5t-7.5 74.5q0 51 12.5 106.5t43 102t82.5 77t130 30.5zM293 424q-64 0 -101 -46t-46 -126 q103 5 156 31t53 80q0 27 -14.5 44t-47.5 17z" />
<glyph unicode="&#x11a;" horiz-adv-x="589" d="M16 0l8 75h66l66 536h-63l8 74h500l-22 -173h-78l12 99h-250l-27 -218l236 5l-8 -79l-237 4l-30 -248h270l13 102h80l-22 -177h-522zM574 867l-166 -136h-66l-129 139l29 32l142 -92l167 92z" />
<glyph unicode="&#x11b;" horiz-adv-x="481" d="M308 501q69 0 106 -35t37 -92q0 -85 -80.5 -127.5t-227.5 -50.5q-1 -6 -1 -12v-11q0 -20 4 -39t15 -34t30.5 -24.5t50.5 -9.5q37 0 74.5 9.5t73.5 24.5l21 -60q-18 -11 -41 -19.5t-48 -15t-51.5 -10t-51.5 -3.5q-55 0 -89.5 15.5t-54.5 41.5t-27.5 61.5t-7.5 74.5 q0 51 12.5 106.5t43 102t82.5 77t130 30.5zM293 424q-64 0 -101 -46t-46 -126q103 5 156 31t53 80q0 27 -14.5 44t-47.5 17zM493 692l-166 -144h-67l-129 145l30 33l141 -100l167 99z" />
<glyph unicode="&#x11c;" horiz-adv-x="638" d="M425 698q54 0 98.5 -8t75.5 -20l-20 -171h-79l13 102q-18 5 -43 8.5t-50 3.5q-62 0 -108.5 -25.5t-77 -70.5t-45.5 -106t-15 -133q0 -45 8.5 -81.5t28.5 -63t52.5 -40.5t80.5 -14q23 0 50.5 3.5t50.5 10.5l24 193h-88l8 70h235l-8 -70h-50l-32 -261q-105 -34 -208 -34 q-73 0 -123.5 20.5t-82 57.5t-45.5 88t-14 112q0 43 6.5 91.5t22 96t42 91.5t67 77t96 53t130.5 20zM555 714l-142 100l-166 -100l-25 33l165 146h67l132 -144z" />
<glyph unicode="&#x11d;" horiz-adv-x="534" d="M303 496q42 -1 90.5 -10.5t98.5 -32.5l5 -12l-58 -446q-5 -35 -16.5 -73.5t-38.5 -70t-73.5 -52t-121.5 -20.5q-47 0 -90.5 12.5t-69.5 25.5q3 6 7 16.5t8 21.5t8 21.5t7 16.5q32 -14 67.5 -22t66.5 -8q44 0 71.5 13t43.5 36.5t24 56t13 71.5q0 1 2 15.5t4 31.5t4 31.5 l2 14.5q0 1 -4 1q-21 -41 -44.5 -68t-46.5 -43t-46.5 -22.5t-44.5 -6.5q-58 0 -94 41.5t-36 128.5q0 68 16.5 128.5t49 105.5t81.5 71.5t115 26.5zM213 71q18 0 38 10.5t41 34.5t41.5 64.5t39.5 100.5l17 118q-29 11 -51.5 14.5t-39.5 3.5q-45 0 -75 -23.5t-48 -59t-25 -77 t-7 -77.5q0 -56 19 -82.5t50 -26.5zM470 533l-142 101l-166 -100l-24 33l164 145h67l131 -144z" />
<glyph unicode="&#x11e;" horiz-adv-x="638" d="M425 698q54 0 98.5 -8t75.5 -20l-20 -171h-79l13 102q-18 5 -43 8.5t-50 3.5q-62 0 -108.5 -25.5t-77 -70.5t-45.5 -106t-15 -133q0 -45 8.5 -81.5t28.5 -63t52.5 -40.5t80.5 -14q23 0 50.5 3.5t50.5 10.5l24 193h-88l8 70h235l-8 -70h-50l-32 -261q-105 -34 -208 -34 q-73 0 -123.5 20.5t-82 57.5t-45.5 88t-14 112q0 43 6.5 91.5t22 96t42 91.5t67 77t96 53t130.5 20zM407 731q-27 0 -49.5 10t-41 26.5t-33.5 38t-28 44.5l54 39q24 -40 53.5 -62.5t56.5 -22.5q9 0 22 1.5t31 9t42 23.5t56 44l27 -30q-51 -68 -100.5 -94.5t-89.5 -26.5z" />
<glyph unicode="&#x11f;" horiz-adv-x="534" d="M303 496q42 -1 90.5 -10.5t98.5 -32.5l5 -12l-58 -446q-5 -35 -16.5 -73.5t-38.5 -70t-73.5 -52t-121.5 -20.5q-47 0 -90.5 12.5t-69.5 25.5q3 6 7 16.5t8 21.5t8 21.5t7 16.5q32 -14 67.5 -22t66.5 -8q44 0 71.5 13t43.5 36.5t24 56t13 71.5q0 1 2 15.5t4 31.5t4 31.5 l2 14.5q0 1 -4 1q-21 -41 -44.5 -68t-46.5 -43t-46.5 -22.5t-44.5 -6.5q-58 0 -94 41.5t-36 128.5q0 68 16.5 128.5t49 105.5t81.5 71.5t115 26.5zM213 71q18 0 38 10.5t41 34.5t41.5 64.5t39.5 100.5l17 118q-29 11 -51.5 14.5t-39.5 3.5q-45 0 -75 -23.5t-48 -59t-25 -77 t-7 -77.5q0 -56 19 -82.5t50 -26.5zM298 551q-27 0 -49.5 10t-41 26.5t-33.5 38t-28 44.5l54 39q24 -41 53.5 -63t56.5 -22q9 0 22 1.5t31 9t42 23t56 44.5l27 -31q-26 -34 -51 -57t-49.5 -37t-47 -20t-42.5 -6z" />
<glyph unicode="&#x120;" horiz-adv-x="638" d="M425 698q54 0 98.5 -8t75.5 -20l-20 -171h-79l13 102q-18 5 -43 8.5t-50 3.5q-62 0 -108.5 -25.5t-77 -70.5t-45.5 -106t-15 -133q0 -45 8.5 -81.5t28.5 -63t52.5 -40.5t80.5 -14q23 0 50.5 3.5t50.5 10.5l24 193h-88l8 70h235l-8 -70h-50l-32 -261q-105 -34 -208 -34 q-73 0 -123.5 20.5t-82 57.5t-45.5 88t-14 112q0 43 6.5 91.5t22 96t42 91.5t67 77t96 53t130.5 20zM498 825q-2 -27 -22 -46.5t-47 -19.5q-25 0 -40 17t-13 43q2 27 23 46.5t46 19.5q24 0 39.5 -17.5t13.5 -42.5z" />
<glyph unicode="&#x121;" horiz-adv-x="534" d="M303 496q42 -1 90.5 -10.5t98.5 -32.5l5 -12l-58 -446q-5 -35 -16.5 -73.5t-38.5 -70t-73.5 -52t-121.5 -20.5q-47 0 -90.5 12.5t-69.5 25.5q3 6 7 16.5t8 21.5t8 21.5t7 16.5q32 -14 67.5 -22t66.5 -8q44 0 71.5 13t43.5 36.5t24 56t13 71.5q0 1 2 15.5t4 31.5t4 31.5 l2 14.5q0 1 -4 1q-21 -41 -44.5 -68t-46.5 -43t-46.5 -22.5t-44.5 -6.5q-58 0 -94 41.5t-36 128.5q0 68 16.5 128.5t49 105.5t81.5 71.5t115 26.5zM213 71q18 0 38 10.5t41 34.5t41.5 64.5t39.5 100.5l17 118q-29 11 -51.5 14.5t-39.5 3.5q-45 0 -75 -23.5t-48 -59t-25 -77 t-7 -77.5q0 -56 19 -82.5t50 -26.5zM395 631q-2 -27 -22 -46.5t-47 -19.5q-25 0 -40 17t-13 43q2 27 23 46.5t46 19.5q24 0 39.5 -17.5t13.5 -42.5z" />
<glyph unicode="&#x122;" horiz-adv-x="638" d="M425 698q54 0 98.5 -8t75.5 -20l-20 -171h-79l13 102q-18 5 -43 8.5t-50 3.5q-62 0 -108.5 -25.5t-77 -70.5t-45.5 -106t-15 -133q0 -45 8.5 -81.5t28.5 -63t52.5 -40.5t80.5 -14q23 0 50.5 3.5t50.5 10.5l24 193h-88l8 70h235l-8 -70h-50l-32 -261q-105 -34 -208 -34 q-73 0 -123.5 20.5t-82 57.5t-45.5 88t-14 112q0 43 6.5 91.5t22 96t42 91.5t67 77t96 53t130.5 20zM334 -39q26 0 39.5 -16.5t13.5 -41.5q0 -22 -10 -44t-27 -42t-38.5 -37t-45.5 -28l-20 31q21 16 35 30t21 40q-33 10 -33 45q0 25 18 44t47 19z" />
<glyph unicode="&#x123;" horiz-adv-x="534" d="M303 496q42 -1 90.5 -10.5t98.5 -32.5l5 -12l-58 -446q-5 -35 -16.5 -73.5t-38.5 -70t-73.5 -52t-121.5 -20.5q-47 0 -90.5 12.5t-69.5 25.5q3 6 7 16.5t8 21.5t8 21.5t7 16.5q32 -14 67.5 -22t66.5 -8q44 0 71.5 13t43.5 36.5t24 56t13 71.5q0 1 2 15.5t4 31.5t4 31.5 l2 14.5q0 1 -4 1q-21 -41 -44.5 -68t-46.5 -43t-46.5 -22.5t-44.5 -6.5q-58 0 -94 41.5t-36 128.5q0 68 16.5 128.5t49 105.5t81.5 71.5t115 26.5zM213 71q18 0 38 10.5t41 34.5t41.5 64.5t39.5 100.5l17 118q-29 11 -51.5 14.5t-39.5 3.5q-45 0 -75 -23.5t-48 -59t-25 -77 t-7 -77.5q0 -56 19 -82.5t50 -26.5zM400 621q-1 -26 -19.5 -46t-48.5 -20q-29 0 -42 18.5t-12 44.5q0 23 10.5 46t28 43t40 36.5t46.5 27.5l20 -33q-22 -15 -36.5 -30t-20.5 -42q18 -4 26 -16t8 -29z" />
<glyph unicode="&#x124;" horiz-adv-x="717" d="M419 0l9 76h60l30 245h-292l-30 -245h61l-9 -76h-232l8 76h64l66 535h-64l9 75h232l-9 -75h-61l-26 -215h292l26 215h-60l9 75h233l-9 -75h-64l-66 -535h64l-8 -76h-233zM576 714l-142 100l-166 -100l-25 33l165 146h67l132 -144z" />
<glyph unicode="&#x125;" horiz-adv-x="596" d="M404 500q57 0 79.5 -29t22.5 -79q0 -11 -2 -33t-6 -59.5t-10 -92t-15 -130.5q40 3 79 24l22 -45q-36 -35 -74.5 -52t-66.5 -17q-38 0 -51.5 16.5t-13.5 46.5q0 7 0.5 13.5t1.5 14.5q11 90 17 143.5t9 82t3.5 40t0.5 17.5q0 25 -10 41t-33 16q-17 0 -38.5 -11t-43 -35 t-43 -63t-38.5 -95l-30 -214h-103q5 43 12 97t14 112.5t14.5 119t14 117t12 106t9.5 86.5l-96 15l5 50q42 11 79 16t66 5q32 0 44.5 -10.5t12.5 -33.5q0 -7 -2 -28t-5 -51t-7 -65t-8.5 -69t-8 -63.5t-6.5 -48.5l4 -1q22 42 48 70t52 45t49 24t40 7zM337 745l-142 100 l-166 -100l-25 33l165 146h67l132 -144z" />
<glyph unicode="&#x126;" horiz-adv-x="717" d="M419 0l9 76h60l30 243h-292l-30 -243h61l-9 -76h-232l8 76h64l50 396h-68l7 49h66l11 90h-64l9 75h232l-9 -75h-61l-10 -90h292l10 90h-60l9 75h233l-9 -75h-64l-11 -90h62l-5 -49h-64l-48 -396h64l-8 -76h-233zM526 385l11 87h-292l-11 -87h292z" />
<glyph unicode="&#x127;" horiz-adv-x="596" d="M63 584h68q2 15 3 28.5t3 25.5l-96 15l5 50q42 11 79 16t66 5q32 0 44.5 -10.5t12.5 -33.5q0 -7 -2.5 -33t-7.5 -63h167l-6 -46h-166q-3 -29 -7 -58t-7 -56t-6 -49t-5 -35h4q22 41 48.5 69t52 45t49 24t40.5 7q57 0 79.5 -29t22.5 -78q0 -11 -1.5 -31t-5.5 -54.5 t-9.5 -87t-14.5 -128.5q40 3 79 24l22 -45q-36 -35 -74.5 -52t-66.5 -17q-38 0 -51.5 16.5t-13.5 46.5q0 7 0.5 13.5t1.5 14.5q10 87 16 137.5t8.5 78t3 38t0.5 17.5q0 24 -10 39t-33 15q-17 0 -38.5 -11t-43.5 -35t-43 -63t-39 -95l-26 -199h-103q7 52 15 119.5t17 140 t17 144.5t15 134h-68z" />
<glyph unicode="&#x128;" horiz-adv-x="370" d="M43 0l9 75h63l65 536h-63l9 75h234l-9 -75h-64l-66 -536h64l-8 -75h-234zM314 755q-23 0 -43.5 6t-39 13.5t-35 13.5t-30.5 6l-59 -39l-30 25q20 41 46 61.5t55 20.5q19 0 39 -6t39 -12.5t37 -12.5t33 -6l60 39l27 -26q-17 -38 -42.5 -60.5t-56.5 -22.5z" />
<glyph unicode="&#x129;" horiz-adv-x="324" d="M184 500q32 0 43.5 -10t11.5 -31q0 -3 -3 -30.5t-8 -67t-11 -86t-11 -88t-9 -72t-5 -38.5q41 3 80 24l23 -45q-35 -35 -74 -52t-68 -17q-38 0 -52.5 18t-14.5 46q0 6 0.5 12.5t1.5 13.5l43 336l-85 15l3 51q42 11 76.5 16t58.5 5zM245 576q-23 0 -43.5 6t-39 13.5 t-35 13.5t-30.5 6l-59 -39l-30 25q20 41 46 61.5t55 20.5q19 0 39 -6t39 -12.5t37 -12.5t33 -6l60 39l27 -26q-17 -38 -42.5 -60.5t-56.5 -22.5z" />
<glyph unicode="&#x12a;" horiz-adv-x="370" d="M43 0l9 75h63l65 536h-63l9 75h234l-9 -75h-64l-66 -536h64l-8 -75h-234zM87 823h334l-9 -76h-335z" />
<glyph unicode="&#x12b;" horiz-adv-x="330" d="M184 500q32 0 43.5 -10t11.5 -31q0 -3 -3 -30.5t-8 -67t-11 -86t-11 -88t-9 -72t-5 -38.5q41 3 80 24l23 -45q-35 -35 -74 -52t-68 -17q-38 0 -52.5 18t-14.5 46q0 6 0.5 12.5t1.5 13.5l43 336l-85 15l3 51q42 11 76.5 16t58.5 5zM17 658h328l-10 -75h-327z" />
<glyph unicode="&#x12c;" horiz-adv-x="370" d="M246 734q-27 0 -49.5 10t-41 26.5t-33.5 38t-28 44.5l54 39q24 -40 53.5 -62.5t56.5 -22.5q9 0 22 1.5t31 9t42 23.5t56 44l27 -30q-51 -68 -100.5 -94.5t-89.5 -26.5zM43 0l9 75h63l65 536h-63l9 75h234l-9 -75h-64l-66 -536h64l-8 -75h-234z" />
<glyph unicode="&#x12d;" horiz-adv-x="342" d="M184 500q32 0 43.5 -10t11.5 -31q0 -3 -3 -30.5t-8 -67t-11 -86t-11 -88t-9 -72t-5 -38.5q41 3 80 24l23 -45q-35 -35 -74 -52t-68 -17q-38 0 -52.5 18t-14.5 46q0 6 0.5 12.5t1.5 13.5l43 336l-85 15l3 51q42 11 76.5 16t58.5 5zM167 551q-27 0 -49.5 10t-41 26.5 t-33.5 38t-28 44.5l54 39q24 -41 53.5 -63t56.5 -22q9 0 22 1.5t31 9t42 23t56 44.5l27 -31q-26 -34 -51 -57t-49.5 -37t-47 -20t-42.5 -6z" />
<glyph unicode="&#x12e;" horiz-adv-x="370" d="M181 0q-13 -15 -24.5 -31.5t-20 -33t-13.5 -31.5t-5 -27q0 -22 13.5 -31t36.5 -9q19 0 38.5 3.5t35.5 7.5q2 -10 2.5 -19t1.5 -18q-26 -13 -55.5 -21t-58.5 -8q-43 0 -65 17.5t-22 49.5q0 12 4 29t14 37t27 41.5t44 43.5h-91l9 75h63l65 536h-63l9 75h234l-9 -75h-64 l-66 -536h64l-8 -75h-96z" />
<glyph unicode="&#x12f;" horiz-adv-x="318" d="M184 500q32 0 43.5 -10t11.5 -31q0 -3 -3 -30.5t-8 -67t-11 -86t-11 -88t-9 -72t-5 -38.5q41 3 80 24l23 -45q-22 -21 -45 -35.5t-45 -22.5q-23 -29 -39.5 -61t-16.5 -54t13.5 -31t36.5 -9q19 0 38.5 3.5t35.5 7.5q2 -10 2.5 -19t1.5 -18q-26 -13 -55.5 -21t-58.5 -8 q-43 0 -65 17.5t-22 49.5q0 22 13.5 57.5t54.5 74.5q-33 2 -45.5 20t-12.5 44q0 6 0.5 12.5t1.5 14.5l43 335l-85 15l3 51q42 11 76.5 16t58.5 5zM199 691q24 0 41 -17t17 -43q0 -29 -19 -50t-50 -21q-23 0 -40 16.5t-17 40.5q0 32 19.5 53t48.5 21z" />
<glyph unicode="&#x130;" horiz-adv-x="370" d="M43 0l9 75h63l65 536h-63l9 75h234l-9 -75h-64l-66 -536h64l-8 -75h-234zM320 823q-2 -27 -22 -46.5t-47 -19.5q-25 0 -40 17t-13 43q2 27 23 46.5t46 19.5q24 0 39.5 -17.5t13.5 -42.5z" />
<glyph unicode="&#x131;" horiz-adv-x="318" d="M184 500q32 0 43.5 -10t11.5 -31q0 -3 -3 -30.5t-8 -67t-11 -86t-11 -88t-9 -72t-5 -38.5q41 3 80 24l23 -45q-35 -35 -74 -52t-68 -17q-38 0 -52.5 18t-14.5 46q0 6 0.5 12.5t1.5 13.5l43 336l-85 15l3 51q42 11 76.5 16t58.5 5z" />
<glyph unicode="&#x132;" horiz-adv-x="745" d="M43 0l9 75h63l65 536h-63l9 75h234l-9 -75h-64l-66 -536h64l-8 -75h-234zM472 686h293l-9 -75h-87l-58 -466q-8 -67 -27.5 -120.5t-53.5 -93.5t-85 -67t-122 -42l-18 73q57 21 93 45t57.5 53t31.5 64.5t16 78.5l59 475h-99z" />
<glyph unicode="&#x133;" horiz-adv-x="583" d="M184 500q32 0 43.5 -10t11.5 -31q0 -3 -3 -30.5t-8 -67t-11 -86t-11 -88t-9 -72t-5 -38.5q41 3 80 24l23 -45q-35 -35 -74 -52t-68 -17q-38 0 -52.5 18t-14.5 46q0 6 0.5 12.5t1.5 14.5l43 335l-85 15l3 51q42 11 76.5 16t58.5 5zM199 691q24 0 41 -17t17 -43 q0 -29 -19 -50t-50 -21q-23 0 -40 16.5t-17 40.5q0 32 19.5 53t48.5 21zM471 500q32 0 45 -10t13 -31q0 -2 -2.5 -25.5t-6 -59t-8.5 -78t-9.5 -82.5t-8 -73t-5.5 -49q-7 -62 -21.5 -114t-41.5 -92.5t-68.5 -68t-102.5 -40.5l-17 64q44 19 70.5 44t42 56t22 67t11.5 77 l35 328l-86 15l5 51q84 21 133 21zM487 691q24 0 41 -17t17 -43q0 -29 -19 -50t-50 -21q-23 0 -40 16.5t-17 40.5q0 32 19.5 53t48.5 21z" />
<glyph unicode="&#x134;" horiz-adv-x="412" d="M107 687h293l-9 -75h-87l-58 -466q-8 -67 -27.5 -120.5t-53.5 -93.5t-85 -67t-122 -42l-18 73q57 21 93 45t57.5 53t31.5 64.5t16 78.5l59 475h-99zM411 714l-142 100l-166 -100l-25 33l165 146h67l132 -144z" />
<glyph unicode="&#x135;" horiz-adv-x="330" d="M179 500q32 0 45 -10t13 -31q0 -2 -2.5 -25.5t-6 -59t-8.5 -78t-9.5 -82.5t-8 -73t-5.5 -49q-7 -62 -21.5 -114t-41.5 -92.5t-68.5 -68t-102.5 -40.5l-17 64q44 19 70.5 44t42 56t22 67t11.5 77l35 328l-85 15l4 51q84 21 133 21zM325 533l-142 101l-166 -100l-24 33 l164 145h67l131 -144z" />
<glyph unicode="&#x136;" horiz-adv-x="657" d="M385 413l191 -336h56l-9 -77h-227l9 77h60l-157 275l-91 -79l-24 -197h61l-9 -76h-229l8 76h64l66 535h-64l9 74h231l-9 -74h-63l-27 -231l268 230h-56l9 75h227l-9 -75h-57zM320 -39q26 0 39.5 -16.5t13.5 -41.5q0 -22 -10 -44t-27 -42t-38.5 -37t-45.5 -28l-20 31 q21 16 35 30t21 40q-33 10 -33 45q0 25 18 44t47 19z" />
<glyph unicode="&#x137;" horiz-adv-x="499" d="M414 500q30 0 48 -18t26 -45l-35 -36q-30 16 -56 16q-21 0 -40 -8t-36 -21.5t-32 -31t-30 -35.5q16 -34 36.5 -73.5t41 -75.5t37 -64t25.5 -37q24 7 41 17.5t31 20.5l29 -37q-40 -51 -72 -68t-52 -17q-24 0 -43 14t-39 44t-43 78.5t-54 117.5q-10 -14 -16.5 -23.5 t-12 -18.5t-10 -19t-10.5 -23q-6 -39 -11 -76.5t-10 -80.5h-102q23 162 44.5 321.5t39.5 318.5l-87 11l3 50q39 11 76.5 18.5t66.5 7.5t41.5 -13.5t10.5 -36.5q-12 -97 -26 -190.5t-27 -190.5h3q23 37 52 73.5t61 65.5t65.5 47t65.5 18zM227 -39q26 0 39.5 -16.5t13.5 -41.5 q0 -22 -10 -44t-27 -42t-38.5 -37t-45.5 -28l-20 31q21 16 35 30t21 40q-33 10 -33 45q0 25 18 44t47 19z" />
<glyph unicode="&#x138;" horiz-adv-x="538" d="M452 500q30 0 48 -18t26 -45l-35 -36q-30 16 -56 16q-21 0 -40 -8t-36 -21.5t-32 -31t-30 -35.5q16 -34 36.5 -73.5t41 -75.5t37 -64t25.5 -37q24 7 41 17.5t31 20.5l29 -37q-40 -51 -72 -68t-52 -17q-24 0 -43 14t-39 44t-43 78.5t-54 117.5q-10 -14 -16.5 -23.5 t-12 -18.5t-10 -19t-10.5 -23q-3 -19 -5.5 -36.5t-4.5 -35.5t-5 -39t-6 -46h-102q6 45 14 106t15.5 121.5t14 111.5t9.5 75l-87 11l3 50q39 11 77.5 18.5t67.5 7.5t40.5 -13.5t9.5 -36.5q-1 -10 -3 -27t-5 -38t-7 -44t-7 -46h3q23 37 52 73.5t61 65.5t65.5 47t65.5 18z" />
<glyph unicode="&#x139;" horiz-adv-x="567" d="M16 0l8 75h67l65 536h-63l8 74h243l-10 -74h-70l-67 -536h261l15 124h80l-24 -199h-513zM219 726l-27 43l182 127l43 -71z" />
<glyph unicode="&#x13a;" horiz-adv-x="300" d="M190 725q30 0 43 -9.5t13 -31.5q0 -12 -4 -52.5t-11 -96t-15 -121.5t-16.5 -129.5t-15.5 -118.5t-11 -89q41 3 80 24l23 -45q-35 -35 -73.5 -52t-67.5 -17q-37 0 -52 16t-15 47q0 7 0.5 13.5t1.5 14.5l68 561l-96 15l3 50q43 11 81.5 16t63.5 5zM155 750l-27 43l182 127 l43 -71z" />
<glyph unicode="&#x13b;" horiz-adv-x="567" d="M16 0l8 75h67l65 536h-63l8 74h243l-10 -74h-70l-67 -536h261l15 124h80l-24 -199h-513zM274 -39q26 0 39.5 -16.5t13.5 -41.5q0 -22 -10 -44t-27 -42t-38.5 -37t-45.5 -28l-20 31q21 16 35 30t21 40q-33 10 -33 45q0 25 18 44t47 19z" />
<glyph unicode="&#x13c;" horiz-adv-x="300" d="M190 725q30 0 43 -9.5t13 -31.5q0 -12 -4 -52.5t-11 -96t-15 -121.5t-16.5 -129.5t-15.5 -118.5t-11 -89q41 3 80 24l23 -45q-35 -35 -73.5 -52t-67.5 -17q-37 0 -52 16t-15 47q0 7 0.5 13.5t1.5 14.5l68 561l-96 15l3 50q43 11 81.5 16t63.5 5zM124 -39q26 0 39.5 -16.5 t13.5 -41.5q0 -22 -10 -44t-27 -42t-38.5 -37t-45.5 -28l-20 31q21 16 35 30t21 40q-33 10 -33 45q0 25 18 44t47 19z" />
<glyph unicode="&#x13d;" horiz-adv-x="567" d="M16 0l8 75h67l65 536h-63l8 74h243l-10 -74h-70l-67 -536h261l15 124h80l-24 -199h-513zM496 682q26 0 39.5 -16.5t13.5 -41.5q0 -22 -10 -44t-27 -42t-38.5 -37t-45.5 -28l-20 31q21 16 35 30t21 40q-33 10 -33 45q0 25 18 44t47 19z" />
<glyph unicode="&#x13e;" horiz-adv-x="412" d="M373 727q26 0 39.5 -16.5t13.5 -41.5q0 -22 -10 -44t-27 -42t-38.5 -37t-45.5 -28l-20 31q21 16 35 30t21 40q-33 10 -33 45q0 25 18 44t47 19zM190 725q30 0 43 -9.5t13 -31.5q0 -12 -4 -52.5t-11 -96t-15 -121.5t-16.5 -129.5t-15.5 -118.5t-11 -89q41 3 80 24l23 -45 q-35 -35 -73.5 -52t-67.5 -17q-37 0 -52 16t-15 47q0 7 0.5 13.5t1.5 14.5l68 561l-96 15l3 50q43 11 81.5 16t63.5 5z" />
<glyph unicode="&#x13f;" horiz-adv-x="567" d="M16 0l8 75h67l65 536h-63l8 74h243l-10 -74h-70l-67 -536h261l15 124h80l-24 -199h-513zM495 402q-2 -27 -22 -46.5t-47 -19.5q-25 0 -40 17t-13 43q2 27 23 46.5t46 19.5q24 0 39.5 -17.5t13.5 -42.5z" />
<glyph unicode="&#x140;" horiz-adv-x="368" d="M387 363q-2 -27 -22 -46.5t-47 -19.5q-25 0 -40 17t-13 43q2 27 23 46.5t46 19.5q24 0 39.5 -17.5t13.5 -42.5zM190 725q30 0 43 -9.5t13 -31.5q0 -12 -4 -52.5t-11 -96t-15 -121.5t-16.5 -129.5t-15.5 -118.5t-11 -89q41 3 80 24l23 -45q-35 -35 -73.5 -52t-67.5 -17 q-37 0 -52 16t-15 47q0 7 0.5 13.5t1.5 14.5l68 561l-96 15l3 50q43 11 81.5 16t63.5 5z" />
<glyph unicode="&#x141;" horiz-adv-x="567" d="M16 0l8 75h67l19 158l-69 -38l-23 48l100 56l38 312h-63l8 74h243l-10 -74h-70l-31 -249l119 66l24 -47l-150 -83l-29 -223h261l15 124h80l-24 -199h-513z" />
<glyph unicode="&#x142;" horiz-adv-x="300" d="M190 725q30 0 43 -9.5t13 -31.5q0 -9 -2.5 -34t-6.5 -61.5t-9.5 -81.5t-11.5 -93l88 48l24 -47l-121 -66q-11 -82 -20 -155t-14 -117q41 3 80 24l23 -45q-35 -35 -73.5 -52t-67.5 -17q-37 0 -52 16t-15 47q0 7 0.5 13.5t1.5 14.5l24 207l-83 -46l-23 48l114 64l36 288 l-96 15l3 50q43 11 81.5 16t63.5 5z" />
<glyph unicode="&#x143;" horiz-adv-x="747" d="M536 165q14 112 27.5 222.5t27.5 222.5h-67l9 75h231q-3 -19 -5 -37.5t-4 -37.5h-64q-19 -154 -37 -305.5t-38 -304.5h-102q-57 112 -108 218.5t-110 218.5q-12 25 -24.5 49.5t-23.5 50.5q-1 0 -1.5 -0.5t-1.5 -0.5l-57 -461h68l-9 -75h-233q3 19 5 37.5t4 37.5h66 q16 135 32.5 267.5t33.5 267.5h-66l9 75h180q45 -91 93.5 -190.5t107.5 -220.5l52 -109h5zM387 726l-27 43l182 127l43 -71z" />
<glyph unicode="&#x144;" horiz-adv-x="601" d="M417 499q57 0 78.5 -33t21.5 -86q0 -21 -8.5 -95.5t-23.5 -207.5q20 1 38 6.5t38 16.5q5 -7 12 -22t11 -23q-19 -18 -39 -30.5t-39.5 -20.5t-37 -12t-30.5 -4q-35 0 -46.5 15.5t-11.5 44.5q0 5 1 18t2 21q12 118 20 188.5t8 87.5q0 23 -10 38.5t-33 15.5 q-18 0 -39.5 -11.5t-43.5 -36.5t-43 -64.5t-38 -94.5l-29 -210h-102q8 64 15 117t13 101.5t11.5 95t11.5 98.5l-92 15l3 51q43 11 77 16t63 5q32 0 42.5 -10.5t10.5 -34.5q0 -19 -3.5 -47t-8.5 -61h4q23 45 50.5 74.5t54.5 47t51 24.5t41 7zM287 539l-36 35l144 172l57 -60z " />
<glyph unicode="&#x145;" horiz-adv-x="747" d="M536 165q14 112 27.5 222.5t27.5 222.5h-67l9 75h231q-3 -19 -5 -37.5t-4 -37.5h-64q-19 -154 -37 -305.5t-38 -304.5h-102q-57 112 -108 218.5t-110 218.5q-12 25 -24.5 49.5t-23.5 50.5q-1 0 -1.5 -0.5t-1.5 -0.5l-57 -461h68l-9 -75h-233q3 19 5 37.5t4 37.5h66 q16 135 32.5 267.5t33.5 267.5h-66l9 75h180q45 -91 93.5 -190.5t107.5 -220.5l52 -109h5zM353 -39q26 0 39.5 -16.5t13.5 -41.5q0 -22 -10 -44t-27 -42t-38.5 -37t-45.5 -28l-20 31q21 16 35 30t21 40q-33 10 -33 45q0 25 18 44t47 19z" />
<glyph unicode="&#x146;" horiz-adv-x="601" d="M417 499q57 0 78.5 -33t21.5 -86q0 -21 -8.5 -95.5t-23.5 -207.5q20 1 38 6.5t38 16.5q5 -7 12 -22t11 -23q-19 -18 -39 -30.5t-39.5 -20.5t-37 -12t-30.5 -4q-35 0 -46.5 15.5t-11.5 44.5q0 5 1 18t2 21q12 118 20 188.5t8 87.5q0 23 -10 38.5t-33 15.5 q-18 0 -39.5 -11.5t-43.5 -36.5t-43 -64.5t-38 -94.5l-29 -210h-102q8 64 15 117t13 101.5t11.5 95t11.5 98.5l-92 15l3 51q43 11 77 16t63 5q32 0 42.5 -10.5t10.5 -34.5q0 -19 -3.5 -47t-8.5 -61h4q23 45 50.5 74.5t54.5 47t51 24.5t41 7zM280 -39q26 0 39.5 -16.5 t13.5 -41.5q0 -22 -10 -44t-27 -42t-38.5 -37t-45.5 -28l-20 31q21 16 35 30t21 40q-33 10 -33 45q0 25 18 44t47 19z" />
<glyph unicode="&#x147;" horiz-adv-x="747" d="M536 165q14 112 27.5 222.5t27.5 222.5h-67l9 75h231q-3 -19 -5 -37.5t-4 -37.5h-64q-19 -154 -37 -305.5t-38 -304.5h-102q-57 112 -108 218.5t-110 218.5q-12 25 -24.5 49.5t-23.5 50.5q-1 0 -1.5 -0.5t-1.5 -0.5l-57 -461h68l-9 -75h-233q3 19 5 37.5t4 37.5h66 q16 135 32.5 267.5t33.5 267.5h-66l9 75h180q45 -91 93.5 -190.5t107.5 -220.5l52 -109h5zM620 867l-166 -136h-66l-129 139l29 32l142 -92l167 92z" />
<glyph unicode="&#x148;" horiz-adv-x="601" d="M417 499q57 0 78.5 -33t21.5 -86q0 -21 -8.5 -95.5t-23.5 -207.5q20 1 38 6.5t38 16.5q5 -7 12 -22t11 -23q-19 -18 -39 -30.5t-39.5 -20.5t-37 -12t-30.5 -4q-35 0 -46.5 15.5t-11.5 44.5q0 5 1 18t2 21q12 118 20 188.5t8 87.5q0 23 -10 38.5t-33 15.5 q-18 0 -39.5 -11.5t-43.5 -36.5t-43 -64.5t-38 -94.5l-29 -210h-102q8 64 15 117t13 101.5t11.5 95t11.5 98.5l-92 15l3 51q43 11 77 16t63 5q32 0 42.5 -10.5t10.5 -34.5q0 -19 -3.5 -47t-8.5 -61h4q23 45 50.5 74.5t54.5 47t51 24.5t41 7zM501 692l-166 -144h-67l-129 145 l30 33l141 -100l167 99z" />
<glyph unicode="&#x149;" horiz-adv-x="690" d="M506 499q57 0 78.5 -33t21.5 -86q0 -21 -8.5 -95.5t-23.5 -207.5q20 1 38 6.5t38 16.5q5 -7 12 -22t11 -23q-19 -18 -39 -30.5t-39.5 -20.5t-37 -12t-30.5 -4q-35 0 -46.5 15.5t-11.5 44.5q0 5 1 18t2 21q12 118 20 188.5t8 87.5q0 23 -10 38.5t-33 15.5 q-18 0 -39.5 -11.5t-43.5 -36.5t-43 -64.5t-38 -94.5l-29 -210h-102q8 64 15 117t13 101.5t11.5 95t11.5 98.5l-92 15l3 51q43 11 77 16t63 5q32 0 42.5 -10.5t10.5 -34.5q0 -19 -3.5 -47t-8.5 -61h4q23 45 50.5 74.5t54.5 47t51 24.5t41 7zM76 676q26 0 39.5 -16.5 t13.5 -41.5q0 -22 -10 -44t-27 -42t-38.5 -37t-45.5 -28l-20 31q21 16 35 30t21 40q-33 10 -33 45q0 25 18 44t47 19z" />
<glyph unicode="&#x14a;" horiz-adv-x="747" d="M349 -112q32 -3 60 -4.5t50 4t36 20.5t18 45l6 47q-9 18 -28.5 55.5t-44 86t-52 103.5t-54.5 108l-94 184h-3l-55 -462h68l-9 -75h-233q3 19 5 37.5t4 37.5h66q16 135 31.5 267.5t32.5 267.5h-66q3 19 4.5 37.5t4.5 37.5h176q10 -19 30.5 -59.5t46.5 -91t54 -107 t54 -107.5t46 -91.5t29 -59.5h4q13 111 26 220.5t27 220.5h-66q2 19 4 37.5t4 37.5h231q-3 -38 -9 -75h-63l-77 -653q-10 -83 -52.5 -119.5t-122.5 -36.5q-23 0 -50.5 3.5t-55.5 8.5z" />
<glyph unicode="&#x14b;" horiz-adv-x="560" d="M477 9q-5 -39 -17.5 -71.5t-35 -56t-56.5 -37t-81 -13.5q-20 0 -45.5 3.5t-45.5 8.5l12 71q16 -2 33 -3t30 -1q45 0 69.5 20t30.5 69q12 105 20 172.5t12.5 107.5t6.5 58.5t2 26.5q0 26 -10 39.5t-33 13.5q-18 0 -39.5 -11.5t-43.5 -36t-43 -64t-39 -94.5l-28 -211h-103 q9 64 15.5 117.5t12.5 102t11.5 95t11.5 98.5l-92 15l3 50q43 12 77 17t63 5q32 0 43 -11t11 -31q0 -17 -4 -46t-9 -66h5q23 45 50.5 75t54.5 47.5t51 24.5t41 7q53 0 76 -26t23 -83q0 -14 -9 -104t-31 -278z" />
<glyph unicode="&#x14c;" horiz-adv-x="684" d="M398 697q72 0 121 -22t79 -61t43.5 -91t13.5 -112q0 -88 -21.5 -164.5t-63.5 -133.5t-103.5 -89.5t-141.5 -32.5q-70 0 -120 19.5t-82 55.5t-47 87t-15 114q0 81 19.5 158.5t60.5 138t104.5 97t152.5 36.5zM395 617q-64 0 -106.5 -32t-68.5 -82.5t-37 -113t-11 -124.5 q0 -95 37 -144t121 -49q57 0 97.5 28t66 75.5t37.5 109.5t12 130q0 40 -6.5 76.5t-23 64.5t-45 44.5t-73.5 16.5zM256 823h334l-9 -76h-335z" />
<glyph unicode="&#x14d;" horiz-adv-x="521" d="M296 499q53 0 90 -16t60.5 -44t34 -65t10.5 -79q0 -51 -13 -104.5t-43 -98t-79.5 -72.5t-122.5 -28q-54 0 -90.5 15t-59.5 41.5t-33 62.5t-10 78q0 55 14.5 110.5t45 100t79 72t117.5 27.5zM291 420q-45 0 -73.5 -25t-45 -61.5t-22.5 -78.5t-6 -75q0 -23 4.5 -43t16 -36 t30.5 -25t48 -9q43 0 70.5 23.5t43.5 58.5t22 75t6 72q0 25 -4.5 47.5t-15 39.5t-28.5 27t-46 10zM156 658h328l-10 -75h-327z" />
<glyph unicode="&#x14e;" horiz-adv-x="684" d="M398 697q72 0 121 -22t79 -61t43.5 -91t13.5 -112q0 -88 -21.5 -164.5t-63.5 -133.5t-103.5 -89.5t-141.5 -32.5q-70 0 -120 19.5t-82 55.5t-47 87t-15 114q0 81 19.5 158.5t60.5 138t104.5 97t152.5 36.5zM395 617q-64 0 -106.5 -32t-68.5 -82.5t-37 -113t-11 -124.5 q0 -95 37 -144t121 -49q57 0 97.5 28t66 75.5t37.5 109.5t12 130q0 40 -6.5 76.5t-23 64.5t-45 44.5t-73.5 16.5zM417 731q-27 0 -49.5 10t-41 26.5t-33.5 38t-28 44.5l54 39q24 -40 53.5 -62.5t56.5 -22.5q9 0 22 1.5t31 9t42 23.5t56 44l27 -30q-51 -68 -100.5 -94.5 t-89.5 -26.5z" />
<glyph unicode="&#x14f;" horiz-adv-x="521" d="M296 499q53 0 90 -16t60.5 -44t34 -65t10.5 -79q0 -51 -13 -104.5t-43 -98t-79.5 -72.5t-122.5 -28q-54 0 -90.5 15t-59.5 41.5t-33 62.5t-10 78q0 55 14.5 110.5t45 100t79 72t117.5 27.5zM291 420q-45 0 -73.5 -25t-45 -61.5t-22.5 -78.5t-6 -75q0 -23 4.5 -43t16 -36 t30.5 -25t48 -9q43 0 70.5 23.5t43.5 58.5t22 75t6 72q0 25 -4.5 47.5t-15 39.5t-28.5 27t-46 10zM306 551q-27 0 -49.5 10t-41 26.5t-33.5 38t-28 44.5l54 39q24 -41 53.5 -63t56.5 -22q9 0 22 1.5t31 9t42 23t56 44.5l27 -31q-26 -34 -51 -57t-49.5 -37t-47 -20t-42.5 -6z " />
<glyph unicode="&#x150;" horiz-adv-x="684" d="M398 697q72 0 121 -22t79 -61t43.5 -91t13.5 -112q0 -88 -21.5 -164.5t-63.5 -133.5t-103.5 -89.5t-141.5 -32.5q-70 0 -120 19.5t-82 55.5t-47 87t-15 114q0 81 19.5 158.5t60.5 138t104.5 97t152.5 36.5zM395 617q-64 0 -106.5 -32t-68.5 -82.5t-37 -113t-11 -124.5 q0 -95 37 -144t121 -49q57 0 97.5 28t66 75.5t37.5 109.5t12 130q0 40 -6.5 76.5t-23 64.5t-45 44.5t-73.5 16.5zM495 727l-33 36l164 150l54 -63zM351 727l-33 36l165 150l53 -63z" />
<glyph unicode="&#x151;" horiz-adv-x="521" d="M296 499q53 0 90 -16t60.5 -44t34 -65t10.5 -79q0 -51 -13 -104.5t-43 -98t-79.5 -72.5t-122.5 -28q-54 0 -90.5 15t-59.5 41.5t-33 62.5t-10 78q0 55 14.5 110.5t45 100t79 72t117.5 27.5zM291 420q-45 0 -73.5 -25t-45 -61.5t-22.5 -78.5t-6 -75q0 -23 4.5 -43t16 -36 t30.5 -25t48 -9q43 0 70.5 23.5t43.5 58.5t22 75t6 72q0 25 -4.5 47.5t-15 39.5t-28.5 27t-46 10zM222 538l-38 34l140 175l61 -57zM358 538l-37 34l140 175l60 -57z" />
<glyph unicode="&#x152;" horiz-adv-x="826" d="M396 697q26 0 50.5 -3.5t45.5 -9.5h348q-5 -44 -10.5 -86.5t-10.5 -86.5h-78q3 25 5.5 49.5t6.5 49.5h-232l-27 -217q54 1 108 1.5t108 2.5l-9 -78q-54 1 -107.5 1.5t-107.5 0.5l-30 -246h248l13 102h80q-5 -45 -10.5 -89t-10.5 -88h-380q-19 -3 -37.5 -5t-38.5 -2 q-70 0 -120 19t-81.5 54.5t-46 86t-14.5 113.5q0 82 19.5 159.5t60.5 138t105 97t153 36.5zM325 71h12t11 1l68 542q-6 1 -11.5 1.5t-13.5 0.5q-64 0 -107 -32.5t-69 -83.5t-37 -114.5t-11 -125.5q0 -92 37 -140.5t121 -48.5z" />
<glyph unicode="&#x153;" horiz-adv-x="822" d="M651 500q71 0 108 -35.5t37 -90.5q0 -85 -81 -129.5t-229 -49.5q-1 -5 -1 -11v-11q0 -19 4 -38t15 -34.5t30.5 -25t51.5 -9.5q37 0 74 9.5t74 23.5q2 -5 4.5 -12.5l5.5 -16.5t6 -17t5 -13q-36 -22 -88.5 -34.5t-103.5 -12.5q-64 0 -99 24t-52 62q-29 -37 -73.5 -61.5 t-105.5 -24.5q-56 0 -93 15t-59 41t-31.5 62t-9.5 78q0 55 14 110.5t44.5 99.5t79 71.5t116.5 27.5q63 0 103 -25.5t60 -66.5q31 42 77 68t117 26zM291 420q-45 0 -73.5 -25t-45 -61.5t-22.5 -78.5t-6 -75q0 -23 4.5 -43t16 -36t30.5 -25t48 -9q43 0 70.5 23.5t43.5 58.5 t22 75t6 72q0 25 -4.5 47.5t-15 39.5t-28.5 27t-46 10zM638 423q-67 0 -103 -47t-44 -127q101 5 157 32.5t56 80.5q0 27 -16.5 44t-49.5 17z" />
<glyph unicode="&#x154;" horiz-adv-x="629" d="M259 611l-29 -244h117q24 0 48 6.5t43.5 22.5t31.5 42.5t12 66.5q0 57 -28 81.5t-76 24.5h-119zM220 294l-26 -219h75l-9 -75h-243l8 75h63l65 536h-61l9 75h304q94 0 141.5 -44t47.5 -127q0 -31 -7.5 -62.5t-24.5 -59.5t-44.5 -49.5t-67.5 -32.5l76 -236l74 -10l3 -60 q-11 -4 -26 -7t-29.5 -5t-28 -3t-21.5 -1q-35 0 -49 16t-24 46l-75 243h-130zM325 726l-27 43l182 127l43 -71z" />
<glyph unicode="&#x155;" horiz-adv-x="441" d="M177 499q32 0 43 -10.5t11 -35.5q0 -17 -3.5 -43.5t-8.5 -59.5h3q18 49 37.5 78.5t39 45.5t38 21t35.5 5q35 0 53 -20t20 -47l-45 -52q-17 9 -31.5 11.5t-26.5 2.5q-40 0 -78 -52t-64 -158q-8 -57 -13 -100t-11 -85h-101q14 115 27.5 219t24.5 193l-84 15q0 8 1 25.5 t2 25.5q43 11 72.5 16t58.5 5zM253 539l-36 35l144 172l57 -60z" />
<glyph unicode="&#x156;" horiz-adv-x="629" d="M259 611l-29 -244h117q24 0 48 6.5t43.5 22.5t31.5 42.5t12 66.5q0 57 -28 81.5t-76 24.5h-119zM220 294l-26 -219h75l-9 -75h-243l8 75h63l65 536h-61l9 75h304q94 0 141.5 -44t47.5 -127q0 -31 -7.5 -62.5t-24.5 -59.5t-44.5 -49.5t-67.5 -32.5l76 -236l74 -10l3 -60 q-11 -4 -26 -7t-29.5 -5t-28 -3t-21.5 -1q-35 0 -49 16t-24 46l-75 243h-130zM326 -39q26 0 39.5 -16.5t13.5 -41.5q0 -22 -10 -44t-27 -42t-38.5 -37t-45.5 -28l-20 31q21 16 35 30t21 40q-33 10 -33 45q0 25 18 44t47 19z" />
<glyph unicode="&#x157;" horiz-adv-x="441" d="M177 499q32 0 43 -10.5t11 -35.5q0 -17 -3.5 -43.5t-8.5 -59.5h3q18 49 37.5 78.5t39 45.5t38 21t35.5 5q35 0 53 -20t20 -47l-45 -52q-17 9 -31.5 11.5t-26.5 2.5q-40 0 -78 -52t-64 -158q-8 -57 -13 -100t-11 -85h-101q14 115 27.5 219t24.5 193l-84 15q0 8 1 25.5 t2 25.5q43 11 72.5 16t58.5 5zM118 -39q26 0 39.5 -16.5t13.5 -41.5q0 -22 -10 -44t-27 -42t-38.5 -37t-45.5 -28l-20 31q21 16 35 30t21 40q-33 10 -33 45q0 25 18 44t47 19z" />
<glyph unicode="&#x158;" horiz-adv-x="629" d="M259 611l-29 -244h117q24 0 48 6.5t43.5 22.5t31.5 42.5t12 66.5q0 57 -28 81.5t-76 24.5h-119zM220 294l-26 -219h75l-9 -75h-243l8 75h63l65 536h-61l9 75h304q94 0 141.5 -44t47.5 -127q0 -31 -7.5 -62.5t-24.5 -59.5t-44.5 -49.5t-67.5 -32.5l76 -236l74 -10l3 -60 q-11 -4 -26 -7t-29.5 -5t-28 -3t-21.5 -1q-35 0 -49 16t-24 46l-75 243h-130zM550 867l-166 -136h-66l-129 139l29 32l142 -92l167 92z" />
<glyph unicode="&#x159;" horiz-adv-x="441" d="M177 499q32 0 43 -10.5t11 -35.5q0 -17 -3.5 -43.5t-8.5 -59.5h3q18 49 37.5 78.5t39 45.5t38 21t35.5 5q35 0 53 -20t20 -47l-45 -52q-17 9 -31.5 11.5t-26.5 2.5q-40 0 -78 -52t-64 -158q-8 -57 -13 -100t-11 -85h-101q14 115 27.5 219t24.5 193l-84 15q0 8 1 25.5 t2 25.5q43 11 72.5 16t58.5 5zM438 692l-166 -144h-67l-129 145l30 33l141 -100l167 99z" />
<glyph unicode="&#x15a;" horiz-adv-x="558" d="M331 615q-29 0 -54 -7.5t-44 -22t-30 -36.5t-11 -52q0 -23 11.5 -39t30.5 -28t43 -21t48 -16q38 -11 74 -23.5t63.5 -32t44.5 -49.5t17 -77q0 -58 -22 -99.5t-60.5 -68.5t-91 -39.5t-112.5 -12.5q-53 0 -112 11.5t-106 40.5l17 144h79l-12 -85q31 -15 68 -21t67 -6 q78 0 123 31.5t45 89.5q0 27 -10 45t-29.5 30.5t-47.5 21.5t-63 18q-39 11 -71.5 25t-56 33.5t-36.5 47t-13 66.5q0 52 19.5 92t53.5 67t80 40.5t99 13.5q20 0 45.5 -2t51.5 -7t51.5 -13t46.5 -20l-18 -144h-79l12 86q-29 11 -57 15t-54 4zM295 724l-27 43l182 127l43 -71z " />
<glyph unicode="&#x15b;" horiz-adv-x="455" d="M192 -8q-82 0 -123.5 19.5t-41.5 53.5q0 20 10.5 50t26.5 56l51 -2l-4 -96q15 -7 36 -10.5t42 -3.5q22 0 43.5 4.5t38 14t26.5 24t10 35.5q0 17 -9 29t-23.5 22t-33 18t-38.5 16q-30 13 -56 26.5t-45.5 29t-30.5 35t-11 43.5q0 36 16 63.5t44 45.5t64.5 27t77.5 9 q27 0 53.5 -4.5t48.5 -13t35.5 -21t13.5 -29.5q0 -9 -3.5 -23t-9 -29t-12 -30t-13.5 -27l-49 3l4 91q-26 14 -67 14q-18 0 -35.5 -3.5t-31 -11.5t-21.5 -21.5t-8 -32.5q0 -14 10 -26t25.5 -21.5t34.5 -18t36 -15.5q26 -11 50.5 -23.5t44 -29t32 -38t12.5 -49.5 q0 -37 -17 -65t-46.5 -47t-70 -28.5t-86.5 -9.5zM239 539l-36 35l144 172l57 -60z" />
<glyph unicode="&#x15c;" horiz-adv-x="558" d="M331 615q-29 0 -54 -7.5t-44 -22t-30 -36.5t-11 -52q0 -23 11.5 -39t30.5 -28t43 -21t48 -16q38 -11 74 -23.5t63.5 -32t44.5 -49.5t17 -77q0 -58 -22 -99.5t-60.5 -68.5t-91 -39.5t-112.5 -12.5q-53 0 -112 11.5t-106 40.5l17 144h79l-12 -85q31 -15 68 -21t67 -6 q78 0 123 31.5t45 89.5q0 27 -10 45t-29.5 30.5t-47.5 21.5t-63 18q-39 11 -71.5 25t-56 33.5t-36.5 47t-13 66.5q0 52 19.5 92t53.5 67t80 40.5t99 13.5q20 0 45.5 -2t51.5 -7t51.5 -13t46.5 -20l-18 -144h-79l12 86q-29 11 -57 15t-54 4zM492 714l-142 100l-166 -100 l-25 33l165 146h67l132 -144z" />
<glyph unicode="&#x15d;" horiz-adv-x="455" d="M192 -8q-82 0 -123.5 19.5t-41.5 53.5q0 20 10.5 50t26.5 56l51 -2l-4 -96q15 -7 36 -10.5t42 -3.5q22 0 43.5 4.5t38 14t26.5 24t10 35.5q0 17 -9 29t-23.5 22t-33 18t-38.5 16q-30 13 -56 26.5t-45.5 29t-30.5 35t-11 43.5q0 36 16 63.5t44 45.5t64.5 27t77.5 9 q27 0 53.5 -4.5t48.5 -13t35.5 -21t13.5 -29.5q0 -9 -3.5 -23t-9 -29t-12 -30t-13.5 -27l-49 3l4 91q-26 14 -67 14q-18 0 -35.5 -3.5t-31 -11.5t-21.5 -21.5t-8 -32.5q0 -14 10 -26t25.5 -21.5t34.5 -18t36 -15.5q26 -11 50.5 -23.5t44 -29t32 -38t12.5 -49.5 q0 -37 -17 -65t-46.5 -47t-70 -28.5t-86.5 -9.5zM415 533l-142 101l-166 -100l-24 33l164 145h67l131 -144z" />
<glyph unicode="&#x15e;" horiz-adv-x="558" d="M331 615q-29 0 -54 -7.5t-44 -22t-30 -36.5t-11 -52q0 -23 11.5 -39t30.5 -28t43 -21t48 -16q38 -11 74 -23.5t63.5 -32t44.5 -49.5t17 -77q0 -52 -18 -91t-50 -65.5t-76 -42t-95 -19.5l-45 -52q44 -4 69 -22t25 -51q0 -21 -10.5 -41.5t-34 -37t-60 -27.5t-88.5 -11 q0 11 0.5 22t0.5 22q55 5 89 20.5t34 41.5q0 11 -9 17.5t-22.5 10t-29 4.5t-29.5 1l-11 22q17 20 34 39.5t34 39.5q-26 0 -54 3t-55.5 9t-54 16t-48.5 24l17 144h79l-12 -85q31 -15 68 -21t67 -6q78 0 123 31.5t45 89.5q0 27 -10 45t-29.5 30.5t-47.5 21.5t-63 18 q-39 11 -71.5 25t-56 33.5t-36.5 47t-13 66.5q0 52 19.5 92t53.5 67t80 40.5t99 13.5q20 0 45.5 -2t51.5 -7t51.5 -13t46.5 -20l-18 -144h-79l12 86q-29 11 -57 15t-54 4z" />
<glyph unicode="&#x15f;" horiz-adv-x="455" d="M412 142q0 -33 -14 -59.5t-38.5 -45t-58.5 -29.5t-74 -14l-45 -53q44 -4 69 -22t25 -51q0 -21 -10.5 -41.5t-34 -37t-60 -27.5t-88.5 -11q0 11 0.5 22t0.5 22q55 5 89 20.5t34 41.5q0 11 -9 17.5t-22.5 10t-29 4.5t-29.5 1l-11 22l34 40t35 40q-74 2 -111 21.5t-37 51.5 q0 20 10.5 50t26.5 56l51 -2l-4 -96q15 -7 36 -10.5t42 -3.5q22 0 43.5 4.5t38 14t26.5 24t10 35.5q0 17 -9 29t-23.5 22t-33 18t-38.5 16q-30 13 -56 26.5t-45.5 29t-30.5 35t-11 43.5q0 36 16 63.5t44 45.5t64.5 27t77.5 9q27 0 53.5 -4.5t48.5 -13t35.5 -21t13.5 -29.5 q0 -9 -3.5 -23t-9 -29t-12 -30t-13.5 -27l-49 3l4 91q-26 14 -67 14q-18 0 -35.5 -3.5t-31 -11.5t-21.5 -21.5t-8 -32.5q0 -14 10 -26t25.5 -21.5t34.5 -18t36 -15.5q26 -11 50.5 -23.5t44 -29t32 -38t12.5 -49.5z" />
<glyph unicode="&#x160;" horiz-adv-x="558" d="M331 615q-29 0 -54 -7.5t-44 -22t-30 -36.5t-11 -52q0 -23 11.5 -39t30.5 -28t43 -21t48 -16q38 -11 74 -23.5t63.5 -32t44.5 -49.5t17 -77q0 -58 -22 -99.5t-60.5 -68.5t-91 -39.5t-112.5 -12.5q-53 0 -112 11.5t-106 40.5l17 144h79l-12 -85q31 -15 68 -21t67 -6 q78 0 123 31.5t45 89.5q0 27 -10 45t-29.5 30.5t-47.5 21.5t-63 18q-39 11 -71.5 25t-56 33.5t-36.5 47t-13 66.5q0 52 19.5 92t53.5 67t80 40.5t99 13.5q20 0 45.5 -2t51.5 -7t51.5 -13t46.5 -20l-18 -144h-79l12 86q-29 11 -57 15t-54 4zM549 867l-166 -136h-66l-129 139 l29 32l142 -92l167 92z" />
<glyph unicode="&#x161;" horiz-adv-x="455" d="M192 -8q-82 0 -123.5 19.5t-41.5 53.5q0 20 10.5 50t26.5 56l51 -2l-4 -96q15 -7 36 -10.5t42 -3.5q22 0 43.5 4.5t38 14t26.5 24t10 35.5q0 17 -9 29t-23.5 22t-33 18t-38.5 16q-30 13 -56 26.5t-45.5 29t-30.5 35t-11 43.5q0 36 16 63.5t44 45.5t64.5 27t77.5 9 q27 0 53.5 -4.5t48.5 -13t35.5 -21t13.5 -29.5q0 -9 -3.5 -23t-9 -29t-12 -30t-13.5 -27l-49 3l4 91q-26 14 -67 14q-18 0 -35.5 -3.5t-31 -11.5t-21.5 -21.5t-8 -32.5q0 -14 10 -26t25.5 -21.5t34.5 -18t36 -15.5q26 -11 50.5 -23.5t44 -29t32 -38t12.5 -49.5 q0 -37 -17 -65t-46.5 -47t-70 -28.5t-86.5 -9.5zM472 692l-166 -144h-67l-129 145l30 33l141 -100l167 99z" />
<glyph unicode="&#x162;" horiz-adv-x="569" d="M128 0l9 75h79l66 536h-139l-12 -106h-78l22 181h537l-22 -181h-79l13 106h-137l-65 -536h80l-8 -75h-266zM262 -39q26 0 39.5 -16.5t13.5 -41.5q0 -22 -10 -44t-27 -42t-38.5 -37t-45.5 -28l-20 31q21 16 35 30t21 40q-33 10 -33 45q0 25 18 44t47 19z" />
<glyph unicode="&#x163;" horiz-adv-x="381" d="M183 156q-1 -6 -1.5 -11.5t-0.5 -10.5q0 -27 13.5 -39t43.5 -12q14 0 38 3t51 11l17 -77q-16 -7 -36 -12t-40 -8t-37 -4.5t-27 -1.5q-30 0 -54 5t-40.5 17.5t-25 33.5t-8.5 53q0 18 3 41l34 276h-70l6 56l78 19l44 113l68 9l-15 -128h142l-8 -69h-141zM163 -39 q26 0 39.5 -16.5t13.5 -41.5q0 -22 -10 -44t-27 -42t-38.5 -37t-45.5 -28l-20 31q21 16 35 30t21 40q-33 10 -33 45q0 25 18 44t47 19z" />
<glyph unicode="&#x164;" horiz-adv-x="569" d="M128 0l9 75h79l66 536h-139l-12 -106h-78l22 181h537l-22 -181h-79l13 106h-137l-65 -536h80l-8 -75h-266zM546 867l-166 -136h-66l-129 139l29 32l142 -92l167 92z" />
<glyph unicode="&#x165;" horiz-adv-x="474" d="M183 156q-1 -6 -1.5 -11.5t-0.5 -10.5q0 -27 13.5 -39t43.5 -12q14 0 38 3t51 11l17 -77q-16 -7 -36 -12t-40 -8t-37 -4.5t-27 -1.5q-30 0 -54 5t-40.5 17.5t-25 33.5t-8.5 53q0 18 3 41l34 276h-70l6 56l78 19l44 113l68 9l-15 -128h142l-8 -69h-141zM431 728 q26 0 39.5 -16.5t13.5 -41.5q0 -22 -10 -44t-27 -42t-38.5 -37t-45.5 -28l-20 31q21 16 35 30t21 40q-33 10 -33 45q0 25 18 44t47 19z" />
<glyph unicode="&#x166;" horiz-adv-x="569" d="M128 0l9 75h79l32 262h-145l7 58h145l27 216h-139l-11 -94h-78l21 169h537l-20 -169h-79l11 94h-137l-26 -216h145l-7 -58h-145l-32 -262h80l-8 -75h-266z" />
<glyph unicode="&#x167;" horiz-adv-x="381" d="M207 340h134l-8 -55h-24h-33.5h-38.5h-37l-18 -138q-1 -5 -1 -8.5v-7.5q0 -25 12 -41t44 -16q14 0 40 3t53 11l14 -68q-16 -7 -36 -12t-40 -8t-37 -4.5t-27 -1.5q-30 0 -54 5t-40.5 17.5t-25 33.5t-8.5 53q0 18 3 41l17 142h-66l7 54h66l10 80h-70l6 56l78 19l44 113 l68 9l-15 -128h142l-8 -69h-141z" />
<glyph unicode="&#x168;" horiz-adv-x="706" d="M621 249q-8 -59 -28 -106.5t-54.5 -81t-85 -51.5t-117.5 -18q-73 0 -123 18.5t-79 53t-38.5 83.5t-2.5 110l44 354h-57l9 75h228l-8 -75h-66l-45 -365q-21 -174 140 -174q75 0 121.5 43t57.5 131l45 365h-65l9 75h228l-9 -75h-59zM496 760q-23 0 -43.5 6t-39 13.5 t-35 13.5t-30.5 6l-59 -39l-30 25q20 41 46 61.5t55 20.5q19 0 39 -6t39 -12.5t37 -12.5t33 -6l60 39l27 -26q-17 -38 -42.5 -60.5t-56.5 -22.5z" />
<glyph unicode="&#x169;" horiz-adv-x="598" d="M179 499q32 0 42.5 -12t10.5 -38v-9.5t-1 -9.5q-2 -18 -5 -44t-6.5 -56.5t-7.5 -62t-7 -59.5t-5 -49.5t-2 -31.5q0 -26 10 -40t33 -14q18 0 39 11t43 36t43 64.5t38 96.5l29 208h98q-14 -100 -27.5 -207.5t-24.5 -205.5q22 2 40.5 8t37.5 15l23 -44q-36 -35 -75.5 -50.5 t-65.5 -15.5q-18 0 -29.5 5.5t-17.5 14.5t-8 20.5t-2 24.5q0 18 2.5 41.5t4.5 40.5h-5q-23 -43 -48.5 -71t-51.5 -44.5t-50 -23t-42 -6.5q-53 0 -77 26t-24 74v17.5t2 23.5q4 41 11.5 107.5t20.5 174.5l-92 14l4 49q42 12 77.5 17t64.5 5zM405 571q-23 0 -43.5 6t-39 13.5 t-35 13.5t-30.5 6l-59 -39l-30 25q20 41 46 61.5t55 20.5q19 0 39 -6t39 -12.5t37 -12.5t33 -6l60 39l27 -26q-17 -38 -42.5 -60.5t-56.5 -22.5z" />
<glyph unicode="&#x16a;" horiz-adv-x="706" d="M621 249q-8 -59 -28 -106.5t-54.5 -81t-85 -51.5t-117.5 -18q-73 0 -123 18.5t-79 53t-38.5 83.5t-2.5 110l44 354h-57l9 75h228l-8 -75h-66l-45 -365q-21 -174 140 -174q75 0 121.5 43t57.5 131l45 365h-65l9 75h228l-9 -75h-59zM261 823h334l-9 -76h-335z" />
<glyph unicode="&#x16b;" horiz-adv-x="598" d="M179 499q32 0 42.5 -12t10.5 -38v-9.5t-1 -9.5q-2 -18 -5 -44t-6.5 -56.5t-7.5 -62t-7 -59.5t-5 -49.5t-2 -31.5q0 -26 10 -40t33 -14q18 0 39 11t43 36t43 64.5t38 96.5l29 208h98q-14 -100 -27.5 -207.5t-24.5 -205.5q22 2 40.5 8t37.5 15l23 -44q-36 -35 -75.5 -50.5 t-65.5 -15.5q-18 0 -29.5 5.5t-17.5 14.5t-8 20.5t-2 24.5q0 18 2.5 41.5t4.5 40.5h-5q-23 -43 -48.5 -71t-51.5 -44.5t-50 -23t-42 -6.5q-53 0 -77 26t-24 74v17.5t2 23.5q4 41 11.5 107.5t20.5 174.5l-92 14l4 49q42 12 77.5 17t64.5 5zM176 658h328l-10 -75h-327z" />
<glyph unicode="&#x16c;" horiz-adv-x="706" d="M621 249q-8 -59 -28 -106.5t-54.5 -81t-85 -51.5t-117.5 -18q-73 0 -123 18.5t-79 53t-38.5 83.5t-2.5 110l44 354h-57l9 75h228l-8 -75h-66l-45 -365q-21 -174 140 -174q75 0 121.5 43t57.5 131l45 365h-65l9 75h228l-9 -75h-59zM412 728q-27 0 -49.5 10t-41 26.5 t-33.5 38t-28 44.5l54 39q24 -41 53.5 -63t56.5 -22q9 0 22 1.5t31 9t42 23t56 44.5l27 -31q-26 -34 -51 -57t-49.5 -37t-47 -20t-42.5 -6z" />
<glyph unicode="&#x16d;" horiz-adv-x="598" d="M179 499q32 0 42.5 -12t10.5 -38v-9.5t-1 -9.5q-2 -18 -5 -44t-6.5 -56.5t-7.5 -62t-7 -59.5t-5 -49.5t-2 -31.5q0 -26 10 -40t33 -14q18 0 39 11t43 36t43 64.5t38 96.5l29 208h98q-14 -100 -27.5 -207.5t-24.5 -205.5q22 2 40.5 8t37.5 15l23 -44q-36 -35 -75.5 -50.5 t-65.5 -15.5q-18 0 -29.5 5.5t-17.5 14.5t-8 20.5t-2 24.5q0 18 2.5 41.5t4.5 40.5h-5q-23 -43 -48.5 -71t-51.5 -44.5t-50 -23t-42 -6.5q-53 0 -77 26t-24 74v17.5t2 23.5q4 41 11.5 107.5t20.5 174.5l-92 14l4 49q42 12 77.5 17t64.5 5zM327 551q-27 0 -49.5 10t-41 26.5 t-33.5 38t-28 44.5l54 39q24 -41 53.5 -63t56.5 -22q9 0 22 1.5t31 9t42 23t56 44.5l27 -31q-26 -34 -51 -57t-49.5 -37t-47 -20t-42.5 -6z" />
<glyph unicode="&#x16e;" horiz-adv-x="706" d="M621 249q-8 -59 -28 -106.5t-54.5 -81t-85 -51.5t-117.5 -18q-73 0 -123 18.5t-79 53t-38.5 83.5t-2.5 110l44 354h-57l9 75h228l-8 -75h-66l-45 -365q-21 -174 140 -174q75 0 121.5 43t57.5 131l45 365h-65l9 75h228l-9 -75h-59zM416 714q-23 0 -42.5 9t-33 24t-19.5 35 t-3 43t13.5 43.5t27 35.5t38.5 24t47 9q23 0 41.5 -9t31.5 -24t18.5 -35.5t2.5 -43.5q-2 -23 -13 -43.5t-27.5 -35.5t-37.5 -23.5t-44 -8.5zM437 885q-27 0 -45.5 -18t-21.5 -44q-3 -25 10.5 -43t41.5 -18q26 0 43.5 18t20.5 43q4 26 -9.5 44t-39.5 18z" />
<glyph unicode="&#x16f;" horiz-adv-x="598" d="M179 499q32 0 42.5 -12t10.5 -38v-9.5t-1 -9.5q-2 -18 -5 -44t-6.5 -56.5t-7.5 -62t-7 -59.5t-5 -49.5t-2 -31.5q0 -26 10 -40t33 -14q18 0 39 11t43 36t43 64.5t38 96.5l29 208h98q-14 -100 -27.5 -207.5t-24.5 -205.5q22 2 40.5 8t37.5 15l23 -44q-36 -35 -75.5 -50.5 t-65.5 -15.5q-18 0 -29.5 5.5t-17.5 14.5t-8 20.5t-2 24.5q0 18 2.5 41.5t4.5 40.5h-5q-23 -43 -48.5 -71t-51.5 -44.5t-50 -23t-42 -6.5q-53 0 -77 26t-24 74v17.5t2 23.5q4 41 11.5 107.5t20.5 174.5l-92 14l4 49q42 12 77.5 17t64.5 5zM328 552q-23 0 -42.5 9t-33 24 t-19.5 35t-3 43t13.5 43.5t27 35.5t38.5 24t47 9q23 0 41.5 -9t31.5 -24t18.5 -35.5t2.5 -43.5q-2 -23 -13 -43.5t-27.5 -35.5t-37.5 -23.5t-44 -8.5zM349 723q-27 0 -45.5 -18t-21.5 -44q-3 -25 10.5 -43t41.5 -18q26 0 43.5 18t20.5 43q4 26 -9.5 44t-39.5 18z" />
<glyph unicode="&#x170;" horiz-adv-x="706" d="M621 249q-8 -59 -28 -106.5t-54.5 -81t-85 -51.5t-117.5 -18q-73 0 -123 18.5t-79 53t-38.5 83.5t-2.5 110l44 354h-57l9 75h228l-8 -75h-66l-45 -365q-21 -174 140 -174q75 0 121.5 43t57.5 131l45 365h-65l9 75h228l-9 -75h-59zM500 727l-33 36l164 150l54 -63z M356 727l-33 36l165 150l53 -63z" />
<glyph unicode="&#x171;" horiz-adv-x="598" d="M179 499q32 0 42.5 -12t10.5 -38v-9.5t-1 -9.5q-2 -18 -5 -44t-6.5 -56.5t-7.5 -62t-7 -59.5t-5 -49.5t-2 -31.5q0 -26 10 -40t33 -14q18 0 39 11t43 36t43 64.5t38 96.5l29 208h98q-14 -100 -27.5 -207.5t-24.5 -205.5q22 2 40.5 8t37.5 15l23 -44q-36 -35 -75.5 -50.5 t-65.5 -15.5q-18 0 -29.5 5.5t-17.5 14.5t-8 20.5t-2 24.5q0 18 2.5 41.5t4.5 40.5h-5q-23 -43 -48.5 -71t-51.5 -44.5t-50 -23t-42 -6.5q-53 0 -77 26t-24 74v17.5t2 23.5q4 41 11.5 107.5t20.5 174.5l-92 14l4 49q42 12 77.5 17t64.5 5zM258 538l-38 34l140 175l61 -57z M394 538l-37 34l140 175l60 -57z" />
<glyph unicode="&#x172;" horiz-adv-x="706" d="M621 249q-7 -57 -26 -103t-51.5 -79t-78.5 -52t-108 -22q-24 -29 -41 -62.5t-17 -55.5t13.5 -31t36.5 -9q19 0 38.5 3.5t35.5 7.5q2 -10 2.5 -19t1.5 -18q-26 -13 -55.5 -21t-58.5 -8q-43 0 -65 17.5t-22 49.5q0 12 3.5 28.5t13 35.5t25.5 40t41 42q-65 3 -109.5 23 t-70.5 54t-34.5 81.5t-1.5 105.5l44 354h-57l9 75h228l-8 -75h-66l-45 -365q-21 -174 140 -174q75 0 121.5 43t57.5 131l45 365h-65l9 75h228l-9 -75h-59z" />
<glyph unicode="&#x173;" horiz-adv-x="598" d="M179 499q32 0 42.5 -12t10.5 -38v-9.5t-1 -9.5q-2 -18 -5 -44t-6.5 -56.5t-7.5 -62t-7 -59.5t-5 -49.5t-2 -31.5q0 -26 10 -40t33 -14q18 0 39 11t43 36t43 64.5t38 96.5l29 208h98q-14 -100 -27.5 -207.5t-24.5 -205.5q22 2 40.5 8t37.5 15l23 -44q-14 -14 -28.5 -24 t-29.5 -18q-14 -15 -26 -32t-21 -34.5t-14.5 -33.5t-5.5 -28q0 -22 13.5 -31t36.5 -9q19 0 38.5 3.5t35.5 7.5q2 -10 2.5 -19t1.5 -18q-26 -13 -55.5 -21t-58.5 -8q-43 0 -65 17.5t-22 49.5q0 11 3 26t10.5 32t21 36t33.5 39q-4 -1 -11 -1q-18 0 -29.5 5.5t-17.5 14.5 t-8 20.5t-2 24.5q0 18 2.5 41.5t4.5 40.5h-5q-23 -43 -48.5 -71t-51.5 -44.5t-50 -23t-42 -6.5q-53 0 -77 26t-24 74v17.5t2 23.5q4 41 11.5 107.5t20.5 174.5l-92 14l4 49q42 12 77.5 17t64.5 5z" />
<glyph unicode="&#x174;" horiz-adv-x="951" d="M506 432l-41 -102l-136 -330h-131l-81 610h-56l9 76h233l-9 -76h-65l42 -373l13 -129h2l52 129l134 333l-7 40h-63l9 76h234l-8 -76h-69l65 -379l19 -115h2l45 127l128 367h-65l9 76h232l-10 -76h-58q-13 -36 -31.5 -85t-39.5 -105t-43.5 -115t-43.5 -114.5t-39 -105 t-31 -85.5h-126l-57 333l-15 99h-3zM684 714l-142 100l-166 -100l-25 33l165 146h67l132 -144z" />
<glyph unicode="&#x175;" horiz-adv-x="755" d="M369 198q-1 0 -1 0.5t-1 0.5q-15 -32 -34.5 -63t-39.5 -58t-38.5 -48.5t-31.5 -33.5h-95q-10 103 -18 207.5t-20 206.5l-69 -19l-16 43q39 33 74.5 49.5t62.5 16.5q23 0 36 -19.5t16 -67.5l21 -311h5q19 23 39.5 52t38.5 60.5t33.5 62.5t26.5 57q-2 22 -3 38t-3 39 l-66 -19l-18 44q37 31 71 48t60 17q15 -1 24.5 -6.5t15 -16.5t7.5 -29t4 -45q5 -78 9.5 -156t9.5 -156h5q28 33 54.5 73t47.5 82.5t34.5 85.5t16.5 83l-68 -17l-14 45q35 26 67.5 41.5t61.5 16.5q10 0 19.5 -2.5t17 -10t12 -21t4.5 -33.5q0 -53 -23.5 -116.5t-60 -125 t-79.5 -114t-82 -83.5h-97q-4 49 -7.5 100t-8.5 102zM572 533l-142 101l-166 -100l-24 33l164 145h67l131 -144z" />
<glyph unicode="&#x176;" horiz-adv-x="603" d="M482 610h-62l9 76h221l-9 -76h-50l-225 -323l-25 -212h76l-8 -75h-268l8 75h78l25 209l-141 326h-50l9 76h217l-9 -76h-60l98 -246h4zM510 714l-142 100l-166 -100l-25 33l165 146h67l132 -144z" />
<glyph unicode="&#x177;" horiz-adv-x="532" d="M442 500q30 0 43.5 -19.5t13.5 -63.5q0 -58 -20 -129t-56 -143t-85.5 -139.5t-108 -120t-124.5 -84.5t-135 -32q-23 0 -43 6t-33.5 18t-19 30.5t1.5 43.5l43 26q15 -13 27.5 -20t24.5 -10.5t23 -4t23 -0.5q38 0 86.5 23t97.5 77q-10 53 -22.5 116t-25.5 125t-25 116.5 t-22 90.5l-74 -18l-16 44q38 34 72 49t54 15q23 0 35.5 -7.5t18.5 -36.5t16.5 -81.5t21.5 -112t21.5 -118.5t17.5 -102q30 37 54 86t41 100.5t26 100.5t9 87l-71 -17l-16 48q34 29 67 43t59 14zM445 533l-142 101l-166 -100l-24 33l164 145h67l131 -144z" />
<glyph unicode="&#x178;" horiz-adv-x="603" d="M482 610h-62l9 76h221l-9 -76h-50l-225 -323l-25 -212h76l-8 -75h-268l8 75h78l25 209l-141 326h-50l9 76h217l-9 -76h-60l98 -246h4zM517 789q-2 -25 -19 -41.5t-42 -16.5q-21 0 -33.5 14t-10.5 35q1 24 18 40.5t39 16.5t36 -13.5t12 -34.5zM333 789q-2 -25 -19.5 -41.5 t-40.5 -16.5q-22 0 -35 14.5t-12 35.5q1 23 19.5 39.5t38.5 16.5q23 0 36.5 -13.5t12.5 -34.5z" />
<glyph unicode="&#x179;" horiz-adv-x="548" d="M139 76h290l16 119h79l-24 -195h-503l9 75l419 536h-251l-14 -107h-78l23 182h462l-8 -73zM297 726l-27 43l182 127l43 -71z" />
<glyph unicode="&#x17a;" horiz-adv-x="481" d="M12 58l314 361h-181l-38 -99l-51 5l11 119q1 15 7 24t14 13.5t16.5 6t15.5 1.5h327l11 -59l-315 -361h218l43 104l46 -3l-15 -127q-2 -14 -8 -22.5t-14 -13t-16.5 -6t-15.5 -1.5h-360zM248 539l-36 35l144 172l57 -60z" />
<glyph unicode="&#x17b;" horiz-adv-x="548" d="M139 76h290l16 119h79l-24 -195h-503l9 75l419 536h-251l-14 -107h-78l23 182h462l-8 -73zM411 823q-2 -27 -22 -46.5t-47 -19.5q-25 0 -40 17t-13 43q2 27 23 46.5t46 19.5q24 0 39.5 -17.5t13.5 -42.5z" />
<glyph unicode="&#x17c;" horiz-adv-x="481" d="M12 58l314 361h-181l-38 -99l-51 5l11 119q1 15 7 24t14 13.5t16.5 6t15.5 1.5h327l11 -59l-315 -361h218l43 104l46 -3l-15 -127q-2 -14 -8 -22.5t-14 -13t-16.5 -6t-15.5 -1.5h-360zM356 631q-2 -27 -22 -46.5t-47 -19.5q-25 0 -40 17t-13 43q2 27 23 46.5t46 19.5 q24 0 39.5 -17.5t13.5 -42.5z" />
<glyph unicode="&#x17d;" horiz-adv-x="548" d="M139 76h290l16 119h79l-24 -195h-503l9 75l419 536h-251l-14 -107h-78l23 182h462l-8 -73zM550 867l-166 -136h-66l-129 139l29 32l142 -92l167 92z" />
<glyph unicode="&#x17e;" horiz-adv-x="481" d="M12 58l314 361h-181l-38 -99l-51 5l11 119q1 15 7 24t14 13.5t16.5 6t15.5 1.5h327l11 -59l-315 -361h218l43 104l46 -3l-15 -127q-2 -14 -8 -22.5t-14 -13t-16.5 -6t-15.5 -1.5h-360zM469 692l-166 -144h-67l-129 145l30 33l141 -100l167 99z" />
<glyph unicode="&#x192;" horiz-adv-x="558" d="M167 396h91l8 55q6 43 18 84t34 72t57 50t88 19q21 0 46 -3.5t54 -12.5l-18 -73q-18 5 -33.5 6.5t-29.5 1.5q-22 0 -40 -5.5t-32.5 -21t-25 -42.5t-16.5 -70q0 -2 -1.5 -11t-3 -19.5t-3 -19.5t-1.5 -10h97l-3 -66h-104q0 -4 -3.5 -25t-7 -45.5t-7 -46t-4.5 -27.5 q-9 -51 -20 -105.5t-32.5 -99.5t-59 -73.5t-99.5 -28.5q-20 0 -48 3.5t-57 11.5l19 70q41 -7 67 -7q47 0 74 35t42 118q12 65 18.5 106t10 64.5t5 34t1.5 15.5h-83z" />
<glyph unicode="&#x1a0;" horiz-adv-x="699" d="M398 697q78 0 129.5 -26.5t83.5 -68.5q32 1 49.5 16t22.5 53l9 79h70l-10 -82q-3 -23 -9.5 -45.5t-20 -40.5t-34 -31t-50.5 -17q8 -28 12 -59t4 -64q0 -89 -21.5 -165.5t-63 -132.5t-103 -88.5t-141.5 -32.5q-70 0 -120 19t-82 55t-47 86.5t-15 113.5q0 82 19.5 160 t60.5 138t104.5 96.5t152.5 36.5zM395 617q-64 0 -107 -32t-69 -82.5t-37 -113.5t-11 -125q0 -95 37 -144t121 -49q57 0 98 28.5t66.5 76t37.5 109.5t12 130q0 40 -6.5 76.5t-23 64.5t-45 44.5t-73.5 16.5z" />
<glyph unicode="&#x1a1;" horiz-adv-x="580" d="M296 499q58 0 97 -19.5t62 -51.5q33 1 50.5 16t22.5 53l9 79h69l-9 -83q-3 -23 -10 -45t-20 -40t-33.5 -31t-49.5 -17q5 -15 6 -31.5t1 -33.5q0 -51 -13 -104.5t-43 -98t-79.5 -72.5t-122.5 -28q-54 0 -90.5 15t-59.5 41.5t-33 62.5t-10 78q0 55 14.5 110.5t45 100t79 72 t117.5 27.5zM291 420q-45 0 -73.5 -25t-45 -61.5t-22.5 -78.5t-6 -75q0 -23 4.5 -43t16 -36t30.5 -25t48 -9q43 0 70.5 23.5t43.5 58.5t22 75t6 72q0 25 -4.5 47.5t-15 39.5t-28.5 27t-46 10z" />
<glyph unicode="&#x1af;" horiz-adv-x="813" d="M662 584h32q35 0 54.5 14.5t24.5 53.5l10 90h69l-10 -93q-3 -26 -11.5 -50.5t-25 -43.5t-42.5 -30.5t-64 -11.5h-45l-33 -264q-8 -59 -28 -106.5t-54.5 -81t-85 -51.5t-117.5 -18q-73 0 -123 18.5t-79 53t-38.5 83.5t-2.5 110l44 354h-54l9 75h217l-9 -75h-57l-45 -365 q-21 -174 140 -174q75 0 121.5 43t57.5 131l45 365h-54l9 75h205l-9 -75h-47z" />
<glyph unicode="&#x1b0;" horiz-adv-x="655" d="M179 499q32 0 42.5 -12t10.5 -38v-9.5t-1 -9.5q-2 -18 -5 -44t-6.5 -56.5t-7.5 -62t-7 -59.5t-5 -49.5t-2 -31.5q0 -26 10 -40t33 -14q18 0 39 11t43 36t43 64.5t38 96.5l29 208h98l-8 -59q17 1 30 4t21.5 10.5t14 20t7.5 32.5l9 80h70l-9 -83q-3 -30 -11.5 -55t-25 -43 t-42.5 -28t-65 -10h-9q-9 -72 -17.5 -144t-16.5 -138q22 2 40.5 8t37.5 15l23 -44q-36 -35 -75.5 -50.5t-65.5 -15.5q-18 0 -29.5 5.5t-17.5 14.5t-8 20.5t-2 24.5q0 18 2.5 41.5t4.5 40.5h-5q-23 -43 -48.5 -71t-51.5 -44.5t-50 -23t-42 -6.5q-53 0 -77 26t-24 74v17.5 t2 23.5q4 41 11.5 107.5t20.5 174.5l-92 14l4 49q42 12 77.5 17t64.5 5z" />
<glyph unicode="&#x1fc;" horiz-adv-x="956" d="M496 75l5 129h-242l-84 -129h67l-3 -75h-234l3 75h55l391 609h468l-9 -173h-77l6 97l-217 2l-9 -217l212 4l-3 -78l-212 2l-11 -246h238l5 102h80l-9 -177h-490l3 75h67zM304 280h201l15 326h-6zM637 726l-27 43l182 127l43 -71z" />
<glyph unicode="&#x1fd;" horiz-adv-x="782" d="M609 501q68 0 105.5 -35t37.5 -92q0 -41 -21 -69.5t-61 -47.5t-97.5 -29t-129.5 -12q0 -9 -0.5 -18.5t-0.5 -19.5q0 -22 4 -42t15 -35.5t30.5 -25t51.5 -9.5q37 0 74.5 9.5t73.5 24.5l22 -60q-18 -11 -41 -19.5t-48.5 -15t-52 -10t-51.5 -3.5q-66 0 -103 22.5t-54 59.5 q-58 -49 -113.5 -67.5t-101.5 -18.5q-38 0 -61 10.5t-36.5 27t-18 37t-4.5 40.5q0 33 12 64t47 55t97.5 37.5t163.5 11.5q2 14 4.5 33.5t2.5 29.5q0 50 -21.5 68t-73.5 18q-32 0 -73.5 -7.5t-76.5 -19.5l-17 66q44 19 93.5 29.5t97.5 10.5q19 0 40 -2.5t39.5 -10.5t34 -25 t23.5 -45q31 40 76.5 62.5t111.5 22.5zM199 59q12 0 28.5 2.5t35.5 9.5t40 19.5t42 33.5q-2 14 -3 28.5t-1 29.5v17.5t1 20.5q-66 -2 -106 -10.5t-61.5 -22.5t-28.5 -31.5t-7 -35.5q0 -26 14 -43.5t46 -17.5zM594 424q-34 0 -60 -12.5t-44.5 -33.5t-29.5 -49.5t-14 -60.5 q102 2 158 23.5t56 71.5q0 27 -16 44t-50 17zM435 539l-36 35l144 172l57 -60z" />
<glyph unicode="&#x1fe;" horiz-adv-x="684" d="M398 697q63 0 108.5 -17t75.5 -48l59 66h55l-88 -99q25 -38 36 -86t11 -102q0 -88 -21.5 -164.5t-63.5 -133.5t-103.5 -89.5t-141.5 -32.5q-68 0 -116.5 18t-80.5 51l-58 -65h-51q9 10 31.5 34.5t54.5 60.5q-23 35 -33.5 79t-10.5 98q0 81 19.5 158.5t60.5 138t104.5 97 t152.5 36.5zM543 415q0 26 -2.5 50.5t-9.5 47.5l-333 -375q37 -66 132 -66q57 0 97.5 28t66 75.5t37.5 109.5t12 130zM395 617q-64 0 -106.5 -32t-68.5 -82.5t-37 -113t-11 -124.5q0 -52 10 -88q39 44 82 92.5t86.5 98t85.5 97t78 89.5q-17 29 -45.5 46t-73.5 17zM363 726 l-27 43l182 127l43 -71z" />
<glyph unicode="&#x1ff;" horiz-adv-x="523" d="M295 499q46 0 80 -12.5t58 -35.5q10 12 20.5 23.5t20.5 23.5h45q-17 -17 -32.5 -35t-31.5 -36q20 -29 28 -67t8 -81q0 -51 -15 -102.5t-46.5 -92t-80 -66t-116.5 -25.5q-47 0 -81 11t-57 32q-20 -23 -39 -42q-11 0 -22 -0.5t-23 -0.5l62 67q-15 23 -24 53t-9 63 q0 59 13 117t42.5 103.5t78.5 74t121 28.5zM242 67q42 0 69 22.5t43 55.5t22.5 70.5t6.5 67.5q0 17 -1.5 33.5t-6.5 31.5l-212 -244q11 -17 30 -27t49 -10zM291 420q-43 0 -71 -24t-44.5 -59t-23.5 -74.5t-7 -71.5q0 -31 7 -53q54 61 106 122t106 123q-11 17 -28.5 27 t-44.5 10zM293 539l-36 35l144 172l57 -60z" />
<glyph unicode="&#x218;" horiz-adv-x="558" d="M331 615q-29 0 -54 -7.5t-44 -22t-30 -36.5t-11 -52q0 -23 11.5 -39t30.5 -28t43 -21t48 -16q38 -11 74 -23.5t63.5 -32t44.5 -49.5t17 -77q0 -58 -22 -99.5t-60.5 -68.5t-91 -39.5t-112.5 -12.5q-53 0 -112 11.5t-106 40.5l17 144h79l-12 -85q31 -15 68 -21t67 -6 q78 0 123 31.5t45 89.5q0 27 -10 45t-29.5 30.5t-47.5 21.5t-63 18q-39 11 -71.5 25t-56 33.5t-36.5 47t-13 66.5q0 52 19.5 92t53.5 67t80 40.5t99 13.5q20 0 45.5 -2t51.5 -7t51.5 -13t46.5 -20l-18 -144h-79l12 86q-29 11 -57 15t-54 4zM253 -39q26 0 39.5 -16.5 t13.5 -41.5q0 -22 -10 -44t-27 -42t-38.5 -37t-45.5 -28l-20 31q21 16 35 30t21 40q-33 10 -33 45q0 25 18 44t47 19z" />
<glyph unicode="&#x219;" horiz-adv-x="455" d="M192 -8q-82 0 -123.5 19.5t-41.5 53.5q0 20 10.5 50t26.5 56l51 -2l-4 -96q15 -7 36 -10.5t42 -3.5q22 0 43.5 4.5t38 14t26.5 24t10 35.5q0 17 -9 29t-23.5 22t-33 18t-38.5 16q-30 13 -56 26.5t-45.5 29t-30.5 35t-11 43.5q0 36 16 63.5t44 45.5t64.5 27t77.5 9 q27 0 53.5 -4.5t48.5 -13t35.5 -21t13.5 -29.5q0 -9 -3.5 -23t-9 -29t-12 -30t-13.5 -27l-49 3l4 91q-26 14 -67 14q-18 0 -35.5 -3.5t-31 -11.5t-21.5 -21.5t-8 -32.5q0 -14 10 -26t25.5 -21.5t34.5 -18t36 -15.5q26 -11 50.5 -23.5t44 -29t32 -38t12.5 -49.5 q0 -37 -17 -65t-46.5 -47t-70 -28.5t-86.5 -9.5zM211 -39q26 0 39.5 -16.5t13.5 -41.5q0 -22 -10 -44t-27 -42t-38.5 -37t-45.5 -28l-20 31q21 16 35 30t21 40q-33 10 -33 45q0 25 18 44t47 19z" />
<glyph unicode="&#x259;" horiz-adv-x="481" d="M180 -8q-69 0 -106 35.5t-37 91.5q0 85 80 127.5t228 51.5q1 5 1 11v12q0 19 -4 38t-15.5 34t-31 24.5t-50.5 9.5q-37 0 -74 -9t-74 -25l-22 60q37 22 89.5 35t103.5 13q55 0 90 -16t55 -43t27.5 -62.5t7.5 -74.5q0 -51 -12.5 -106.5t-43.5 -101t-82.5 -75.5t-129.5 -30z M194 69q64 0 101.5 46.5t45.5 126.5q-103 -5 -156 -32t-53 -79q0 -27 15 -44.5t47 -17.5z" />
<glyph unicode="&#x2b9;" horiz-adv-x="227" d="M103 384l-39 26l177 285l66 -42z" />
<glyph unicode="&#x2c6;" horiz-adv-x="512" d="M450 533l-142 101l-166 -100l-24 33l164 145h67l131 -144z" />
<glyph unicode="&#x2c7;" horiz-adv-x="512" d="M496 692l-166 -144h-67l-129 145l30 33l141 -100l167 99z" />
<glyph unicode="&#x2d8;" horiz-adv-x="529" d="M301 551q-27 0 -49.5 10t-41 26.5t-33.5 38t-28 44.5l54 39q24 -41 53.5 -63t56.5 -22q9 0 22 1.5t31 9t42 23t56 44.5l27 -31q-26 -34 -51 -57t-49.5 -37t-47 -20t-42.5 -6z" />
<glyph unicode="&#x2d9;" horiz-adv-x="512" d="M366 631q-2 -27 -22 -46.5t-47 -19.5q-25 0 -40 17t-13 43q2 27 23 46.5t46 19.5q24 0 39.5 -17.5t13.5 -42.5z" />
<glyph unicode="&#x2da;" horiz-adv-x="512" d="M301 552q-23 0 -42.5 9t-33 24t-19.5 35t-3 43t13.5 43.5t27 35.5t38.5 24t47 9q23 0 41.5 -9t31.5 -24t18.5 -35.5t2.5 -43.5q-2 -23 -13 -43.5t-27.5 -35.5t-37.5 -23.5t-44 -8.5zM322 723q-27 0 -45.5 -18t-21.5 -44q-3 -25 10.5 -43t41.5 -18q26 0 43.5 18t20.5 43 q4 26 -9.5 44t-39.5 18z" />
<glyph unicode="&#x2db;" horiz-adv-x="529" d="M400 8q-15 -15 -28.5 -33.5t-24 -37t-16.5 -35.5t-6 -30q0 -22 13.5 -31t36.5 -9q19 0 38.5 3.5t35.5 7.5q2 -10 2.5 -19t1.5 -18q-26 -13 -55.5 -21t-58.5 -8q-43 0 -65 17.5t-22 49.5q0 14 5.5 35t20.5 45t40.5 50t65.5 51z" />
<glyph unicode="&#x2dc;" horiz-adv-x="512" d="M377 571q-23 0 -43.5 6t-39 13.5t-35 13.5t-30.5 6l-59 -39l-30 25q20 41 46 61.5t55 20.5q19 0 39 -6t39 -12.5t37 -12.5t33 -6l60 39l27 -26q-17 -38 -42.5 -60.5t-56.5 -22.5z" />
<glyph unicode="&#x2dd;" horiz-adv-x="512" d="M215 538l-38 34l140 175l61 -57zM351 538l-37 34l140 175l60 -57z" />
<glyph unicode="&#x384;" horiz-adv-x="512" d="M290 539l-36 35l144 172l57 -60z" />
<glyph unicode="&#x385;" horiz-adv-x="512" d="M478 622q-2 -24 -19.5 -40t-40.5 -16q-21 0 -33.5 14t-10.5 35q2 23 20 39.5t38 16.5t34 -13.5t12 -35.5zM236 624q-2 -25 -19 -40.5t-40 -15.5q-22 0 -35 14t-12 34q2 23 20 39.5t38 16.5q22 0 36 -13.5t12 -34.5zM281 542l-45 20l99 196l76 -38z" />
<glyph unicode="&#x386;" horiz-adv-x="676" d="M408 0l8 75h65l-21 114h-249l-49 -114h66l-8 -75h-226l7 75h57l275 611h132l123 -611h53l-9 -75h-224zM411 464l-22 134h-3l-53 -126l-88 -207h202zM70 526l-36 35l144 172l57 -60z" />
<glyph unicode="&#x387;" horiz-adv-x="221" d="M192 366q-2 -28 -22 -48t-46 -20q-25 0 -40.5 18t-13.5 42q2 28 22.5 47t46.5 19q24 0 39.5 -17t13.5 -41z" />
<glyph unicode="&#x388;" horiz-adv-x="589" d="M16 0l8 75h66l66 536h-63l8 74h500l-22 -173h-78l12 99h-250l-27 -218l236 5l-8 -79l-237 4l-30 -248h270l13 102h80l-22 -177h-522zM-99 527l-36 35l144 172l57 -60z" />
<glyph unicode="&#x389;" horiz-adv-x="717" d="M419 0l9 76h60l30 245h-292l-30 -245h61l-9 -76h-232l8 76h64l66 535h-64l9 75h232l-9 -75h-61l-26 -215h292l26 215h-60l9 75h233l-9 -75h-64l-66 -535h64l-8 -76h-233zM-101 525l-36 35l144 172l57 -60z" />
<glyph unicode="&#x38a;" horiz-adv-x="370" d="M43 0l9 75h63l65 536h-63l9 75h234l-9 -75h-64l-66 -536h64l-8 -75h-234zM-72 525l-36 35l144 172l57 -60z" />
<glyph unicode="&#x38c;" horiz-adv-x="684" d="M398 697q72 0 121 -22t79 -61t43.5 -91t13.5 -112q0 -88 -21.5 -164.5t-63.5 -133.5t-103.5 -89.5t-141.5 -32.5q-70 0 -120 19.5t-82 55.5t-47 87t-15 114q0 81 19.5 158.5t60.5 138t104.5 97t152.5 36.5zM395 617q-64 0 -106.5 -32t-68.5 -82.5t-37 -113t-11 -124.5 q0 -95 37 -144t121 -49q57 0 97.5 28t66 75.5t37.5 109.5t12 130q0 40 -6.5 76.5t-23 64.5t-45 44.5t-73.5 16.5zM-36 528l-36 35l144 172l57 -60z" />
<glyph unicode="&#x38e;" horiz-adv-x="603" d="M482 610h-62l9 76h221l-9 -76h-50l-225 -323l-25 -212h76l-8 -75h-268l8 75h78l25 209l-141 326h-50l9 76h217l-9 -76h-60l98 -246h4zM-121 528l-36 35l144 172l57 -60z" />
<glyph unicode="&#x38f;" horiz-adv-x="699" d="M403 697q73 0 123.5 -21.5t81.5 -59t44.5 -88.5t13.5 -109q0 -49 -9 -101t-26 -98.5t-41.5 -84.5t-55.5 -60h112q-3 -19 -5 -37.5t-4 -37.5h-257q3 19 5.5 39t4.5 40q42 11 72.5 41.5t50.5 75.5t30 101.5t10 118.5q0 44 -8 81t-26 63.5t-47 41t-71 14.5q-61 0 -103 -29.5 t-68.5 -79t-38 -115t-11.5 -136.5q0 -69 24 -116t69 -60q-3 -20 -5.5 -40t-4.5 -40h-254q2 19 4 37.5t4 37.5h113q0 1 1 1q-32 27 -46.5 71.5t-16.5 98.5q0 84 17 165t56 144.5t103 102.5t159 39zM-27 528l-36 35l144 172l57 -60z" />
<glyph unicode="&#x390;" horiz-adv-x="318" d="M185 500q32 0 43.5 -10t11.5 -31q0 -3 -3.5 -30.5t-8.5 -67t-10.5 -86t-11 -88t-9.5 -72t-5 -38.5q41 3 80 24l23 -45q-35 -35 -74 -52t-68 -17q-38 0 -52.5 18t-14.5 46q0 6 0.5 12.5t1.5 14.5l43 335l-85 15l3 51q42 11 77 16t59 5zM359 622q-2 -24 -19.5 -40 t-40.5 -16q-21 0 -33.5 14t-10.5 35q2 23 20 39.5t38 16.5t34 -13.5t12 -35.5zM117 624q-2 -25 -19 -40.5t-40 -15.5q-22 0 -35 14t-12 34q2 23 20 39.5t38 16.5q22 0 36 -13.5t12 -34.5zM162 542l-45 20l99 196l76 -38z" />
<glyph unicode="&#x391;" horiz-adv-x="676" d="M408 0l8 75h65l-21 114h-249l-49 -114h66l-8 -75h-226l7 75h57l275 611h132l123 -611h53l-9 -75h-224zM411 464l-22 134h-3l-53 -126l-88 -207h202z" />
<glyph unicode="&#x392;" horiz-adv-x="628" d="M427 685q46 0 79.5 -11.5t55.5 -32t32.5 -49t10.5 -62.5q0 -24 -5.5 -48t-18 -46.5t-34 -42t-53.5 -34.5v-1q28 -9 46.5 -25t29.5 -36t15 -42t4 -43q0 -53 -18.5 -92.5t-49.5 -66t-71 -40t-83 -13.5h-353q3 19 5 37.5t4 37.5h68l66 535h-65l9 75h326zM227 317l-29 -242 h140q71 0 105 39.5t34 99.5q0 21 -6.5 39.5t-20 32.5t-34 22.5t-48.5 8.5h-141zM264 610q-8 -56 -14 -111t-14 -110h126q63 0 98.5 36t35.5 91q0 42 -25 68t-82 26h-125z" />
<glyph unicode="&#x393;" horiz-adv-x="561" d="M16 0l8 75h67l65 536h-63l8 74h502l-22 -173h-78l12 99h-252l-66 -536h92l-9 -75h-264z" />
<glyph unicode="&#x394;" horiz-adv-x="667" d="M601 0h-585l8 69l305 617h128l151 -619zM419 452l-35 151h-1l-73 -152l-181 -376h375z" />
<glyph unicode="&#x395;" horiz-adv-x="589" d="M16 0l8 75h66l66 536h-63l8 74h500l-22 -173h-78l12 99h-250l-27 -218l236 5l-8 -79l-237 4l-30 -248h270l13 102h80l-22 -177h-522z" />
<glyph unicode="&#x396;" horiz-adv-x="548" d="M139 76h290l16 119h79l-24 -195h-503l9 75l419 536h-251l-14 -107h-78l23 182h462l-8 -73z" />
<glyph unicode="&#x397;" horiz-adv-x="717" d="M419 0l9 76h60l30 245h-292l-30 -245h61l-9 -76h-232l8 76h64l66 535h-64l9 75h232l-9 -75h-61l-26 -215h292l26 215h-60l9 75h233l-9 -75h-64l-66 -535h64l-8 -76h-233z" />
<glyph unicode="&#x398;" horiz-adv-x="684" d="M236 392l255 4l-10 -80l-254 3zM398 697q72 0 121 -22t79 -61t43.5 -91t13.5 -112q0 -88 -21.5 -164.5t-63.5 -133.5t-103.5 -89.5t-141.5 -32.5q-70 0 -120 19.5t-82 55.5t-47 87t-15 114q0 81 19.5 158.5t60.5 138t104.5 97t152.5 36.5zM395 617q-64 0 -106.5 -32 t-68.5 -82.5t-37 -113t-11 -124.5q0 -95 37 -144t121 -49q57 0 97.5 28t66 75.5t37.5 109.5t12 130q0 40 -6.5 76.5t-23 64.5t-45 44.5t-73.5 16.5z" />
<glyph unicode="&#x399;" horiz-adv-x="370" d="M43 0l9 75h63l65 536h-63l9 75h234l-9 -75h-64l-66 -536h64l-8 -75h-234z" />
<glyph unicode="&#x39a;" horiz-adv-x="657" d="M385 413l191 -336h56l-9 -77h-227l9 77h60l-157 275l-91 -79l-24 -197h61l-9 -76h-229l8 76h64l66 535h-64l9 74h231l-9 -74h-63l-27 -231l268 230h-56l9 75h227l-9 -75h-57z" />
<glyph unicode="&#x39b;" horiz-adv-x="672" d="M401 502l-16 93h-2q-1 -1 -4.5 -9.5t-9 -21.5t-12 -29t-13.5 -32l-186 -428h68l-9 -75h-226l8 75h57q15 36 37 85.5t47 105.5t52 115t52.5 114.5t48 105t38.5 85.5h133l122 -611h53l-8 -75h-226l9 75h63z" />
<glyph unicode="&#x39c;" horiz-adv-x="882" d="M443 198l57 110l202 377h199l-10 -75h-61l-65 -535h60l-9 -75h-223l8 75h60l55 454h-2l-50 -94l-190 -348h-92l-138 442h-3l-54 -454h62l-9 -75h-226l9 75h65l65 535h-64l9 75h192l107 -344l40 -143h6z" />
<glyph unicode="&#x39d;" horiz-adv-x="747" d="M536 165q14 112 27.5 222.5t27.5 222.5h-67l9 75h231q-3 -19 -5 -37.5t-4 -37.5h-64q-19 -154 -37 -305.5t-38 -304.5h-102q-57 112 -108 218.5t-110 218.5q-12 25 -24.5 49.5t-23.5 50.5q-1 0 -1.5 -0.5t-1.5 -0.5l-57 -461h68l-9 -75h-233q3 19 5 37.5t4 37.5h66 q16 135 32.5 267.5t33.5 267.5h-66l9 75h180q45 -91 93.5 -190.5t107.5 -220.5l52 -109h5z" />
<glyph unicode="&#x39e;" horiz-adv-x="568" d="M165 595l-12 -93h-77l22 183h489l-23 -183h-79l12 93h-332zM453 91l12 98h79l-22 -189h-521l22 189h81l-12 -98h361zM155 317l9 74l287 4l-11 -81z" />
<glyph unicode="&#x39f;" horiz-adv-x="684" d="M398 697q72 0 121 -22t79 -61t43.5 -91t13.5 -112q0 -88 -21.5 -164.5t-63.5 -133.5t-103.5 -89.5t-141.5 -32.5q-70 0 -120 19.5t-82 55.5t-47 87t-15 114q0 81 19.5 158.5t60.5 138t104.5 97t152.5 36.5zM395 617q-64 0 -106.5 -32t-68.5 -82.5t-37 -113t-11 -124.5 q0 -95 37 -144t121 -49q57 0 97.5 28t66 75.5t37.5 109.5t12 130q0 40 -6.5 76.5t-23 64.5t-45 44.5t-73.5 16.5z" />
<glyph unicode="&#x3a0;" horiz-adv-x="717" d="M419 0l9 76h60l65 533h-292l-65 -533h61l-9 -76h-232l8 76h64l65 533h-64l10 77h636l-10 -77h-64l-65 -533h64l-8 -76h-233z" />
<glyph unicode="&#x3a1;" horiz-adv-x="580" d="M395 686q94 0 143.5 -45.5t49.5 -133.5q0 -40 -12.5 -81t-40.5 -74.5t-72.5 -55t-108.5 -21.5h-135l-25 -200h84l-8 -75h-254l8 75h64l65 536h-63l9 75h296zM260 611l-32 -263h111q25 0 49.5 8.5t44 26.5t31.5 47t12 70q0 56 -28.5 83.5t-76.5 27.5h-111z" />
<glyph unicode="&#x3a3;" horiz-adv-x="563" d="M345 373l-2 -23l-202 -274h307l14 111h79l-22 -187h-517l9 69l215 294l-144 257l7 66h488l-21 -181h-78l13 106h-280z" />
<glyph unicode="&#x3a4;" horiz-adv-x="569" d="M128 0l9 75h79l66 536h-139l-12 -106h-78l22 181h537l-22 -181h-79l13 106h-137l-65 -536h80l-8 -75h-266z" />
<glyph unicode="&#x3a5;" horiz-adv-x="603" d="M482 610h-62l9 76h221l-9 -76h-50l-225 -323l-25 -212h76l-8 -75h-268l8 75h78l25 209l-141 326h-50l9 76h217l-9 -76h-60l98 -246h4z" />
<glyph unicode="&#x3a6;" horiz-adv-x="782" d="M570 685l-9 -73h-59l-4 -26q63 -5 114.5 -21.5t88 -44t57 -66t20.5 -87.5q0 -62 -30 -108.5t-78 -79t-108.5 -50.5t-121.5 -22l-5 -34h59l-8 -73h-218l8 73h59l5 34q-58 3 -110 17t-91.5 40t-62.5 64t-23 88q0 59 27 107.5t74 83.5t110 55.5t135 24.5l3 25h-59l9 73h218z M392 509q-48 -3 -91.5 -15.5t-76.5 -35t-53 -55t-20 -75.5q0 -36 16.5 -62.5t44 -44.5t63.5 -28t75 -14zM448 179q44 3 86 15t74.5 34.5t52 56t19.5 78.5q0 64 -50 103t-140 43z" />
<glyph unicode="&#x3a7;" horiz-adv-x="647" d="M453 686h225l-9 -76h-55l-207 -258l141 -276h62l-8 -76h-248l9 76h64l-107 215l-162 -215h72l-9 -76h-228l8 76h47l220 288l-123 246h-66l9 76h243l-9 -76h-60l93 -190l148 190h-59z" />
<glyph unicode="&#x3a8;" horiz-adv-x="825" d="M473 263q84 5 131 46.5t58 126.5l31 250h166l-10 -75h-60l-22 -171q-7 -56 -29.5 -102t-60.5 -79.5t-91.5 -52.5t-121.5 -21l-14 -110h70l-9 -75h-244l9 75h70l13 109q-138 7 -196.5 74t-44.5 190l20 163h-64l9 75h169l-30 -253q-10 -81 28 -123t119 -47l43 348h-55l9 75 h214l-9 -75h-55z" />
<glyph unicode="&#x3a9;" horiz-adv-x="699" d="M403 697q73 0 123.5 -21.5t81.5 -59t44.5 -88.5t13.5 -109q0 -49 -9 -101t-26 -98.5t-41.5 -84.5t-55.5 -60h112q-3 -19 -5 -37.5t-4 -37.5h-257q3 19 5.5 39t4.5 40q42 11 72.5 41.5t50.5 75.5t30 101.5t10 118.5q0 44 -8 81t-26 63.5t-47 41t-71 14.5q-61 0 -103 -29.5 t-68.5 -79t-38 -115t-11.5 -136.5q0 -69 24 -116t69 -60q-3 -20 -5.5 -40t-4.5 -40h-254q2 19 4 37.5t4 37.5h113q0 1 1 1q-32 27 -46.5 71.5t-16.5 98.5q0 84 17 165t56 144.5t103 102.5t159 39z" />
<glyph unicode="&#x3aa;" horiz-adv-x="370" d="M43 0l9 75h63l65 536h-63l9 75h234l-9 -75h-64l-66 -536h64l-8 -75h-234zM401 789q-2 -25 -19 -41.5t-42 -16.5q-21 0 -33.5 14t-10.5 35q1 24 18 40.5t39 16.5t36 -13.5t12 -34.5zM217 789q-2 -25 -19.5 -41.5t-40.5 -16.5q-22 0 -35 14.5t-12 35.5q1 23 19.5 39.5 t38.5 16.5q23 0 36.5 -13.5t12.5 -34.5z" />
<glyph unicode="&#x3ab;" horiz-adv-x="603" d="M482 610h-62l9 76h221l-9 -76h-50l-225 -323l-25 -212h76l-8 -75h-268l8 75h78l25 209l-141 326h-50l9 76h217l-9 -76h-60l98 -246h4zM523 789q-2 -25 -19 -41.5t-42 -16.5q-21 0 -33.5 14t-10.5 35q1 24 18 40.5t39 16.5t36 -13.5t12 -34.5zM339 789q-2 -25 -19.5 -41.5 t-40.5 -16.5q-22 0 -35 14.5t-12 35.5q1 23 19.5 39.5t38.5 16.5q23 0 36.5 -13.5t12.5 -34.5z" />
<glyph unicode="&#x3ac;" horiz-adv-x="571" d="M295 497q29 0 58 -7t60 -20l24 27l69 -4q-9 -57 -17.5 -114.5t-16 -111t-13.5 -102t-10 -88.5q20 2 41 9.5t41 18.5q4 -8 11 -23t12 -23q-15 -15 -33.5 -27.5t-37.5 -22.5t-37 -15.5t-33 -5.5q-34 0 -47.5 18t-15.5 47q0 20 2.5 40.5t6.5 43.5h-5q-22 -44 -45 -72 t-46.5 -45t-47 -23.5t-46.5 -6.5q-58 0 -93.5 42t-35.5 128q0 69 16 130t48 107t80 73t111 27zM211 66q18 0 37.5 10t40.5 34.5t41.5 65t40.5 100.5l20 123q-29 11 -53 14.5t-41 3.5q-45 0 -74.5 -24.5t-47 -60.5t-24.5 -78t-7 -78q0 -56 18.5 -83t48.5 -27zM294 539l-36 35 l144 172l57 -60z" />
<glyph unicode="&#x3ad;" horiz-adv-x="453" d="M271 500q38 1 70.5 -4.5t58.5 -15.5q23 -9 30 -20t5 -27q0 -5 -2.5 -16t-6 -25t-9 -30t-11.5 -30l-56 3l1 83q-41 11 -76 11q-42 0 -72.5 -20t-30.5 -61q0 -18 8.5 -29t22 -17t30 -7.5t31.5 -1.5h50l-5 -61h-54q-16 0 -35.5 -4t-36.5 -14.5t-28.5 -28t-11.5 -44.5 q0 -40 30.5 -56.5t79.5 -16.5q35 0 70 6.5t73 20.5l21 -59q-18 -10 -41 -18t-48.5 -14t-51.5 -9t-50 -3q-42 0 -76.5 7.5t-59.5 23.5t-39 40.5t-14 58.5q0 28 8.5 50.5t22.5 39.5t32 28.5t38 17.5l2 3q-30 11 -50.5 34t-20.5 58q0 69 55.5 108t146.5 39zM248 539l-36 35 l144 172l57 -60z" />
<glyph unicode="&#x3ae;" horiz-adv-x="571" d="M417 499q57 0 78.5 -30t21.5 -89q0 -11 -4.5 -54.5t-11.5 -105t-15.5 -133.5t-15.5 -138q37 3 77 23l22 -44q-38 -35 -78.5 -51t-66.5 -16q-59 0 -59 59v13t1 16q7 80 15 151.5t15 127t11 91.5t4 44q0 23 -10 38.5t-33 15.5q-18 0 -39.5 -11.5t-43.5 -36.5t-43 -64.5 t-38 -94.5l-29 -210h-102q8 64 15 117t13 101.5t11.5 95t11.5 98.5l-92 15l3 51q43 11 77 16t63 5q32 0 42.5 -10.5t10.5 -34.5q0 -19 -3.5 -47t-8.5 -61h4q23 45 50.5 74.5t54.5 47t51 24.5t41 7zM286 539l-36 35l144 172l57 -60z" />
<glyph unicode="&#x3af;" horiz-adv-x="318" d="M185 500q32 0 43.5 -10t11.5 -31q0 -3 -3.5 -30.5t-8.5 -67t-10.5 -86t-11 -88t-9.5 -72t-5 -38.5q41 3 80 24l23 -45q-35 -35 -74 -52t-68 -17q-38 0 -52.5 18t-14.5 46q0 6 0.5 12.5t1.5 14.5l43 335l-85 15l3 51q42 11 77 16t59 5zM154 539l-36 35l144 172l57 -60z " />
<glyph unicode="&#x3b0;" horiz-adv-x="575" d="M478 507q26 0 42.5 -12t16.5 -47q0 -41 -8 -90.5t-24.5 -100t-42.5 -98.5t-61.5 -85.5t-81 -60t-102.5 -22.5q-37 0 -60.5 9.5t-37 25t-19 35.5t-5.5 41q0 11 6.5 92t22.5 219q-23 3 -46.5 6.5t-46.5 7.5l4 50q43 12 78.5 17t64.5 5q28 0 40.5 -9t12.5 -32 q0 -7 -2.5 -33.5t-6.5 -62t-8.5 -75.5t-8.5 -74.5t-6.5 -59.5t-2.5 -31q0 -26 10.5 -40t37.5 -14q37 0 70 33.5t58.5 85t41 114t18.5 119.5l-66 -15l-12 43q32 30 66.5 44.5t57.5 14.5zM501 622q-2 -24 -19.5 -40t-40.5 -16q-21 0 -33.5 14t-10.5 35q2 23 20 39.5t38 16.5 t34 -13.5t12 -35.5zM259 624q-2 -25 -19 -40.5t-40 -15.5q-22 0 -35 14t-12 34q2 23 20 39.5t38 16.5q22 0 36 -13.5t12 -34.5zM304 542l-45 20l99 196l76 -38z" />
<glyph unicode="&#x3b1;" horiz-adv-x="571" d="M295 497q29 0 58 -7t60 -20l24 27l69 -4q-9 -57 -17.5 -114.5t-16 -111t-13.5 -102t-10 -88.5q20 2 41 9.5t41 18.5q4 -8 11 -23t12 -23q-15 -15 -33.5 -27.5t-37.5 -22.5t-37 -15.5t-33 -5.5q-34 0 -47.5 18t-15.5 47q0 20 2.5 40.5t6.5 43.5h-5q-22 -44 -45 -72 t-46.5 -45t-47 -23.5t-46.5 -6.5q-58 0 -93.5 42t-35.5 128q0 69 16 130t48 107t80 73t111 27zM211 66q18 0 37.5 10t40.5 34.5t41.5 65t40.5 100.5l20 123q-29 11 -53 14.5t-41 3.5q-45 0 -74.5 -24.5t-47 -60.5t-24.5 -78t-7 -78q0 -56 18.5 -83t48.5 -27z" />
<glyph unicode="&#x3b2;" horiz-adv-x="520" d="M-3 -207q19 148 40.5 306t44.5 341l12 90q7 46 26.5 81t48 58t64 35t74.5 12q91 0 134 -41t43 -113q0 -26 -8.5 -51t-22 -46.5t-30.5 -37.5t-35 -24q53 -19 74 -57.5t21 -84.5q0 -62 -18.5 -112t-51 -85.5t-75 -55t-90.5 -19.5q-36 0 -69 6.5t-51 16.5l-29 -219h-102z M226 361l7 69h45q18 0 37.5 7.5t35 23t25.5 39.5t10 57q0 32 -20 54t-55 22q-20 0 -39.5 -5.5t-35.5 -19t-28 -35.5t-17 -56l-53 -428q28 -14 56.5 -18t45.5 -4q61 0 100.5 50t39.5 141q0 51 -26.5 77t-83.5 26h-44z" />
<glyph unicode="&#x3b3;" horiz-adv-x="540" d="M236 160q20 67 45 128.5t55 108.5t64.5 75t72.5 28q24 0 44 -11.5t29 -32.5l-24 -47q-8 5 -14.5 6t-11.5 1q-36 0 -71 -40t-67 -102t-59 -136.5t-47 -143.5q-2 -57 -3.5 -106.5t-9.5 -99.5l-11 -14q-36 -2 -63.5 6t-47.5 21q8 50 20 96.5t29 103.5l-67 410l-69 -18 l-16 43q38 33 73.5 49.5t58.5 16.5q28 0 41 -14t16 -52l29 -275z" />
<glyph unicode="&#x3b4;" horiz-adv-x="519" d="M290 409q-43 -6 -71.5 -30t-45 -57.5t-23 -71.5t-6.5 -71q0 -22 4.5 -42t16 -35.5t30.5 -24.5t48 -9q41 0 68 19.5t42.5 49.5t22 65t6.5 67q0 31 -7.5 54t-20.5 39.5t-29.5 27.5t-34.5 19zM329 709q27 0 53.5 -4t47 -12.5t33.5 -21t13 -29.5q0 -19 -9 -51t-22 -61l-55 2 l4 92q-13 6 -30 9.5t-32 3.5q-17 0 -34 -3t-31 -11t-23 -21.5t-9 -33.5q0 -13 8 -24t19.5 -20t25.5 -16t26 -12q39 -18 70.5 -38t54.5 -46t35.5 -60t12.5 -82q0 -42 -12.5 -90.5t-42 -90t-77 -69.5t-117.5 -28q-53 0 -90.5 15t-61.5 41t-35 62t-11 77q0 43 10 85.5t30.5 79 t51.5 64.5t74 41q-35 22 -55.5 46.5t-20.5 58.5q0 37 16 65t43.5 46t63.5 27t76 9z" />
<glyph unicode="&#x3b5;" horiz-adv-x="453" d="M271 500q38 1 70.5 -4.5t58.5 -15.5q23 -9 30 -20t5 -27q0 -5 -2.5 -16t-6 -25t-9 -30t-11.5 -30l-56 3l1 83q-41 11 -76 11q-42 0 -72.5 -20t-30.5 -61q0 -18 8.5 -29t22 -17t30 -7.5t31.5 -1.5h50l-5 -61h-54q-16 0 -35.5 -4t-36.5 -14.5t-28.5 -28t-11.5 -44.5 q0 -40 30.5 -56.5t79.5 -16.5q35 0 70 6.5t73 20.5l21 -59q-18 -10 -41 -18t-48.5 -14t-51.5 -9t-50 -3q-42 0 -76.5 7.5t-59.5 23.5t-39 40.5t-14 58.5q0 28 8.5 50.5t22.5 39.5t32 28.5t38 17.5l2 3q-30 11 -50.5 34t-20.5 58q0 69 55.5 108t146.5 39z" />
<glyph unicode="&#x3b6;" horiz-adv-x="401" d="M162 553l-57 6l10 107q1 15 7 23.5t13.5 13.5t16.5 6.5t16 1.5h313l13 -66q-81 -62 -145.5 -126t-109.5 -123t-69.5 -110.5t-25.5 -88.5q-1 -20 7 -35t27 -29t49 -28t74 -32q44 -17 71.5 -36.5t26.5 -51.5q-1 -19 -11.5 -39t-27 -40t-38 -40.5t-43.5 -40.5l-44 44 q20 23 32 38.5t18.5 25.5t8.5 15.5t2 9.5q1 11 -11 19.5t-33 16.5q-58 22 -99 40t-67 38t-37.5 45.5t-10.5 63.5q0 34 20.5 84.5t61.5 110.5t104 126.5t149 134.5v3h-179z" />
<glyph unicode="&#x3b7;" horiz-adv-x="571" d="M417 499q57 0 78.5 -30t21.5 -89q0 -11 -4.5 -54.5t-11.5 -105t-15.5 -133.5t-15.5 -138q37 3 77 23l22 -44q-38 -35 -78.5 -51t-66.5 -16q-59 0 -59 59v13t1 16q7 80 15 151.5t15 127t11 91.5t4 44q0 23 -10 38.5t-33 15.5q-18 0 -39.5 -11.5t-43.5 -36.5t-43 -64.5 t-38 -94.5l-29 -210h-102q8 64 15 117t13 101.5t11.5 95t11.5 98.5l-92 15l3 51q43 11 77 16t63 5q32 0 42.5 -10.5t10.5 -34.5q0 -19 -3.5 -47t-8.5 -61h4q23 45 50.5 74.5t54.5 47t51 24.5t41 7z" />
<glyph unicode="&#x3b8;" horiz-adv-x="529" d="M319 718q54 0 89.5 -19.5t57 -53t30 -79t8.5 -96.5q0 -55 -5.5 -112t-18 -110t-33.5 -99.5t-51.5 -81t-71.5 -54.5t-94 -20q-56 0 -92.5 18t-58 50t-30.5 75.5t-9 95.5q0 53 5.5 109.5t18 110.5t33 102t51.5 84.5t73.5 58t97.5 21.5zM148 339q-5 -40 -7 -75.5t-2 -62.5 q0 -66 21.5 -98.5t78.5 -32.5q37 0 63.5 22t44.5 59t28.5 85.5t16.5 102.5h-244zM399 406q2 23 3.5 44.5t1.5 41.5q0 30 -4.5 57t-15 47t-29 31.5t-45.5 11.5q-38 0 -64 -19t-43.5 -51.5t-28 -74.5t-17.5 -88h242z" />
<glyph unicode="&#x3b9;" horiz-adv-x="318" d="M185 500q32 0 43.5 -10t11.5 -31q0 -3 -3.5 -30.5t-8.5 -67t-10.5 -86t-11 -88t-9.5 -72t-5 -38.5q41 3 80 24l23 -45q-35 -35 -74 -52t-68 -17q-38 0 -52.5 18t-14.5 46q0 6 0.5 12.5t1.5 14.5l43 335l-85 15l3 51q42 11 77 16t59 5z" />
<glyph unicode="&#x3ba;" horiz-adv-x="538" d="M452 500q30 0 48 -18t26 -45l-35 -36q-30 16 -56 16q-21 0 -40 -8t-36 -21.5t-32 -31t-30 -35.5q16 -34 36.5 -73.5t41 -75.5t37 -64t25.5 -37q24 7 41 17.5t31 20.5l29 -37q-40 -51 -72 -68t-52 -17q-24 0 -43 14t-39 44t-43 78.5t-54 117.5q-10 -14 -16.5 -23.5 t-12 -18.5t-10 -19t-10.5 -23q-3 -19 -5.5 -36.5t-4.5 -35.5t-5 -39t-6 -46h-102q6 45 14 106t15.5 121.5t14 111.5t9.5 75l-87 11l3 50q39 11 77.5 18.5t67.5 7.5t40.5 -13.5t9.5 -36.5q-1 -10 -3 -27t-5 -38t-7 -44t-7 -46h3q23 37 52 73.5t61 65.5t65.5 47t65.5 18z" />
<glyph unicode="&#x3bb;" horiz-adv-x="510" d="M424 79q17 1 35.5 5.5t35.5 12.5l21 -46q-30 -29 -65 -45t-58 -16q-28 0 -43.5 11t-20.5 41l-63 354h-4l-173 -396h-101l210 464h57l-30 176l-106 15l-2 54q13 5 31 9.5t36.5 7.5t35.5 5t28 2q19 0 31 -4t19 -12t11 -19.5t7 -26.5z" />
<glyph unicode="&#x3bc;" horiz-adv-x="589" d="M171 499q31 0 41 -17t10 -42q0 -10 -2.5 -34t-6 -55t-7.5 -65.5t-7.5 -66t-6 -56.5t-2.5 -36q0 -26 9.5 -40t33.5 -14q18 0 39 11t42.5 36t42.5 64.5t38 96.5l29 208h99q-13 -106 -26 -208t-26 -205q22 2 40.5 8t37.5 15l22 -44q-38 -36 -76.5 -51t-64.5 -15q-20 0 -31 6 t-16.5 16t-6.5 24t-1 31t1.5 35t3.5 33h-4q-43 -73 -81 -103.5t-80 -30.5q-20 0 -42 6l-16 -143h63l-9 -71h-220q2 17 4 35.5t4 35.5h57l60 550q-23 3 -46 6.5t-46 7.5q2 12 2 25t2 25q42 12 78 17t65 5z" />
<glyph unicode="&#x3bd;" horiz-adv-x="528" d="M126 501q20 0 31.5 -7.5t18 -20t9.5 -29.5t5 -36l36 -316h5q29 33 57.5 73t51.5 82.5t38.5 86t18.5 82.5l-70 -16l-17 45q32 25 67 40.5t62 15.5q61 0 61 -62q-1 -56 -26.5 -120t-64.5 -125.5t-84.5 -113.5t-85.5 -84h-97l-52 414l-69 -18l-19 44q37 33 69 49t55 16z" />
<glyph unicode="&#x3be;" horiz-adv-x="443" d="M331 719q14 0 33.5 -1.5t40.5 -5t41.5 -9t37.5 -13.5q-5 -18 -11 -36t-12 -37q-40 14 -75 18t-60 4q-67 0 -99 -34t-32 -85q0 -45 32.5 -68t88.5 -23h91l-9 -75h-94q-42 0 -73 -13.5t-51.5 -35t-30.5 -49.5t-10 -57q0 -22 8 -39.5t25 -32.5t44 -29t65 -29 q42 -17 69.5 -30t43.5 -25t22 -24t6 -27q0 -40 -33 -81t-84 -81l-49 42q33 37 47.5 58t14.5 32q0 5 -3.5 11t-14 13.5t-28.5 16t-46 19.5q-36 14 -70 30.5t-60.5 38.5t-43 51t-16.5 69q0 71 36 128t105 84q-26 10 -43 27t-26.5 36t-13.5 37.5t-4 31.5q0 44 17 80t48.5 61 t76 38.5t99.5 13.5z" />
<glyph unicode="&#x3bf;" horiz-adv-x="521" d="M296 499q53 0 90 -16t60.5 -44t34 -65t10.5 -79q0 -51 -13 -104.5t-43 -98t-79.5 -72.5t-122.5 -28q-54 0 -90.5 15t-59.5 41.5t-33 62.5t-10 78q0 55 14.5 110.5t45 100t79 72t117.5 27.5zM291 420q-45 0 -73.5 -25t-45 -61.5t-22.5 -78.5t-6 -75q0 -23 4.5 -43t16 -36 t30.5 -25t48 -9q43 0 70.5 23.5t43.5 58.5t22 75t6 72q0 25 -4.5 47.5t-15 39.5t-28.5 27t-46 10z" />
<glyph unicode="&#x3c0;" horiz-adv-x="614" d="M206 416q-12 -105 -25 -208.5t-25 -207.5h-103l51 416h-72l8 71h540l-8 -71h-73q-8 -75 -13 -126.5t-9.5 -89.5t-8 -66.5t-6.5 -57.5q38 3 80 23l21 -44q-18 -17 -38 -29.5t-40 -20.5t-38 -11.5t-31 -3.5q-60 0 -60 60q0 6 0.5 12.5t1.5 14.5q10 85 19 169.5t20 169.5 h-191v0z" />
<glyph unicode="&#x3c1;" horiz-adv-x="532" d="M240 70q26 0 52.5 10t48 35t35 67.5t13.5 106.5q0 39 -10 64t-25 40t-33 20.5t-34 5.5q-32 0 -54.5 -12t-37.5 -32.5t-23.5 -47.5t-12.5 -57l-24 -178q18 -10 47 -16t58 -6zM49 215q8 63 23 115t42 89.5t68.5 58.5t102.5 21q102 0 155.5 -56.5t53.5 -153.5 q0 -67 -16.5 -122t-47.5 -94.5t-76.5 -61t-102.5 -21.5q-13 0 -29.5 1.5t-34 4t-33.5 7t-28 10.5l-27 -220h-102z" />
<glyph unicode="&#x3c2;" horiz-adv-x="463" d="M40 223q0 54 15 104t46.5 88.5t80 61.5t115.5 23q36 0 71 -6t50 -11q38 -13 35 -46q0 -7 -3 -21t-8 -30.5t-11 -34t-12 -31.5l-56 2l4 92q-12 4 -31.5 6t-36.5 2q-37 0 -65.5 -15t-48 -41t-29.5 -61.5t-10 -76.5q0 -24 7 -44t22 -37.5t39 -34t59 -34.5q57 -29 81.5 -53.5 t24.5 -50.5q0 -22 -22 -60.5t-83 -93.5l-52 46q18 21 28 34.5t15 22.5t6.5 14.5t1.5 9.5q0 12 -14.5 22.5t-49.5 28.5q-45 24 -77 47.5t-52.5 50t-30 57.5t-9.5 70z" />
<glyph unicode="&#x3c3;" horiz-adv-x="550" d="M446 411q22 -23 31 -56.5t9 -71.5q0 -59 -17 -111.5t-49.5 -91.5t-79 -62t-106.5 -23q-53 0 -90.5 13.5t-61.5 38t-35 60t-11 79.5q0 58 15.5 112.5t47.5 97t81 68t117 25.5h246l-8 -73h-85zM285 412q-41 0 -68 -20t-44 -52t-24 -71.5t-7 -78.5q0 -60 24 -90.5t78 -30.5 q35 0 60.5 18t42.5 48.5t25.5 71t8.5 85.5q0 24 -4 46t-15 38.5t-29.5 26t-47.5 9.5z" />
<glyph unicode="&#x3c4;" horiz-adv-x="406" d="M33 416l8 73h350l-9 -73h-139l-29 -260q-1 -5 -1 -8.5v-7.5q0 -12 1 -22.5t6.5 -18t17 -12t31.5 -4.5q14 0 40 3t53 11l14 -77q-16 -7 -36.5 -12t-40.5 -8t-37.5 -4.5t-27.5 -1.5q-30 0 -54 5t-40.5 17.5t-25 33.5t-8.5 53q0 18 3 41l30 272h-106z" />
<glyph unicode="&#x3c5;" horiz-adv-x="575" d="M478 507q26 0 42.5 -12t16.5 -47q0 -41 -8 -90.5t-24.5 -100t-42.5 -98.5t-61.5 -85.5t-81 -60t-102.5 -22.5q-37 0 -60.5 9.5t-37 25t-19 35.5t-5.5 41q0 11 6.5 92t22.5 219q-23 3 -46.5 6.5t-46.5 7.5l4 50q43 12 78.5 17t64.5 5q28 0 40.5 -9t12.5 -32 q0 -7 -2.5 -33.5t-6.5 -62t-8.5 -75.5t-8.5 -74.5t-6.5 -59.5t-2.5 -31q0 -26 10.5 -40t37.5 -14q37 0 70 33.5t58.5 85t41 114t18.5 119.5l-66 -15l-12 43q32 30 66.5 44.5t57.5 14.5z" />
<glyph unicode="&#x3c6;" horiz-adv-x="684" d="M646 296q0 -51 -16 -104.5t-51.5 -97t-90.5 -72t-133 -31.5q-6 -51 -10.5 -99t-10.5 -99h-100l24 198q-62 3 -104 21.5t-67.5 47t-36 63.5t-10.5 71q0 46 11 93.5t35 88.5t61.5 73t90.5 48l27 -65q-32 -14 -56 -37t-40 -53.5t-24 -66.5t-8 -75q0 -56 31.5 -93t97.5 -41 q10 71 18 128.5t18 117.5q8 50 26 85t43 57.5t55 32.5t62 10q72 0 115 -52t43 -149zM364 67q51 3 85.5 24.5t55.5 54.5t30 75t9 87q0 21 -3.5 41t-11.5 35.5t-20.5 25t-29.5 9.5q-8 0 -18.5 -3t-21.5 -12.5t-21 -28.5t-17 -52q-3 -11 -8 -46t-10.5 -76t-10.5 -79t-8 -55z " />
<glyph unicode="&#x3c7;" horiz-adv-x="509" d="M85 -16q-2 0 -4.5 -0.5t-5.5 -0.5l-28.5 28.5l-29.5 29.5q0 3 0.5 6t0.5 6q45 48 89 95.5t90 95.5q-18 41 -35.5 81t-34.5 81l-78 -22l-21 43q37 34 70 51t56 17q17 0 34 -6t31 -34q16 -34 28 -67t29 -69l64 88l64 88h11l61 -57v-11l-168 -176q20 -43 37.5 -84.5 t36.5 -85.5q23 2 42.5 10.5t39.5 19.5q8 -11 16 -20.5t17 -20.5q-20 -25 -39.5 -41t-38.5 -25.5t-35 -13t-28 -3.5q-32 0 -47 18.5t-30 53.5l-50 117q-35 -49 -71 -97t-73 -95z" />
<glyph unicode="&#x3c8;" horiz-adv-x="722" d="M356 -136h77q-2 -17 -4 -35.5t-4 -35.5h-243q2 17 4.5 35.5t4.5 35.5h71q3 33 7 66t8 65q-101 11 -146 65t-45 133q0 19 3 48t7 59.5t8 60t6 50.5q-21 4 -42.5 7.5t-43.5 6.5q2 13 2.5 25.5t1.5 25.5q42 11 75 16t62 5t40 -10t11 -34q0 -9 -4.5 -41.5t-9.5 -72.5 t-9.5 -77.5t-4.5 -56.5q0 -24 4 -46.5t14.5 -40.5t30 -30.5t49.5 -16.5q17 131 32.5 260t32.5 260q-23 3 -46.5 6.5t-46.5 7.5q2 13 2 25.5t2 25.5q42 11 76 16.5t59 5.5q17 0 27.5 -4t16.5 -10.5t8 -15t2 -16.5q0 -10 -3 -40.5t-8.5 -75.5t-12.5 -100.5t-15 -114.5 t-15.5 -118.5t-14.5 -112.5q54 6 91.5 40t62 83.5t36.5 108.5t14 115l-63 -15q-2 11 -5.5 23t-5.5 23q32 27 67 42t55 15q27 0 39 -16t12 -52q0 -39 -6 -85t-20.5 -93.5t-38 -93t-58 -81.5t-82 -60.5t-108.5 -29.5v-1z" />
<glyph unicode="&#x3c9;" horiz-adv-x="739" d="M431 335l-20 -171q-1 -5 -1 -15q0 -32 15.5 -54.5t51.5 -22.5q58 0 92 58t34 162q0 43 -16 79t-58 60l33 66q39 -12 66 -33t43.5 -48t23.5 -59.5t7 -66.5q0 -55 -13 -108.5t-40.5 -95.5t-70.5 -67.5t-103 -25.5q-46 0 -78.5 19.5t-45.5 55.5h-3q-24 -37 -62 -56t-82 -19 q-50 0 -82 15t-50.5 41.5t-26 61.5t-7.5 75q0 52 11 102.5t35.5 92.5t64 72.5t96.5 44.5l20 -67q-37 -15 -61 -42t-38.5 -61t-20.5 -71.5t-6 -74.5q0 -23 4 -43t14 -35t26.5 -23.5t40.5 -8.5q45 0 67.5 28t27.5 64l21 171h91z" />
<glyph unicode="&#x3ca;" horiz-adv-x="318" d="M185 500q32 0 43.5 -10t11.5 -31q0 -3 -3.5 -30.5t-8.5 -67t-10.5 -86t-11 -88t-9.5 -72t-5 -38.5q41 3 80 24l23 -45q-35 -35 -74 -52t-68 -17q-38 0 -52.5 18t-14.5 46q0 6 0.5 12.5t1.5 14.5l43 335l-85 15l3 51q42 11 77 16t59 5zM272 670q22 0 35.5 -12.5 t13.5 -34.5q0 -26 -17.5 -44.5t-44.5 -18.5q-20 0 -33 13.5t-13 34.5q0 26 18.5 44t40.5 18zM84 670q23 0 36.5 -12.5t13.5 -34.5q0 -26 -18 -44.5t-44 -18.5q-21 0 -34.5 13.5t-13.5 34.5q0 26 19 44t41 18z" />
<glyph unicode="&#x3cb;" horiz-adv-x="575" d="M478 507q26 0 42.5 -12t16.5 -47q0 -41 -8 -90.5t-24.5 -100t-42.5 -98.5t-61.5 -85.5t-81 -60t-102.5 -22.5q-37 0 -60.5 9.5t-37 25t-19 35.5t-5.5 41q0 11 6.5 92t22.5 219q-23 3 -46.5 6.5t-46.5 7.5l4 50q43 12 78.5 17t64.5 5q28 0 40.5 -9t12.5 -32 q0 -7 -2.5 -33.5t-6.5 -62t-8.5 -75.5t-8.5 -74.5t-6.5 -59.5t-2.5 -31q0 -26 10.5 -40t37.5 -14q37 0 70 33.5t58.5 85t41 114t18.5 119.5l-66 -15l-12 43q32 30 66.5 44.5t57.5 14.5zM418 670q22 0 35.5 -12.5t13.5 -34.5q0 -26 -17.5 -44.5t-44.5 -18.5q-20 0 -33 13.5 t-13 34.5q0 26 18.5 44t40.5 18zM230 670q23 0 36.5 -12.5t13.5 -34.5q0 -26 -18 -44.5t-44 -18.5q-21 0 -34.5 13.5t-13.5 34.5q0 26 19 44t41 18z" />
<glyph unicode="&#x3cc;" horiz-adv-x="521" d="M296 499q53 0 90 -16t60.5 -44t34 -65t10.5 -79q0 -51 -13 -104.5t-43 -98t-79.5 -72.5t-122.5 -28q-54 0 -90.5 15t-59.5 41.5t-33 62.5t-10 78q0 55 14.5 110.5t45 100t79 72t117.5 27.5zM291 420q-45 0 -73.5 -25t-45 -61.5t-22.5 -78.5t-6 -75q0 -23 4.5 -43t16 -36 t30.5 -25t48 -9q43 0 70.5 23.5t43.5 58.5t22 75t6 72q0 25 -4.5 47.5t-15 39.5t-28.5 27t-46 10zM290 539l-36 35l144 172l57 -60z" />
<glyph unicode="&#x3cd;" horiz-adv-x="575" d="M478 507q26 0 42.5 -12t16.5 -47q0 -41 -8 -90.5t-24.5 -100t-42.5 -98.5t-61.5 -85.5t-81 -60t-102.5 -22.5q-37 0 -60.5 9.5t-37 25t-19 35.5t-5.5 41q0 11 6.5 92t22.5 219q-23 3 -46.5 6.5t-46.5 7.5l4 50q43 12 78.5 17t64.5 5q28 0 40.5 -9t12.5 -32 q0 -7 -2.5 -33.5t-6.5 -62t-8.5 -75.5t-8.5 -74.5t-6.5 -59.5t-2.5 -31q0 -26 10.5 -40t37.5 -14q37 0 70 33.5t58.5 85t41 114t18.5 119.5l-66 -15l-12 43q32 30 66.5 44.5t57.5 14.5zM293 539l-36 35l144 172l57 -60z" />
<glyph unicode="&#x3ce;" horiz-adv-x="739" d="M431 335l-20 -171q-1 -5 -1 -15q0 -32 15.5 -54.5t51.5 -22.5q58 0 92 58t34 162q0 43 -16 79t-58 60l33 66q39 -12 66 -33t43.5 -48t23.5 -59.5t7 -66.5q0 -55 -13 -108.5t-40.5 -95.5t-70.5 -67.5t-103 -25.5q-46 0 -78.5 19.5t-45.5 55.5h-3q-24 -37 -62 -56t-82 -19 q-50 0 -82 15t-50.5 41.5t-26 61.5t-7.5 75q0 52 11 102.5t35.5 92.5t64 72.5t96.5 44.5l20 -67q-37 -15 -61 -42t-38.5 -61t-20.5 -71.5t-6 -74.5q0 -23 4 -43t14 -35t26.5 -23.5t40.5 -8.5q45 0 67.5 28t27.5 64l21 171h91zM386 539l-36 35l144 172l57 -60z" />
<glyph unicode="&#x3da;" horiz-adv-x="668" d="M465 675q34 1 61.5 2t52 4t47 8.5t48.5 13.5l14 -82q-42 -17 -98.5 -26t-120.5 -11q-153 -2 -228.5 -59.5t-75.5 -154.5q0 -33 12 -60.5t39 -51.5t71.5 -44.5t110.5 -37.5q92 -26 140.5 -59t48.5 -86q0 -25 -12.5 -47.5t-33 -43t-45 -37.5t-48.5 -31q-2 3 -7.5 10.5 t-12 16.5t-12 17t-7.5 10q15 12 28.5 22t23.5 19.5t15.5 20t5.5 23.5q0 22 -23.5 36t-82.5 30q-85 22 -144 50t-96 63t-53.5 77t-16.5 90q0 67 24.5 124t74 99.5t124.5 67.5t176 27z" />
<glyph unicode="&#x3db;" horiz-adv-x="567" d="M355 498q25 0 45.5 1t38.5 3t36.5 6t40.5 11l11 -74q-33 -14 -76.5 -19.5t-93.5 -7.5q-111 -2 -167.5 -44t-56.5 -113q0 -47 38.5 -83.5t134.5 -62.5q70 -20 108.5 -45.5t38.5 -67.5q0 -20 -10.5 -38t-27 -34.5t-37 -30.5t-40.5 -26l-34 50q21 14 38 30.5t18 30.5 q0 15 -15.5 25t-59.5 21q-129 34 -182.5 88.5t-53.5 130.5q0 51 18.5 95.5t56.5 78t95.5 53.5t135.5 22z" />
<glyph unicode="&#x3dc;" horiz-adv-x="554" d="M153 0h-105q22 174 43 347t42 347h440l-21 -177h-82q4 26 6.5 50.5t6.5 50.5h-255q-7 -56 -13.5 -110.5t-14.5 -108.5q60 1 120 1.5t120 2.5q-3 -20 -5.5 -40t-4.5 -40l-238 3z" />
<glyph unicode="&#x3dd;" horiz-adv-x="585" d="M191 123q-9 -82 -19 -162.5t-20 -162.5h-105l86 692h440l-23 -176h-81l13 100h-255q-6 -55 -13.5 -109t-13.5 -109q60 1 119.5 1.5t119.5 2.5l-10 -80q-60 0 -119 1t-119 2z" />
<glyph unicode="&#x3de;" horiz-adv-x="562" d="M258 606l-128 -44l-26 46q16 15 38.5 31t47 29.5t50.5 22t49 8.5q27 0 43 -10.5t16 -33.5q0 -8 -2.5 -19t-9.5 -25l-156 -314l246 72q9 4 17 5t15 1q32 0 32 -28q0 -4 -1 -10t-3 -11l-137 -328l131 39l19 -43q-18 -17 -41.5 -32t-48 -26.5t-48.5 -18t-42 -6.5 q-29 0 -42.5 12t-13.5 33q1 7 2.5 18t5.5 20l125 296l-257 -76q-11 -4 -23 -4q-17 0 -27 10t-10 25q0 11 4 23z" />
<glyph unicode="&#x3df;" horiz-adv-x="427" d="M120 261q15 45 30 89.5t29 89.5l-115 -39q-5 11 -9.5 23t-9.5 23q15 13 35 26t41.5 22.5t43 15.5t39.5 6q29 0 44.5 -16.5t8.5 -47.5q-8 -39 -20 -80t-28 -87h141q27 0 38.5 -7t11.5 -23q0 -3 -2 -11t-7 -18l-165 -357l-99 11q46 84 91 165t90 165h-151q-40 0 -40 30 q0 5 0.5 9t2.5 11z" />
<glyph unicode="&#x3e0;" horiz-adv-x="631" d="M87 718q118 -7 206.5 -46t147 -103t87.5 -150t29 -187v-12q-4 -72 -18.5 -148.5t-48.5 -167.5l-51 11q22 84 32 148.5t10 121.5q0 23 -2.5 46t-5.5 46q-73 -45 -146 -88.5t-147 -87.5q-8 15 -14.5 30.5t-14.5 31.5l310 170q-8 32 -18 59t-26 53q-74 -43 -149 -87.5 t-148 -88.5q-8 16 -15.5 31.5t-15.5 31.5l298 160q-49 71 -123 115t-189 58z" />
<glyph unicode="&#x3e1;" horiz-adv-x="552" d="M79 511q101 -6 175 -38t122.5 -84.5t72 -122.5t23.5 -152q0 -60 -12 -127.5t-42 -150.5l-54 11q19 72 27 122t8 94q0 41 -6 77q-5 -3 -22.5 -14t-42 -26t-52.5 -32t-52.5 -32.5t-42.5 -26.5t-22 -14l-28 60l252 136q-6 24 -13.5 44t-20.5 44l-242 -146l-29 60l242 128 q-42 53 -101 90t-150 47z" />
<glyph unicode="&#x401;" horiz-adv-x="589" d="M16 0l8 75h66l66 536h-63l8 74h500l-22 -173h-78l12 99h-250l-27 -218l236 5l-8 -79l-237 4l-30 -248h270l13 102h80l-22 -177h-522zM527 789q-2 -25 -19 -41.5t-42 -16.5q-21 0 -33.5 14t-10.5 35q1 24 18 40.5t39 16.5t36 -13.5t12 -34.5zM343 789q-2 -25 -19.5 -41.5 t-40.5 -16.5q-22 0 -35 14.5t-12 35.5q1 23 19.5 39.5t38.5 16.5q23 0 36.5 -13.5t12.5 -34.5z" />
<glyph unicode="&#x402;" horiz-adv-x="771" d="M545 422q91 0 139.5 -47t48.5 -135q0 -62 -20.5 -116t-54 -98.5t-76 -79t-85.5 -58.5l-35 57q71 51 114.5 118t43.5 152q0 67 -29 96t-85 29q-32 0 -71 -7.5t-77 -22.5l-29 -235h73l-8 -75h-246l9 75h67l65 536h-138l-10 -89h-79l20 163h604l-20 -163h-78l10 89h-203 l-27 -225q48 19 93.5 27.5t83.5 8.5z" />
<glyph unicode="&#x403;" horiz-adv-x="561" d="M16 0l8 75h67l65 536h-63l8 74h502l-22 -173h-78l12 99h-252l-66 -536h92l-9 -75h-264zM353 726l-27 43l182 127l43 -71z" />
<glyph unicode="&#x404;" horiz-adv-x="575" d="M518 103q3 -20 7 -39.5t8 -39.5q-20 -8 -45.5 -13.5t-52.5 -9.5t-54.5 -6t-51.5 -2q-74 0 -125 19t-82.5 55t-46 87t-14.5 114q0 42 5.5 90.5t20 96t39.5 91.5t63.5 77.5t93 53.5t128.5 20q54 0 96 -8t74 -19l-20 -167h-80l13 96q-18 5 -42 8.5t-48 3.5 q-45 0 -81.5 -15.5t-64.5 -44t-46.5 -69t-27.5 -89.5l256 6l-7 -81l-257 4q-3 -27 -3 -52q0 -41 10 -75.5t32.5 -60t58.5 -40t88 -14.5q13 0 31.5 1.5t39.5 4.5t43 7t42 10z" />
<glyph unicode="&#x405;" horiz-adv-x="558" d="M331 615q-29 0 -54 -7.5t-44 -22t-30 -36.5t-11 -52q0 -23 11.5 -39t30.5 -28t43 -21t48 -16q38 -11 74 -23.5t63.5 -32t44.5 -49.5t17 -77q0 -58 -22 -99.5t-60.5 -68.5t-91 -39.5t-112.5 -12.5q-53 0 -112 11.5t-106 40.5l17 144h79l-12 -85q31 -15 68 -21t67 -6 q78 0 123 31.5t45 89.5q0 27 -10 45t-29.5 30.5t-47.5 21.5t-63 18q-39 11 -71.5 25t-56 33.5t-36.5 47t-13 66.5q0 52 19.5 92t53.5 67t80 40.5t99 13.5q20 0 45.5 -2t51.5 -7t51.5 -13t46.5 -20l-18 -144h-79l12 86q-29 11 -57 15t-54 4z" />
<glyph unicode="&#x406;" horiz-adv-x="370" d="M43 0l9 75h63l65 536h-63l9 75h234l-9 -75h-64l-66 -536h64l-8 -75h-234z" />
<glyph unicode="&#x407;" horiz-adv-x="370" d="M43 0l9 75h63l65 536h-63l9 75h234l-9 -75h-64l-66 -536h64l-8 -75h-234zM345 849q22 0 35.5 -12.5t13.5 -34.5q0 -26 -17.5 -44.5t-44.5 -18.5q-20 0 -33 13.5t-13 34.5q0 26 18.5 44t40.5 18zM157 849q23 0 36.5 -12.5t13.5 -34.5q0 -26 -18 -44.5t-44 -18.5 q-21 0 -34.5 13.5t-13.5 34.5q0 26 19 44t41 18z" />
<glyph unicode="&#x408;" horiz-adv-x="380" d="M107 686h293l-9 -75h-87l-58 -466q-8 -67 -27.5 -120.5t-53.5 -93.5t-85 -67t-122 -42l-18 73q57 21 93 45t57.5 53t31.5 64.5t16 78.5l59 475h-99z" />
<glyph unicode="&#x409;" horiz-adv-x="964" d="M671 611h-69l-26 -202h142q100 0 154 -49t54 -133q0 -57 -19 -99.5t-51.5 -71t-75 -42.5t-89.5 -14h-335l8 75h64l67 536l-170 -1l-8 -71q-14 -110 -31.5 -206t-50.5 -169.5t-87 -121t-139 -61.5l-19 77q58 18 95.5 51.5t62 88t39.5 133t29 187.5l12 92h-85l9 76h528z M567 334l-32 -259h144q28 0 53 9.5t44 28t30 46t11 64.5q0 58 -35.5 84.5t-87.5 26.5h-127z" />
<glyph unicode="&#x40a;" horiz-adv-x="989" d="M695 611h-71l-24 -205h141q100 0 154 -48t54 -131q0 -55 -19 -97.5t-51 -71t-74.5 -43.5t-89.5 -15h-335l9 75h63l31 257h-254l-32 -257h60l-9 -75h-231l8 75h65l66 536h-64l9 74h230l-9 -74h-59l-26 -207h256l25 207h-64l9 75h241zM590 332l-31 -257h144q28 0 53 9.5 t43.5 28t29.5 46t11 64.5q0 57 -35.5 83t-86.5 26h-128z" />
<glyph unicode="&#x40b;" horiz-adv-x="827" d="M771 75l-8 -75h-232l9 75h61l21 164q7 59 -21 81t-87 22q-39 0 -80.5 -9.5t-72.5 -23.5l-28 -234h66l-9 -75h-238l9 75h66l67 536h-140l-10 -89h-79l20 163h601l-20 -163h-78l11 89h-200l-28 -223q48 17 95 25.5t89 8.5q45 0 80 -9.5t58 -29t33.5 -50.5t4.5 -74l-23 -184 h63z" />
<glyph unicode="&#x40c;" horiz-adv-x="649" d="M194 75h63l-9 -75h-232l8 75h63l66 536h-63l9 74h232l-8 -74h-64zM520 80l89 -8l2 -63q-23 -10 -51 -13.5t-45 -3.5q-29 -2 -49 7.5t-34 33.5l-173 306l3 33l224 273q23 28 42.5 38.5t44.5 9.5q48 0 90 -22l-12 -63l-84 -8l-209 -244zM371 729l-27 43l182 127l43 -71z " />
<glyph unicode="&#x40e;" horiz-adv-x="608" d="M297 685l-9 -75h-63q14 -45 30 -98t29 -98l46 -148h5q13 31 30.5 68t31.5 67l95 209h-62q1 6 2 16.5t2 21.5t2.5 21t2.5 16h219l-9 -75h-54l-246 -516q-15 -30 -29 -50.5t-30.5 -33.5t-37 -19t-47.5 -6q-23 0 -51.5 3.5t-69.5 14.5l20 73q52 -11 82 -11q22 0 39 13t34 47 l33 71h-34q-15 45 -33 98t-37 108.5t-37 109t-32 98.5h-53l9 75h222zM376 731q-27 0 -49.5 10t-41 26.5t-33.5 38t-28 44.5l54 39q24 -40 53.5 -62.5t56.5 -22.5q9 0 22 1.5t31 9t42 23.5t56 44l27 -30q-51 -68 -100.5 -94.5t-89.5 -26.5z" />
<glyph unicode="&#x40f;" horiz-adv-x="717" d="M734 684l-9 -74h-65q-17 -135 -33 -268t-32 -268h64l-8 -74h-276l-23 -179h-83q6 45 11.5 89.5t10.5 89.5h-277q3 18 5 37t4 37h64l67 536h-65l9 74h233q-3 -19 -5 -37t-4 -37h-61l-67 -536h292l67 536h-61q2 19 4.5 37t5.5 37h232z" />
<glyph unicode="&#x410;" horiz-adv-x="676" d="M408 0l8 75h65l-21 114h-249l-49 -114h66l-8 -75h-226l7 75h57l275 611h132l123 -611h53l-9 -75h-224zM411 464l-22 134h-3l-53 -126l-88 -207h202z" />
<glyph unicode="&#x411;" horiz-adv-x="624" d="M560 529h-79l11 82h-231l-25 -202h142q100 0 153.5 -49t53.5 -133q0 -57 -19 -99.5t-51 -71t-74.5 -42.5t-89.5 -14h-339l8 75h68l66 536h-62l9 74h478zM227 334l-32 -259h144q28 0 53 9.5t43.5 28.5t29.5 47t11 65q0 56 -35 82.5t-87 26.5h-127z" />
<glyph unicode="&#x412;" horiz-adv-x="628" d="M427 685q46 0 79.5 -11.5t55.5 -32t32.5 -49t10.5 -62.5q0 -24 -5.5 -48t-18 -46.5t-34 -42t-53.5 -34.5v-1q28 -9 46.5 -25t29.5 -36t15 -42t4 -43q0 -53 -18.5 -92.5t-49.5 -66t-71 -40t-83 -13.5h-353q3 19 5 37.5t4 37.5h68l66 535h-65l9 75h326zM227 317l-29 -242 h140q71 0 105 39.5t34 99.5q0 21 -6.5 39.5t-20 32.5t-34 22.5t-48.5 8.5h-141zM264 610q-8 -56 -14 -111t-14 -110h126q63 0 98.5 36t35.5 91q0 42 -25 68t-82 26h-125z" />
<glyph unicode="&#x413;" horiz-adv-x="561" d="M16 0l8 75h67l65 536h-63l8 74h502l-22 -173h-78l12 99h-252l-66 -536h92l-9 -75h-264z" />
<glyph unicode="&#x414;" horiz-adv-x="717" d="M81 0l-21 -171h-82l29 243l55 3q45 47 75.5 100t50.5 113.5t32.5 129t22.5 146.5l6 47h-70l9 74h534l-9 -74h-64l-66 -536l66 -3l-29 -243h-81l21 171h-479zM335 558q-9 -70 -19 -136t-27 -126.5t-43 -116t-66 -104.5h297l66 536h-201z" />
<glyph unicode="&#x415;" horiz-adv-x="589" d="M16 0l8 75h66l66 536h-63l8 74h500l-22 -173h-78l12 99h-250l-27 -218l236 5l-8 -79l-237 4l-30 -248h270l13 102h80l-22 -177h-522z" />
<glyph unicode="&#x416;" horiz-adv-x="943" d="M574 610q-17 -135 -33.5 -268t-32.5 -267h64l-9 -75h-230l9 75h62q16 134 32.5 267t33.5 268h-63q6 37 9 75h230l-9 -75h-63zM160 599q-22 2 -43.5 4t-43.5 4q-1 17 -1 32v31q20 10 45.5 16t47.5 7q18 0 32.5 -4t27.5 -24l186 -299q-2 -8 -2.5 -16.5t-1.5 -16.5 l-251 -305q-21 -26 -42 -31t-41 -5q-17 1 -38.5 5t-38.5 11l4 63q23 2 44 5t44 5q54 70 110.5 139.5t111.5 140.5zM962 607q-23 -2 -44.5 -4t-44.5 -4l-206 -247l148 -271l90 -10l2 -63q-22 -8 -50 -12t-45 -4q-33 0 -54.5 14.5t-42.5 54.5l-147 275l3 32l245 291 q18 21 35 27t34 6q24 0 46.5 -6t42.5 -16z" />
<glyph unicode="&#x417;" horiz-adv-x="570" d="M169 491h-81q6 41 10 81t9 81q24 11 51.5 19t56 13.5t56.5 8.5t53 3q46 0 86 -8.5t69.5 -27t46.5 -48t17 -70.5q0 -59 -33.5 -104t-93.5 -66v-1q53 -17 80.5 -56t27.5 -89q0 -59 -24.5 -102.5t-65.5 -72t-94 -43t-110 -14.5q-59 0 -116 9.5t-102 30.5l32 75 q51 -17 95.5 -23t76.5 -6q97 0 147 37.5t50 108.5q0 49 -39 77.5t-100 28.5h-82l8 72h77q36 0 65 9.5t49 26t30.5 38.5t10.5 47q0 50 -36 70.5t-92 20.5q-32 0 -64 -6t-59 -17z" />
<glyph unicode="&#x418;" horiz-adv-x="734" d="M499 610q3 19 5 37t4 37h247l-9 -74h-67l-67 -535h68l-8 -75h-239q3 18 4.5 37t4.5 38h66q12 100 24.5 200.5t25.5 201.5h-3q-90 -94 -178 -186.5t-178 -185.5l-4 -30h65q-3 -19 -5 -38t-4 -37h-238l9 75h69q16 134 32 267t33 268h-66q2 19 4 37t4 37h239q-3 -19 -5 -37 t-4 -37h-67l-49 -398h2q90 93 178.5 185t179.5 185l3 28h-76v0z" />
<glyph unicode="&#x419;" horiz-adv-x="734" d="M499 610q3 19 5 37t4 37h247l-9 -74h-67l-67 -535h68l-8 -75h-239q3 18 4.5 37t4.5 38h66q12 100 24.5 200.5t25.5 201.5h-3q-90 -94 -178 -186.5t-178 -185.5l-4 -30h65q-3 -19 -5 -38t-4 -37h-238l9 75h69q16 134 32 267t33 268h-66q2 19 4 37t4 37h239q-3 -19 -5 -37 t-4 -37h-67l-49 -398h2q90 93 178.5 185t179.5 185l3 28h-76zM435 751q-27 0 -49.5 10t-41 26.5t-33.5 38t-28 44.5l54 39q24 -41 53.5 -63t56.5 -22q9 0 22 1.5t31 9t42 23t56 44.5l27 -31q-26 -34 -51 -57t-49.5 -37t-47 -20t-42.5 -6z" />
<glyph unicode="&#x41a;" horiz-adv-x="649" d="M194 75h63l-9 -75h-232l8 75h63l66 536h-63l9 74h232l-8 -74h-64zM520 80l89 -8l2 -63q-23 -10 -51 -13.5t-45 -3.5q-29 -2 -49 7.5t-34 33.5l-173 306l3 33l224 273q23 28 42.5 38.5t44.5 9.5q48 0 90 -22l-12 -63l-84 -8l-209 -244z" />
<glyph unicode="&#x41b;" horiz-adv-x="693" d="M387 0l9 76h59l66 534h-196l-8 -71q-14 -110 -31.5 -206t-50.5 -170t-87 -121.5t-139 -61.5l-19 77q57 18 94.5 51.5t62 88t40.5 133.5t30 188l11 92h-85l9 76h550l-9 -75h-65l-65 -535h64l-8 -76h-232z" />
<glyph unicode="&#x41c;" horiz-adv-x="882" d="M443 198l57 110l202 377h199l-10 -75h-61l-65 -535h60l-9 -75h-223l8 75h60l55 454h-2l-50 -94l-190 -348h-92l-138 442h-3l-54 -454h62l-9 -75h-226l9 75h65l65 535h-64l9 75h192l107 -344l40 -143h6z" />
<glyph unicode="&#x41d;" horiz-adv-x="717" d="M419 0l9 76h60l30 245h-292l-30 -245h61l-9 -76h-232l8 76h64l66 535h-64l9 75h232l-9 -75h-61l-26 -215h292l26 215h-60l9 75h233l-9 -75h-64l-66 -535h64l-8 -76h-233z" />
<glyph unicode="&#x41e;" horiz-adv-x="684" d="M398 697q72 0 121 -22t79 -61t43.5 -91t13.5 -112q0 -88 -21.5 -164.5t-63.5 -133.5t-103.5 -89.5t-141.5 -32.5q-70 0 -120 19.5t-82 55.5t-47 87t-15 114q0 81 19.5 158.5t60.5 138t104.5 97t152.5 36.5zM395 617q-64 0 -106.5 -32t-68.5 -82.5t-37 -113t-11 -124.5 q0 -95 37 -144t121 -49q57 0 97.5 28t66 75.5t37.5 109.5t12 130q0 40 -6.5 76.5t-23 64.5t-45 44.5t-73.5 16.5z" />
<glyph unicode="&#x41f;" horiz-adv-x="717" d="M419 0l9 76h60l65 533h-292l-65 -533h61l-9 -76h-232l8 76h64l65 533h-64l10 77h636l-10 -77h-64l-65 -533h64l-8 -76h-233z" />
<glyph unicode="&#x420;" horiz-adv-x="580" d="M395 686q94 0 143.5 -45.5t49.5 -133.5q0 -40 -12.5 -81t-40.5 -74.5t-72.5 -55t-108.5 -21.5h-135l-25 -200h84l-8 -75h-254l8 75h64l65 536h-63l9 75h296zM260 611l-32 -263h111q25 0 49.5 8.5t44 26.5t31.5 47t12 70q0 56 -28.5 83.5t-76.5 27.5h-111z" />
<glyph unicode="&#x421;" horiz-adv-x="575" d="M412 698q54 0 96.5 -8t74.5 -20l-21 -174h-79l12 104q-17 5 -40.5 8.5t-48.5 3.5q-59 0 -102.5 -25t-72 -69t-43 -106t-14.5 -135q0 -93 43 -141t145 -48q12 0 30.5 1t39.5 4t43 7t42 10l16 -85q-20 -8 -45 -14t-52 -10.5t-54.5 -7t-51.5 -2.5q-74 0 -125 19.5t-83 56 t-46.5 88t-14.5 114.5q0 42 5.5 90.5t20 96t39.5 91.5t64 77.5t93.5 53.5t128.5 20z" />
<glyph unicode="&#x422;" horiz-adv-x="569" d="M128 0l9 75h79l66 536h-139l-12 -106h-78l22 181h537l-22 -181h-79l13 106h-137l-65 -536h80l-8 -75h-266z" />
<glyph unicode="&#x423;" horiz-adv-x="608" d="M297 685l-9 -75h-63q14 -45 30 -98t29 -98l46 -148h5q13 31 30.5 68t31.5 67l95 209h-62q1 6 2 16.5t2 21.5t2.5 21t2.5 16h219l-9 -75h-54l-246 -516q-15 -30 -29 -50.5t-30.5 -33.5t-37 -19t-47.5 -6q-23 0 -51.5 3.5t-69.5 14.5l20 73q52 -11 82 -11q22 0 39 13t34 47 l33 71h-34q-15 45 -33 98t-37 108.5t-37 109t-32 98.5h-53l9 75h222z" />
<glyph unicode="&#x424;" horiz-adv-x="782" d="M570 685l-9 -73h-59l-4 -26q63 -5 114.5 -21.5t88 -44t57 -66t20.5 -87.5q0 -62 -30 -108.5t-78 -79t-108.5 -50.5t-121.5 -22l-5 -34h59l-8 -73h-218l8 73h59l5 34q-58 3 -110 17t-91.5 40t-62.5 64t-23 88q0 59 27 107.5t74 83.5t110 55.5t135 24.5l3 25h-59l9 73h218z M392 509q-48 -3 -91.5 -15.5t-76.5 -35t-53 -55t-20 -75.5q0 -36 16.5 -62.5t44 -44.5t63.5 -28t75 -14zM448 179q44 3 86 15t74.5 34.5t52 56t19.5 78.5q0 64 -50 103t-140 43z" />
<glyph unicode="&#x425;" horiz-adv-x="647" d="M453 686h225l-9 -76h-55l-207 -258l141 -276h62l-8 -76h-248l9 76h64l-107 215l-162 -215h72l-9 -76h-228l8 76h47l220 288l-123 246h-66l9 76h243l-9 -76h-60l93 -190l148 190h-59z" />
<glyph unicode="&#x426;" horiz-adv-x="717" d="M659 610q-16 -135 -32 -268t-33 -268h75q-8 -60 -15 -121t-14 -123h-82q6 43 11.5 85.5t10.5 84.5h-567q3 18 5 37t4 37h65q16 135 32.5 268t33.5 268h-64q3 35 9 74h232l-9 -74h-61l-66 -536h292q16 135 32.5 268t33.5 268h-60q2 19 4 37t5 37h232q-2 -19 -4 -37t-5 -37 h-65v0z" />
<glyph unicode="&#x427;" horiz-adv-x="676" d="M618 75q-3 -19 -5 -38t-4 -37h-235q3 18 5 37l4 38h63l28 221q-47 -14 -91.5 -20t-85.5 -6q-42 1 -77 9t-60.5 25t-39.5 43t-14 62v12t1 12q6 45 11.5 88t10.5 88h-63q6 37 9 75h231l-8 -75h-62l-19 -153q-1 -5 -1 -9.5v-9.5q0 -49 31.5 -67t91.5 -18q36 0 74.5 6.5 t69.5 19.5q8 58 15 115.5t14 115.5h-59l9 75h230q-2 -19 -4 -37.5t-4 -37.5h-66q-16 -134 -32.5 -267t-33.5 -267h66v0z" />
<glyph unicode="&#x428;" horiz-adv-x="978" d="M486 610h-58l9 75h222l-8 -75h-60l-66 -535h227l66 535h-60l9 75h229l-9 -75h-64l-66 -535h64l-8 -75h-897l8 75h64l66 535h-64l9 75h228l-8 -75h-60l-66 -535h227z" />
<glyph unicode="&#x429;" horiz-adv-x="978" d="M486 610h-58l9 75h222l-8 -75h-60l-66 -535h227l66 535h-60l9 75h229l-9 -75h-64l-66 -535h74l-30 -246h-81l22 171h-826l8 75h64l66 535h-64l9 75h228l-8 -75h-60l-66 -535h227z" />
<glyph unicode="&#x42a;" horiz-adv-x="774" d="M385 409h143q99 0 153 -49t54 -132q0 -57 -19 -100t-51 -71.5t-74.5 -42.5t-89.5 -14h-339l8 75h68l65 536h-159l-15 -116h-78l24 190h409l-10 -74h-63zM377 334l-32 -259h143q28 0 53.5 9.5t44 28.5t29.5 47t11 65q0 56 -35 82.5t-86 26.5h-128z" />
<glyph unicode="&#x42b;" horiz-adv-x="911" d="M230 334l-31 -259h143q28 0 53 9.5t44 28.5t30 47t11 65q0 56 -35.5 82.5t-86.5 26.5h-128zM334 611h-70l-24 -202h141q100 0 153.5 -49t53.5 -132q0 -56 -19 -99t-51 -71.5t-74.5 -43t-89.5 -14.5h-338l8 75h68l66 536h-68l9 75h245zM608 0l9 75h63l67 536h-64l9 74h234 l-9 -74h-64l-65 -536h64l-9 -75h-235z" />
<glyph unicode="&#x42c;" horiz-adv-x="633" d="M235 334l-31 -259h143q28 0 53 9.5t44 28.5t30 47t11 65q0 56 -35.5 82.5t-86.5 26.5h-128zM339 611h-70l-24 -202h141q100 0 154 -48.5t54 -131.5q0 -57 -19 -100t-51.5 -71.5t-75 -43t-89.5 -14.5h-338l8 75h68l66 536h-68l9 75h245z" />
<glyph unicode="&#x42d;" horiz-adv-x="576" d="M192 318l11 81l240 -7q3 22 3 43q0 38 -9 70.5t-29.5 56t-52 37t-76.5 13.5q-25 0 -54 -4.5t-49 -9.5q-3 -24 -6 -48.5t-5 -48.5h-80l21 167q35 12 82.5 20.5t101.5 8.5q78 0 129 -22.5t81 -60.5t42 -88.5t12 -106.5q0 -87 -20 -164t-63 -135.5t-110.5 -92.5t-161.5 -34 q-48 0 -98 7.5t-85 23.5l28 78q37 -11 76 -17t71 -6q58 0 101 19t72.5 52t46.5 77t23 95z" />
<glyph unicode="&#x42e;" horiz-adv-x="958" d="M681 697q68 0 115.5 -22t77.5 -60t43.5 -89.5t13.5 -111.5q0 -90 -20.5 -167t-61 -133.5t-100.5 -88.5t-138 -32q-69 0 -118 19.5t-79.5 55.5t-45 87.5t-14.5 116.5q0 12 0.5 23.5t1.5 24.5h-131q-8 -61 -15.5 -122t-15.5 -123h61l-8 -75h-233l9 75h64l67 535h-65l9 74 h236l-9 -74h-64l-27 -215h133q12 60 35.5 114.5t61 96.5t91 66.5t126.5 24.5zM674 616q-62 0 -103 -32.5t-65.5 -84t-34.5 -115t-10 -125.5q0 -93 35.5 -140.5t119.5 -47.5q55 0 94.5 28.5t64.5 76t36.5 110t11.5 131.5q0 40 -7.5 76t-24.5 63.5t-45.5 43.5t-71.5 16z" />
<glyph unicode="&#x42f;" horiz-adv-x="646" d="M346 611q-27 0 -51 -9t-42.5 -27t-29.5 -45.5t-11 -64.5q0 -31 11 -50.5t28 -30.5t37.5 -15t39.5 -4h111l30 246h-123zM309 292l-130 -239q-8 -15 -16 -27t-18 -19.5t-23 -11.5t-31 -4q-8 0 -20.5 1t-25.5 2.5t-26 4.5t-22 6l7 61l77 10l130 233q-32 8 -53 25t-33.5 39 t-17.5 47t-5 48q0 53 17 94t48 68.5t74.5 41.5t95.5 14h311l-9 -75h-63l-66 -536h66l-9 -75h-240l9 75h67l27 217h-121z" />
<glyph unicode="&#x430;" horiz-adv-x="571" d="M295 497q29 0 58 -7t60 -20l24 27l69 -4q-9 -57 -17.5 -114.5t-16 -111t-13.5 -102t-10 -88.5q20 2 41 9.5t41 18.5q4 -8 11 -23t12 -23q-15 -15 -33.5 -27.5t-37.5 -22.5t-37 -15.5t-33 -5.5q-34 0 -47.5 18t-15.5 47q0 20 2.5 40.5t6.5 43.5h-5q-22 -44 -45 -72 t-46.5 -45t-47 -23.5t-46.5 -6.5q-58 0 -93.5 42t-35.5 128q0 69 16 130t48 107t80 73t111 27zM211 66q18 0 37.5 10t40.5 34.5t41.5 65t40.5 100.5l20 123q-29 11 -53 14.5t-41 3.5q-45 0 -74.5 -24.5t-47 -60.5t-24.5 -78t-7 -78q0 -56 18.5 -83t48.5 -27z" />
<glyph unicode="&#x431;" horiz-adv-x="525" d="M333 492q75 0 117.5 -48.5t42.5 -142.5q0 -52 -14.5 -106.5t-45.5 -99.5t-81 -73.5t-120 -28.5q-57 0 -94 15t-58.5 42t-29.5 64.5t-8 81.5q0 27 2.5 57.5t7 62t10 62.5t12.5 59q11 47 27 89t37.5 75.5t51 58t67.5 36.5q22 7 48.5 11.5t56 7.5t59.5 6.5t58 9.5 q3 -19 6 -37t7 -37q-42 -10 -79.5 -13.5t-61.5 -6.5q-44 -5 -76 -20.5t-55.5 -45.5t-40 -77t-28.5 -115l5 -4q21 40 45.5 63.5t48.5 35.5t46 15t37 3zM299 414q-17 0 -37.5 -8t-41.5 -26t-40.5 -46.5t-34.5 -68.5q-3 -22 -5.5 -43.5t-2.5 -40.5q0 -23 4.5 -43.5t15.5 -36 t29.5 -24.5t47.5 -9q33 0 61 16.5t48 47.5t31 76t11 101q0 30 -8 50t-20 32.5t-27 17.5t-31 5z" />
<glyph unicode="&#x432;" horiz-adv-x="501" d="M219 -12q-17 0 -40.5 1.5t-49.5 6t-52.5 12t-49.5 18.5l-6 11q8 64 15.5 127.5t15.5 127.5q4 46 20 84.5t43 66t66 43t91 15.5q77 0 123 -37.5t47 -95.5q0 -30 -16 -59t-50 -41q40 -6 61 -35t21 -64q0 -51 -21.5 -85.5t-55.5 -56t-76.5 -30.5t-85.5 -9zM224 64 q25 0 49.5 5t43.5 17t30.5 32.5t11.5 50.5q0 32 -25.5 50.5t-67.5 18.5h-53l6 61h51q38 0 57 17.5t19 44.5q0 21 -17.5 42t-57.5 21q-32 0 -54 -9.5t-36 -27t-21.5 -42t-11.5 -55.5l-24 -211q11 -4 25 -6.5t27.5 -4.5t26 -3t21.5 -1z" />
<glyph unicode="&#x433;" horiz-adv-x="436" d="M268 501q65 0 104.5 -26.5t39.5 -80.5q0 -30 -14 -54t-39 -45t-60 -39.5t-76 -36.5q-38 -17 -65.5 -40t-27.5 -58q0 -29 22 -42.5t58 -13.5q35 0 77.5 12t84.5 32l26 -57q-48 -32 -105 -46.5t-103 -14.5q-37 0 -67 6.5t-51 20.5t-32.5 37t-11.5 55q0 33 15.5 59.5 t40.5 48t55.5 39t62.5 31.5q19 9 38 19t34.5 21.5t25 24.5t9.5 28q0 28 -21 37.5t-45 9.5q-32 0 -68 -11.5t-75 -28.5l-26 58q41 25 92 40t102 15z" />
<glyph unicode="&#x434;" horiz-adv-x="555" d="M409 470q1 35 -4.5 67t-19.5 56.5t-39.5 39t-64.5 14.5q-26 0 -57 -3.5t-82 -19.5l-17 69q42 18 82 26t77 8q115 0 166 -68.5t51 -210.5q-1 -47 -5.5 -99t-16 -102.5t-31.5 -96.5t-50.5 -81t-73 -55.5t-100.5 -20.5q-56 0 -91.5 14.5t-55.5 40t-28 60t-8 73.5 q0 54 14.5 110t44.5 101.5t75.5 74t106.5 28.5q27 0 61.5 -5.5t65.5 -19.5zM401 396q-26 11 -54.5 15t-51.5 4q-40 0 -69 -22.5t-48 -58t-28 -80t-9 -89.5q0 -49 20 -73t66 -24q78 1 123 79.5t51 248.5z" />
<glyph unicode="&#x435;" horiz-adv-x="481" d="M308 501q69 0 106 -35t37 -92q0 -85 -80.5 -127.5t-227.5 -50.5q-1 -6 -1 -12v-11q0 -20 4 -39t15 -34t30.5 -24.5t50.5 -9.5q37 0 74.5 9.5t73.5 24.5l21 -60q-18 -11 -41 -19.5t-48 -15t-51.5 -10t-51.5 -3.5q-55 0 -89.5 15.5t-54.5 41.5t-27.5 61.5t-7.5 74.5 q0 51 12.5 106.5t43 102t82.5 77t130 30.5zM293 424q-64 0 -101 -46t-46 -126q103 5 156 31t53 80q0 27 -14.5 44t-47.5 17z" />
<glyph unicode="&#x436;" horiz-adv-x="824" d="M143 497q30 0 64 -21.5t64 -54.5t53.5 -73t34.5 -76l-5 -25q-24 -38 -49.5 -75t-57.5 -76q-41 -51 -75 -79.5t-65 -28.5q-25 0 -50.5 15.5t-49.5 64.5l36 37q14 -12 27.5 -21.5t34.5 -15.5q13 11 33 32.5t43.5 49.5t49.5 60.5t50 65.5q-10 25 -27 49t-37.5 43.5 t-42.5 31.5t-42 12q-11 0 -23.5 -2t-27.5 -10l-27 37q11 27 32.5 43.5t56.5 16.5zM735 500q35 0 51 -17t21 -44l-34 -35q-16 8 -27 10t-22 2q-18 0 -37.5 -10.5t-39 -28.5t-39 -42t-35.5 -51q17 -35 36 -69.5t36.5 -64t32 -50.5t23.5 -30q22 6 38.5 16t32.5 21l28 -36 q-22 -29 -48 -49.5t-53 -28.5q-18 -5 -34 -5q-20 1 -44 29t-51 79q-21 41 -41 81.5t-34 73.5l4 27q23 45 52 85.5t60 71t63 48t61 17.5zM459 501q44 0 44 -41q0 -4 -0.5 -8.5t-1.5 -9.5l-58 -442h-103q15 110 28 210.5t27 204.5l-66 9l4 53q38 11 68 17.5t58 6.5z" />
<glyph unicode="&#x437;" horiz-adv-x="455" d="M118 322l-49 4q-4 27 -5.5 52t-1.5 46q0 23 14.5 35t31.5 20q21 9 54.5 14.5t74.5 6.5q37 0 69.5 -7.5t56.5 -22t38 -36t14 -50.5q0 -15 -4.5 -32t-15 -32.5t-27.5 -28.5t-42 -22v-3q42 -11 64 -40t22 -68q0 -40 -18 -71t-49 -52t-74 -32t-92 -11q-51 0 -95.5 8.5 t-75.5 24.5l24 66q33 -12 68.5 -18.5t67.5 -6.5q63 0 102 24.5t39 75.5q0 19 -8 32t-21 20.5t-29 10.5t-32 3h-58l6 58h46q19 0 37.5 4t33 12.5t23 21.5t8.5 32q0 35 -27.5 48.5t-66.5 13.5q-23 0 -42 -4.5t-35 -10.5z" />
<glyph unicode="&#x438;" horiz-adv-x="598" d="M179 499q32 0 42.5 -12t10.5 -38v-9.5t-1 -9.5q-2 -18 -5 -44t-6.5 -56.5t-7.5 -62t-7 -59.5t-5 -49.5t-2 -31.5q0 -26 10 -40t33 -14q18 0 39 11t43 36t43 64.5t38 96.5l29 208h98q-14 -100 -27.5 -207.5t-24.5 -205.5q22 2 40.5 8t37.5 15l23 -44q-36 -35 -75.5 -50.5 t-65.5 -15.5q-18 0 -29.5 5.5t-17.5 14.5t-8 20.5t-2 24.5q0 18 2.5 41.5t4.5 40.5h-5q-23 -43 -48.5 -71t-51.5 -44.5t-50 -23t-42 -6.5q-53 0 -77 26t-24 74v17.5t2 23.5q4 41 11.5 107.5t20.5 174.5l-92 14l4 49q42 12 77.5 17t64.5 5z" />
<glyph unicode="&#x439;" horiz-adv-x="598" d="M179 499q32 0 42.5 -12t10.5 -38v-9.5t-1 -9.5q-2 -18 -5 -44t-6.5 -56.5t-7.5 -62t-7 -59.5t-5 -49.5t-2 -31.5q0 -26 10 -40t33 -14q18 0 39 11t43 36t43 64.5t38 96.5l29 208h98q-14 -100 -27.5 -207.5t-24.5 -205.5q22 2 40.5 8t37.5 15l23 -44q-36 -35 -75.5 -50.5 t-65.5 -15.5q-18 0 -29.5 5.5t-17.5 14.5t-8 20.5t-2 24.5q0 18 2.5 41.5t4.5 40.5h-5q-23 -43 -48.5 -71t-51.5 -44.5t-50 -23t-42 -6.5q-53 0 -77 26t-24 74v17.5t2 23.5q4 41 11.5 107.5t20.5 174.5l-92 14l4 49q42 12 77.5 17t64.5 5zM332 551q-27 0 -49.5 10t-41 26.5 t-33.5 38t-28 44.5l54 39q24 -41 53.5 -63t56.5 -22q9 0 22 1.5t31 9t42 23t56 44.5l27 -31q-26 -34 -51 -57t-49.5 -37t-47 -20t-42.5 -6z" />
<glyph unicode="&#x43a;" horiz-adv-x="542" d="M465 500q29 0 47 -17.5t25 -43.5l-38 -36q-14 8 -26 10.5t-23 2.5q-23 0 -44 -12.5t-40.5 -31.5t-38 -41.5t-34.5 -42.5q16 -31 37 -65.5t42 -65.5t38 -54.5t25 -32.5q22 6 40 16.5t32 20.5q8 -9 15.5 -18t15.5 -18q-33 -44 -67 -62.5t-62 -20.5q-17 0 -30.5 7.5 t-25.5 22t-25.5 35t-30.5 46.5q-26 40 -48 81t-36 73l3 27q20 36 49.5 75t63 71t69 53t67.5 21zM175 501q22 0 35 -10t13 -29q0 -4 -0.5 -8.5t-1.5 -11.5l-58 -442h-103q15 110 28 210t27 204q-20 3 -38.5 6t-38.5 5q1 13 2 25.5t3 26.5q38 11 71 17.5t61 6.5z" />
<glyph unicode="&#x43b;" horiz-adv-x="549" d="M9 10q64 118 124 232.5t125 240.5l117 14l12 -9q11 -114 25 -217.5t31 -188.5q17 2 34.5 8.5t34.5 17.5l22 -44q-27 -29 -62 -50.5t-66 -21.5q-29 0 -43.5 11t-21.5 46q-14 79 -22.5 160t-16.5 170h-4q-47 -101 -90.5 -191.5t-93.5 -187.5h-97z" />
<glyph unicode="&#x43c;" horiz-adv-x="735" d="M354 137q1 0 1.5 -0.5t1.5 -0.5l36 85q30 75 57 138t57 125l101 14l10 -9v-66q0 -98 2.5 -185t10.5 -158q34 4 70 26l22 -44q-30 -31 -66.5 -50.5t-66.5 -19.5q-24 0 -41 8.5t-20 35.5q-7 63 -6 143.5t3 174.5h-4q-19 -44 -34.5 -79t-30.5 -71t-32 -76.5t-40 -94.5 q-22 -3 -43.5 -6t-42.5 -5l-14 9q-14 69 -26.5 154t-20.5 179h-5q-14 -39 -27.5 -78t-28 -82.5t-31 -93.5t-35.5 -110h-88l-11 12q54 148 97 264.5t85 207.5q26 4 50 7t50 8l15 -13q11 -110 21 -192.5t24 -156.5z" />
<glyph unicode="&#x43d;" horiz-adv-x="604" d="M536 488q-6 -44 -13 -95.5t-14 -105.5t-13.5 -108.5t-12.5 -102.5q22 2 41.5 8t37.5 15l22 -44q-18 -18 -38.5 -30.5t-40 -20.5t-36.5 -11.5t-29 -3.5q-35 0 -49.5 16t-14.5 45q0 19 6 61q3 23 6.5 50.5t8.5 62.5h-192q-6 -38 -11 -74t-9 -66t-7 -52t-4 -32h-102 q6 44 20 146t33 267q-23 3 -46.5 6.5t-46.5 7.5q1 12 1.5 25t2.5 25q42 12 77.5 17t64.5 5q27 0 39.5 -7.5t14.5 -25.5q0 -1 0.5 -2t0.5 -3q0 -5 -1.5 -21.5t-4.5 -40.5t-6.5 -53t-7.5 -60h193q7 51 13.5 101t14.5 101h102v0z" />
<glyph unicode="&#x43e;" horiz-adv-x="521" d="M296 499q53 0 90 -16t60.5 -44t34 -65t10.5 -79q0 -51 -13 -104.5t-43 -98t-79.5 -72.5t-122.5 -28q-54 0 -90.5 15t-59.5 41.5t-33 62.5t-10 78q0 55 14.5 110.5t45 100t79 72t117.5 27.5zM291 420q-45 0 -73.5 -25t-45 -61.5t-22.5 -78.5t-6 -75q0 -23 4.5 -43t16 -36 t30.5 -25t48 -9q43 0 70.5 23.5t43.5 58.5t22 75t6 72q0 25 -4.5 47.5t-15 39.5t-28.5 27t-46 10z" />
<glyph unicode="&#x43f;" horiz-adv-x="601" d="M417 499q57 0 78.5 -33t21.5 -86q0 -21 -8.5 -95.5t-23.5 -207.5q20 1 38 6.5t38 16.5q5 -7 12 -22t11 -23q-19 -18 -39 -30.5t-39.5 -20.5t-37 -12t-30.5 -4q-35 0 -46.5 15.5t-11.5 44.5q0 5 1 18t2 21q12 118 20 188.5t8 87.5q0 23 -10 38.5t-33 15.5 q-18 0 -39.5 -11.5t-43.5 -36.5t-43 -64.5t-38 -94.5l-29 -210h-102q8 64 15 117t13 101.5t11.5 95t11.5 98.5l-92 15l3 51q43 11 77 16t63 5q32 0 42.5 -10.5t10.5 -34.5q0 -19 -3.5 -47t-8.5 -61h4q23 45 50.5 74.5t54.5 47t51 24.5t41 7z" />
<glyph unicode="&#x440;" horiz-adv-x="561" d="M47 -135q15 133 32.5 275t32.5 272l-93 14l4 51q36 11 73 16.5t69 5.5q35 0 44 -13.5t7 -38.5l-13 -103h5q22 43 45.5 72.5t48 46.5t48.5 24.5t46 7.5q57 0 92 -42.5t35 -130.5q0 -70 -16.5 -130.5t-48.5 -105.5t-80.5 -70.5t-112.5 -25.5q-23 0 -47.5 5t-50.5 12 l-19 -142h86l-8 -73h-255l9 73h67zM353 413q-18 0 -38.5 -10t-41.5 -34t-42.5 -64.5t-40.5 -100.5l-16 -118q28 -11 52 -14.5t41 -3.5q45 0 74.5 23.5t47 59t24.5 76t7 75.5q0 57 -18.5 84t-48.5 27z" />
<glyph unicode="&#x441;" horiz-adv-x="462" d="M300 499q14 0 29.5 -1.5t30.5 -4.5t27 -6t19 -6q18 -8 26.5 -18t8.5 -28q0 -7 -3 -21t-7.5 -30.5t-10.5 -33.5t-12 -31q-14 1 -27.5 1.5t-27.5 2.5q2 22 2.5 44.5t1.5 45.5q-11 4 -27 6t-33 2q-39 0 -68 -19.5t-47.5 -51.5t-28 -74.5t-9.5 -87.5q0 -54 23 -84t80 -30 q33 0 62 6.5t70 18.5q5 -17 12 -33t12 -33q-35 -17 -84 -28.5t-97 -11.5q-50 0 -84.5 12.5t-56 36t-31.5 56t-10 72.5q0 60 12.5 119t42.5 105.5t80 75.5t125 29z" />
<glyph unicode="&#x442;" horiz-adv-x="862" d="M497 344q21 43 46 72.5t49.5 48.5t46.5 27.5t39 8.5q53 0 76.5 -29.5t23.5 -78.5q0 -11 -2 -33t-6 -59t-10 -91.5t-15 -130.5q21 1 39 6.5t38 16.5l22 -44q-35 -35 -73 -52.5t-67 -17.5q-37 0 -50.5 16t-13.5 46q0 5 0.5 13t1.5 16q10 83 16 135t9 82.5t4 45.5t1 23 q0 23 -9 38.5t-32 15.5q-36 0 -75.5 -49.5t-73.5 -158.5l-26 -211h-102l15 121q9 75 14 119.5t7.5 69.5t2.5 36v18q0 22 -9.5 37.5t-32.5 15.5q-35 0 -74 -48t-73 -158l-28 -211h-103q9 64 15.5 117.5t12.5 102t11 95t11 98.5l-91 15l3 50q43 12 77 17t63 5q32 0 43 -11 t11 -31q0 -17 -4 -46t-9 -66h5q23 45 47.5 75t48 47.5t45 24.5t38.5 7q52 0 74 -28.5t22 -74.5q0 -9 -0.5 -21.5t-1.5 -30.5z" />
<glyph unicode="&#x443;" horiz-adv-x="532" d="M442 500q30 0 43.5 -19.5t13.5 -63.5q0 -58 -20 -129t-56 -143t-85.5 -139.5t-108 -120t-124.5 -84.5t-135 -32q-23 0 -43 6t-33.5 18t-19 30.5t1.5 43.5l43 26q15 -13 27.5 -20t24.5 -10.5t23 -4t23 -0.5q38 0 86.5 23t97.5 77q-10 53 -22.5 116t-25.5 125t-25 116.5 t-22 90.5l-74 -18l-16 44q38 34 72 49t54 15q23 0 35.5 -7.5t18.5 -36.5t16.5 -81.5t21.5 -112t21.5 -118.5t17.5 -102q30 37 54 86t41 100.5t26 100.5t9 87l-71 -17l-16 48q34 29 67 43t59 14z" />
<glyph unicode="&#x444;" horiz-adv-x="694" d="M395 723q32 0 44.5 -10t12.5 -33q0 -8 -2 -27t-5 -44t-6.5 -54.5t-7.5 -57.5q61 -2 105 -17.5t72.5 -43.5t42 -66.5t13.5 -84.5q0 -60 -17.5 -111.5t-53.5 -90.5t-92 -63t-132 -27q-5 -33 -8 -66t-8 -65h74l-8 -70h-245l8 70h72l15 131q-68 3 -112 21.5t-70 47.5 t-36.5 66t-10.5 77q0 62 18.5 114.5t55.5 91.5t91 61.5t126 24.5q3 35 7 69.5t7 69.5l-94 15l3 50q42 11 79.5 16.5t61.5 5.5zM564 279q0 30 -7 56t-23.5 45t-44 30.5t-67.5 12.5l-44 -358q50 3 85.5 20t58 45.5t32.5 66.5t10 82zM136 205q0 -63 32.5 -100t109.5 -40l43 358 q-50 -3 -85.5 -21.5t-57.5 -48t-32 -67.5t-10 -81z" />
<glyph unicode="&#x445;" horiz-adv-x="509" d="M85 -16q-2 0 -4.5 -0.5t-5.5 -0.5l-28.5 28.5l-29.5 29.5q0 3 0.5 6t0.5 6q45 48 89 95.5t90 95.5q-18 41 -35.5 81t-34.5 81l-78 -22l-21 43q37 34 70 51t56 17q17 0 34 -6t31 -34q16 -34 28 -67t29 -69l64 88l64 88h11l61 -57v-11l-168 -176q20 -43 37.5 -84.5 t36.5 -85.5q23 2 42.5 10.5t39.5 19.5q8 -11 16 -20.5t17 -20.5q-20 -25 -39.5 -41t-38.5 -25.5t-35 -13t-28 -3.5q-32 0 -47 18.5t-30 53.5l-50 117q-35 -49 -71 -97t-73 -95z" />
<glyph unicode="&#x446;" horiz-adv-x="613" d="M515 12q-19 -12 -40.5 -17.5t-35.5 -5.5q-26 0 -41.5 13.5t-15.5 42.5q0 23 3 45.5t4 45.5h-5q-23 -45 -49.5 -73.5t-53 -44t-50.5 -21.5t-41 -6q-49 0 -74 26.5t-25 73.5q0 8 0.5 18t2.5 27q1 7 3 26.5t5 45.5t6 55.5t6.5 58t6 52.5t4.5 39q-23 3 -46 6.5t-46 7.5l4 50 q42 12 77.5 17t64.5 5t39.5 -9.5t12.5 -33.5v-12t-1 -15q-2 -25 -7.5 -69.5t-11 -90.5t-9.5 -86t-4 -56q0 -26 10 -40t33 -14q18 0 39 11t42.5 36t42.5 64.5t38 96.5l29 208h100q-14 -100 -27 -205t-26 -208q23 1 45 9t42 19q10 -10 19 -19.5t20 -19.5q-18 -58 -35.5 -117 t-35.5 -118h-74l-6 11q14 45 31 89t34 79z" />
<glyph unicode="&#x447;" horiz-adv-x="599" d="M526 489q-12 -98 -24 -200t-25 -212q39 2 79 23q4 -7 11 -22t12 -23q-35 -34 -74 -50.5t-68 -16.5q-38 0 -51.5 18.5t-13.5 52.5q0 23 3 52.5t7.5 59.5t9.5 58.5t8 49.5h-4q-20 -37 -46 -62.5t-52.5 -41.5t-50.5 -23.5t-41 -7.5q-54 0 -77.5 27.5t-23.5 76.5q0 10 2 30.5 t5 44.5l6 48t6 41l-94 15l4 51q42 11 78 16.5t65 5.5q31 0 42 -10.5t11 -37.5q0 -12 -3 -36t-6 -50t-6 -49t-3 -33q0 -53 43 -53q16 0 38 10t44 31.5t42.5 56t34.5 83.5l10 77h102z" />
<glyph unicode="&#x448;" horiz-adv-x="864" d="M799 489q-15 -106 -29 -208.5t-25 -202.5q22 2 40.5 7.5t37.5 15.5q5 -11 10.5 -22.5t12.5 -22.5q-38 -35 -77 -50t-64 -15q-28 0 -45 11.5t-17 37.5q0 20 3 50t8 52h-4q-24 -45 -49.5 -74t-50 -46t-46.5 -23.5t-39 -6.5q-48 0 -69.5 23.5t-21.5 64.5q0 16 0.5 28l1.5 36 q-1 0 -2 -0.5t-2 -0.5q-21 -42 -45.5 -71.5t-49 -47.5t-47 -26t-38.5 -8q-56 0 -78 31.5t-22 83.5q0 24 3.5 62t9 80.5t11 86t9.5 79.5l-93 15l4 50q84 22 143 22q28 0 40 -10t12 -35q0 -10 -2 -32t-5 -50t-7 -59.5t-7 -60.5t-6 -53t-4 -38q-2 -20 -2.5 -26.5t-0.5 -11.5 q0 -23 9.5 -38.5t32.5 -15.5q36 0 75.5 49.5t73.5 158.5q8 66 14 116.5t11 94.5h103q-5 -37 -8 -66.5t-7 -55.5q-9 -72 -13.5 -116t-7 -69.5t-3 -37.5t-0.5 -19q0 -22 9.5 -37.5t32.5 -15.5q38 0 76 52.5t73 167.5q7 50 13.5 98.5t14.5 98.5h103z" />
<glyph unicode="&#x449;" horiz-adv-x="875" d="M516 489q-15 -113 -23 -181t-11.5 -106t-4 -53.5t-0.5 -23.5q0 -22 9.5 -37.5t32.5 -15.5q17 0 36 11.5t37.5 36t37.5 64.5t36 97l28 208h100q-14 -100 -27 -205t-26 -208q23 1 45 9t42 19q10 -10 19 -19.5t20 -19.5q-18 -58 -36 -117t-35 -118h-75l-6 11q15 45 32 89 t34 79q-2 1 -3 3q-20 -11 -41.5 -17t-34.5 -6q-35 0 -45 18t-10 58q0 17 1.5 36t3.5 35h-4q-23 -43 -47 -71t-47 -44t-44.5 -22.5t-38.5 -6.5q-45 0 -71 21.5t-26 66.5q0 16 0.5 28l1.5 36q-1 0 -2 -0.5t-2 -0.5q-21 -42 -45.5 -71.5t-49 -47.5t-47 -26t-38.5 -8 q-29 0 -48.5 9t-31 25t-16 39t-4.5 51q0 24 3.5 60.5t9 78.5l11 84t9.5 76l-93 15l4 50q84 22 143 22q28 0 40 -10t12 -36q0 -10 -2 -31.5t-5 -49.5t-7 -59.5t-7.5 -60.5t-6 -53t-3.5 -38q-2 -20 -2.5 -26.5t-0.5 -11.5q0 -23 9.5 -38.5t32.5 -15.5q36 0 75.5 49.5 t73.5 158.5q4 32 7 53.5t5 43t5 47.5t8 67h103z" />
<glyph unicode="&#x44a;" horiz-adv-x="592" d="M287 -10q-48 0 -80.5 11t-52.5 30t-29 43t-9 51q0 40 8.5 80t22.5 78t32.5 73t38.5 64l-115 -8l-41 -69l-50 8q6 45 11.5 73.5t16 45t26.5 23t43 6.5q9 0 43 -1t73 -2t72 -2.5t41 -1.5l13 -36q-12 -10 -29 -32.5t-33.5 -49t-30 -54t-18.5 -46.5l4 -1q25 31 50.5 52.5 t49.5 34t46 18t40 5.5q58 0 91 -36.5t33 -102.5q0 -36 -14 -80t-46 -82.5t-83 -65t-124 -26.5zM382 309q-11 0 -28.5 -5.5t-38.5 -20t-43 -40t-43 -66.5q-6 -26 -6 -44q0 -25 10.5 -39t24.5 -21t28 -8.5t21 -1.5q35 0 61 16.5t43 42t25.5 56t8.5 59.5q0 72 -63 72z" />
<glyph unicode="&#x44b;" horiz-adv-x="801" d="M219 275q48 60 98.5 84t86.5 24q59 0 91.5 -36t32.5 -102q0 -37 -13.5 -81t-43.5 -82.5t-77.5 -64t-115.5 -25.5q-16 0 -39 1.5t-48.5 5.5t-52 11t-49.5 18l-6 11q16 123 27 216.5t19 160.5l-96 15l1 51q42 11 79 16t66 5q58 0 58 -40q0 -11 -2 -33t-5.5 -48.5t-7.5 -55 t-8 -51.5h5zM356 307q-12 0 -30.5 -6t-39 -21.5t-42.5 -41.5t-41 -66l-13 -91q23 -8 46 -11t40 -3q36 0 63.5 15t45.5 39t27.5 53.5t9.5 58.5q0 36 -17 55t-49 19zM632 489h103q-1 -4 -5 -34.5t-9.5 -75t-12.5 -95.5t-13 -95.5t-10 -76t-5 -35.5q42 3 81 24l23 -45 q-35 -35 -74 -52t-67 -17q-39 0 -53 18t-14 46q0 6 0.5 12.5t1.5 14.5z" />
</font>
</defs>
</svg>
